<svg width="301" height="84" viewBox="0 0 301 84" fill="none" xmlns="http://www.w3.org/2000/svg">
<path d="M155.942 54.1178C154.849 54.1178 153.889 53.8944 153.062 53.4476C152.235 53.0008 151.548 52.3057 151.002 51.3624C150.472 50.4357 150.075 49.2359 149.81 47.7631C149.545 46.2902 149.413 44.5361 149.413 42.5006C149.413 40.4485 149.545 38.6944 149.81 37.2381C150.075 35.7653 150.472 34.5655 151.002 33.6387C151.548 32.6955 152.235 32.0087 153.062 31.5784C153.889 31.1316 154.849 30.9082 155.942 30.9082C156.107 30.9082 156.248 30.9661 156.364 31.082C156.479 31.1978 156.537 31.3385 156.537 31.504V32.9933C156.537 33.1588 156.479 33.2995 156.364 33.4153C156.264 33.5312 156.14 33.5891 155.991 33.5891C155.313 33.6222 154.742 33.8208 154.278 34.1849C153.815 34.5324 153.443 35.0702 153.161 35.7984C152.897 36.5099 152.706 37.4201 152.59 38.5289C152.475 39.6377 152.417 40.9616 152.417 42.5006C152.417 44.0396 152.475 45.3635 152.59 46.4723C152.706 47.581 152.897 48.4995 153.161 49.2276C153.443 49.9558 153.815 50.4936 154.278 50.8412C154.742 51.2052 155.313 51.4038 155.991 51.4369C156.14 51.4369 156.264 51.4948 156.364 51.6107C156.479 51.7265 156.537 51.8672 156.537 52.0327V53.522C156.537 53.6875 156.479 53.8282 156.364 53.944C156.248 54.0599 156.107 54.1178 155.942 54.1178Z" fill="black"/>
<path d="M167.343 50.4192C165.689 50.4192 164.315 50.1875 163.223 49.7241C162.131 49.2442 161.303 48.6236 160.741 47.8624C160.178 47.1011 159.88 46.2902 159.847 45.4297C159.847 45.2973 159.897 45.1815 159.996 45.0822C160.112 44.9663 160.244 44.9084 160.393 44.9084H163.521C163.752 44.9084 163.926 44.9498 164.042 45.0325C164.174 45.1153 164.29 45.2229 164.389 45.3552C164.522 45.6035 164.704 45.8434 164.936 46.0751C165.184 46.3068 165.498 46.4971 165.879 46.646C166.276 46.7784 166.764 46.8446 167.343 46.8446C168.303 46.8446 169.023 46.6957 169.503 46.3978C169.999 46.0999 170.248 45.6945 170.248 45.1815C170.248 44.8174 170.115 44.5195 169.851 44.2879C169.586 44.0396 169.155 43.8245 168.56 43.6425C167.981 43.4439 167.203 43.2453 166.226 43.0467C164.969 42.7819 163.893 42.4427 162.999 42.029C162.122 41.5987 161.452 41.0443 160.989 40.3658C160.525 39.6708 160.294 38.8102 160.294 37.7842C160.294 36.7747 160.575 35.8728 161.138 35.0785C161.717 34.2841 162.519 33.6636 163.545 33.2168C164.572 32.7699 165.788 32.5465 167.194 32.5465C168.336 32.5465 169.338 32.6955 170.198 32.9933C171.075 33.2912 171.812 33.6884 172.407 34.1849C173.003 34.6813 173.45 35.2109 173.748 35.7735C174.062 36.3196 174.228 36.8575 174.244 37.387C174.244 37.5194 174.195 37.6435 174.095 37.7594C173.996 37.8587 173.872 37.9083 173.723 37.9083H170.446C170.264 37.9083 170.107 37.8752 169.975 37.809C169.842 37.7428 169.726 37.6353 169.627 37.4863C169.528 37.1223 169.263 36.8078 168.833 36.543C168.419 36.2617 167.873 36.1211 167.194 36.1211C166.466 36.1211 165.895 36.2534 165.482 36.5182C165.085 36.7665 164.886 37.1553 164.886 37.6849C164.886 38.0159 164.994 38.3055 165.209 38.5537C165.44 38.8019 165.813 39.0171 166.326 39.1991C166.855 39.3812 167.575 39.5715 168.485 39.77C169.991 40.0514 171.208 40.4072 172.134 40.8374C173.061 41.2512 173.739 41.7973 174.17 42.4758C174.6 43.1377 174.815 43.9734 174.815 44.9829C174.815 46.1082 174.492 47.0846 173.847 47.912C173.218 48.7229 172.341 49.3435 171.216 49.7738C170.09 50.204 168.8 50.4192 167.343 50.4192Z" fill="black"/>
<path d="M179.112 50.1709C178.93 50.1709 178.781 50.113 178.665 49.9972C178.55 49.8648 178.492 49.7158 178.492 49.5503V47.1177C178.492 46.886 178.533 46.6957 178.616 46.5468C178.715 46.3978 178.798 46.2902 178.864 46.2241L186.857 36.4934H179.336C179.17 36.4934 179.021 36.4355 178.889 36.3196C178.773 36.2038 178.715 36.0549 178.715 35.8728V33.4153C178.715 33.2333 178.773 33.0844 178.889 32.9685C179.021 32.8527 179.17 32.7948 179.336 32.7948H191.846C192.028 32.7948 192.177 32.8527 192.293 32.9685C192.426 33.0844 192.492 33.2333 192.492 33.4153V35.8232C192.492 36.0052 192.459 36.1624 192.392 36.2948C192.343 36.4272 192.268 36.5513 192.169 36.6672L184.4 46.4226H192.144C192.326 46.4226 192.475 46.4888 192.591 46.6212C192.723 46.7371 192.79 46.886 192.79 47.068V49.5503C192.79 49.7324 192.723 49.8813 192.591 49.9972C192.475 50.113 192.326 50.1709 192.144 50.1709H179.112Z" fill="black"/>
<path d="M196.87 54.1178C196.705 54.1178 196.564 54.0599 196.448 53.944C196.332 53.8282 196.275 53.6875 196.275 53.522V52.0327C196.275 51.8672 196.324 51.7265 196.424 51.6107C196.539 51.4948 196.672 51.4369 196.821 51.4369C197.516 51.4038 198.087 51.2052 198.533 50.8412C198.997 50.4936 199.361 49.9558 199.626 49.2276C199.907 48.4995 200.106 47.581 200.221 46.4723C200.354 45.3635 200.42 44.0396 200.42 42.5006C200.42 40.9616 200.354 39.6377 200.221 38.5289C200.106 37.4201 199.907 36.5099 199.626 35.7984C199.361 35.0702 198.997 34.5324 198.533 34.1849C198.087 33.8208 197.516 33.6222 196.821 33.5891C196.672 33.5891 196.539 33.5312 196.424 33.4153C196.324 33.2995 196.275 33.1588 196.275 32.9933V31.504C196.275 31.3385 196.332 31.1978 196.448 31.082C196.564 30.9661 196.705 30.9082 196.87 30.9082C197.963 30.9082 198.922 31.1316 199.75 31.5784C200.577 32.0087 201.256 32.6955 201.785 33.6387C202.331 34.5655 202.737 35.7653 203.002 37.2381C203.266 38.6944 203.399 40.4485 203.399 42.5006C203.399 44.5361 203.266 46.2902 203.002 47.7631C202.737 49.2359 202.331 50.4357 201.785 51.3624C201.256 52.3057 200.577 53.0008 199.75 53.4476C198.922 53.8944 197.963 54.1178 196.87 54.1178Z" fill="black"/>
<path d="M208.992 50.1709C208.81 50.1709 208.661 50.113 208.545 49.9972C208.429 49.8813 208.372 49.7324 208.372 49.5503V33.4153C208.372 33.2333 208.429 33.0844 208.545 32.9685C208.661 32.8527 208.81 32.7948 208.992 32.7948H212.12C212.302 32.7948 212.451 32.8527 212.567 32.9685C212.682 33.0844 212.74 33.2333 212.74 33.4153V38.9261L217.333 33.2664C217.399 33.1671 217.506 33.0678 217.655 32.9685C217.821 32.8527 218.036 32.7948 218.301 32.7948H221.875C222.024 32.7948 222.148 32.8527 222.248 32.9685C222.347 33.0678 222.396 33.1837 222.396 33.316C222.396 33.4319 222.363 33.5312 222.297 33.6139L216.365 41.1105L222.769 49.3518C222.835 49.418 222.868 49.5173 222.868 49.6496C222.868 49.782 222.81 49.9061 222.694 50.022C222.595 50.1213 222.479 50.1709 222.347 50.1709H218.648C218.35 50.1709 218.119 50.1047 217.953 49.9723C217.804 49.84 217.705 49.7407 217.655 49.6745L212.74 43.5432V49.5503C212.74 49.7324 212.682 49.8813 212.567 49.9972C212.451 50.113 212.302 50.1709 212.12 50.1709H208.992Z" fill="black"/>
<path d="M227.413 50.1709C227.231 50.1709 227.082 50.113 226.967 49.9972C226.851 49.8813 226.793 49.7324 226.793 49.5503V33.4153C226.793 33.2333 226.851 33.0844 226.967 32.9685C227.082 32.8527 227.231 32.7948 227.413 32.7948H234.165C236.3 32.7948 237.98 33.2912 239.204 34.2841C240.445 35.2605 241.066 36.6506 241.066 38.4544C241.066 39.6294 240.776 40.6223 240.197 41.4332C239.635 42.2441 238.89 42.8564 237.963 43.2701L241.389 49.3766C241.438 49.4759 241.463 49.5669 241.463 49.6496C241.463 49.782 241.405 49.9061 241.289 50.022C241.19 50.1213 241.066 50.1709 240.917 50.1709H237.64C237.326 50.1709 237.094 50.0965 236.945 49.9475C236.797 49.782 236.689 49.6331 236.623 49.5007L233.793 44.0396H231.236V49.5503C231.236 49.7324 231.178 49.8813 231.062 49.9972C230.947 50.113 230.798 50.1709 230.616 50.1709H227.413ZM231.236 40.5396H234.116C234.893 40.5396 235.473 40.3493 235.853 39.9686C236.25 39.588 236.449 39.0667 236.449 38.4048C236.449 37.7594 236.259 37.2381 235.878 36.8409C235.514 36.4438 234.927 36.2452 234.116 36.2452H231.236V40.5396Z" fill="black"/>
<path d="M244.949 50.1709C244.816 50.1709 244.692 50.1213 244.576 50.022C244.477 49.9061 244.427 49.782 244.427 49.6496C244.427 49.5669 244.436 49.4924 244.452 49.4262L250.285 33.4898C250.335 33.3078 250.434 33.1506 250.583 33.0182C250.749 32.8692 250.972 32.7948 251.254 32.7948H254.927C255.209 32.7948 255.424 32.8692 255.573 33.0182C255.738 33.1506 255.846 33.3078 255.895 33.4898L261.704 49.4262C261.737 49.4924 261.754 49.5669 261.754 49.6496C261.754 49.782 261.696 49.9061 261.58 50.022C261.481 50.1213 261.357 50.1709 261.208 50.1709H258.154C257.906 50.1709 257.716 50.113 257.583 49.9972C257.468 49.8648 257.393 49.7489 257.36 49.6496L256.392 47.1177H249.764L248.821 49.6496C248.788 49.7489 248.713 49.8648 248.598 49.9972C248.482 50.113 248.283 50.1709 248.002 50.1709H244.949ZM250.782 43.5432H255.399L253.066 36.9899L250.782 43.5432Z" fill="black"/>
<path d="M266.317 50.1709C266.135 50.1709 265.986 50.113 265.87 49.9972C265.754 49.8813 265.696 49.7324 265.696 49.5503V33.4153C265.696 33.2333 265.754 33.0844 265.87 32.9685C265.986 32.8527 266.135 32.7948 266.317 32.7948H273.888C275.311 32.7948 276.478 32.9933 277.388 33.3905C278.298 33.7877 278.968 34.3586 279.398 35.1033C279.845 35.8315 280.069 36.7003 280.069 37.7097C280.069 38.3055 279.953 38.835 279.721 39.2984C279.506 39.7452 279.233 40.1176 278.902 40.4154C278.587 40.7133 278.29 40.9285 278.008 41.0608C278.637 41.3587 279.191 41.8469 279.671 42.5254C280.168 43.2039 280.416 43.9982 280.416 44.9084C280.416 46.0006 280.168 46.9439 279.671 47.7383C279.191 48.5161 278.48 49.1201 277.537 49.5503C276.61 49.9641 275.468 50.1709 274.111 50.1709H266.317ZM270.139 46.9439H273.615C274.326 46.9439 274.864 46.7371 275.228 46.3233C275.592 45.9096 275.774 45.438 275.774 44.9084C275.774 44.3292 275.584 43.841 275.203 43.4439C274.839 43.0467 274.31 42.8481 273.615 42.8481H270.139V46.9439ZM270.139 39.6956H273.391C274.07 39.6956 274.574 39.5218 274.905 39.1743C275.253 38.8268 275.427 38.38 275.427 37.8338C275.427 37.3043 275.253 36.874 274.905 36.543C274.574 36.1955 274.07 36.0218 273.391 36.0218H270.139V39.6956Z" fill="black"/>
<path d="M154.244 70.2268C153.32 70.2268 152.546 70.0928 151.92 69.8247C151.305 69.5467 150.833 69.1892 150.505 68.7523C150.188 68.3055 150.019 67.8388 149.999 67.3523C149.999 67.2629 150.029 67.1885 150.088 67.1289C150.148 67.0693 150.223 67.0395 150.312 67.0395H151.637C151.766 67.0395 151.861 67.0693 151.92 67.1289C151.99 67.1785 152.049 67.2431 152.099 67.3225C152.159 67.5112 152.273 67.6998 152.442 67.8885C152.61 68.0672 152.839 68.2162 153.127 68.3353C153.425 68.4545 153.797 68.514 154.244 68.514C154.959 68.514 155.49 68.3949 155.837 68.1566C156.195 67.9183 156.374 67.5956 156.374 67.1885C156.374 66.9005 156.279 66.6722 156.091 66.5034C155.902 66.3246 155.609 66.1658 155.212 66.0268C154.825 65.8778 154.308 65.7239 153.663 65.565C152.918 65.3863 152.293 65.1728 151.786 64.9246C151.29 64.6664 150.913 64.3438 150.654 63.9565C150.406 63.5693 150.282 63.0778 150.282 62.482C150.282 61.9061 150.436 61.3948 150.744 60.9479C151.062 60.5011 151.508 60.1486 152.084 59.8905C152.67 59.6323 153.365 59.5032 154.169 59.5032C154.815 59.5032 155.386 59.5926 155.882 59.7713C156.379 59.9401 156.791 60.1685 157.118 60.4565C157.446 60.7345 157.694 61.0373 157.863 61.365C158.042 61.6827 158.136 61.9955 158.146 62.3033C158.146 62.3827 158.116 62.4572 158.057 62.5267C158.007 62.5863 157.933 62.6161 157.833 62.6161H156.448C156.369 62.6161 156.289 62.5962 156.21 62.5565C156.13 62.5168 156.066 62.4423 156.016 62.3331C155.957 62.0253 155.763 61.7621 155.435 61.5437C155.108 61.3253 154.686 61.216 154.169 61.216C153.633 61.216 153.201 61.3153 152.874 61.5139C152.546 61.7125 152.382 62.0203 152.382 62.4373C152.382 62.7154 152.462 62.9487 152.62 63.1373C152.789 63.3161 153.052 63.4749 153.41 63.614C153.777 63.753 154.259 63.9019 154.854 64.0608C155.698 64.2494 156.389 64.4679 156.925 64.7161C157.461 64.9643 157.853 65.2821 158.101 65.6693C158.35 66.0466 158.474 66.5282 158.474 67.114C158.474 67.7693 158.295 68.3303 157.937 68.797C157.59 69.2538 157.098 69.6062 156.463 69.8545C155.828 70.1027 155.088 70.2268 154.244 70.2268Z" fill="black"/>
<path d="M161.149 70.0779C161.049 70.0779 160.965 70.0431 160.895 69.9736C160.826 69.9041 160.791 69.8148 160.791 69.7055V68.663C160.791 68.514 160.821 68.3949 160.881 68.3055C160.94 68.2162 160.985 68.1516 161.015 68.1119L166.198 61.4097H161.298C161.188 61.4097 161.099 61.3749 161.029 61.3054C160.97 61.2359 160.94 61.1515 160.94 61.0522V60.0245C160.94 59.9153 160.97 59.8259 161.029 59.7564C161.099 59.6869 161.188 59.6522 161.298 59.6522H168.417C168.526 59.6522 168.615 59.6869 168.685 59.7564C168.754 59.8259 168.789 59.9153 168.789 60.0245V61.0522C168.789 61.1714 168.769 61.2707 168.73 61.3501C168.69 61.4295 168.645 61.504 168.595 61.5735L163.517 68.3055H168.581C168.69 68.3055 168.779 68.3403 168.849 68.4098C168.918 68.4793 168.953 68.5686 168.953 68.6779V69.7204C168.953 69.8197 168.918 69.9041 168.849 69.9736C168.779 70.0431 168.69 70.0779 168.581 70.0779H161.149Z" fill="black"/>
<path d="M172.23 70.0779C172.13 70.0779 172.046 70.0431 171.976 69.9736C171.907 69.9041 171.872 69.8197 171.872 69.7204V60.0245C171.872 59.9153 171.907 59.8259 171.976 59.7564C172.046 59.6869 172.13 59.6522 172.23 59.6522H173.54C173.649 59.6522 173.739 59.6869 173.808 59.7564C173.878 59.8259 173.913 59.9153 173.913 60.0245V63.5097L177.279 59.9203C177.318 59.8706 177.383 59.816 177.472 59.7564C177.571 59.6869 177.701 59.6522 177.859 59.6522H179.334C179.413 59.6522 179.483 59.682 179.542 59.7415C179.612 59.8011 179.647 59.8756 179.647 59.965C179.647 60.0345 179.627 60.094 179.587 60.1437L175.491 64.6416L179.87 69.5715C179.92 69.6311 179.945 69.6956 179.945 69.7651C179.945 69.8545 179.91 69.9289 179.84 69.9885C179.781 70.0481 179.711 70.0779 179.632 70.0779H178.098C177.929 70.0779 177.795 70.0431 177.696 69.9736C177.606 69.8942 177.547 69.8396 177.517 69.8098L173.913 65.8629V69.7204C173.913 69.8197 173.878 69.9041 173.808 69.9736C173.739 70.0431 173.649 70.0779 173.54 70.0779H172.23Z" fill="black"/>
<path d="M185.942 70.2268C185.059 70.2268 184.299 70.0828 183.664 69.7949C183.028 69.497 182.532 69.0452 182.174 68.4396C181.817 67.8239 181.623 67.0594 181.593 66.1459C181.583 65.719 181.578 65.297 181.578 64.8799C181.578 64.4629 181.583 64.0359 181.593 63.5991C181.623 62.6955 181.822 61.9409 182.189 61.3352C182.556 60.7295 183.058 60.2728 183.693 59.965C184.339 59.6571 185.088 59.5032 185.942 59.5032C186.796 59.5032 187.546 59.6571 188.191 59.965C188.837 60.2728 189.343 60.7295 189.71 61.3352C190.078 61.9409 190.276 62.6955 190.306 63.5991C190.326 64.0359 190.336 64.4629 190.336 64.8799C190.336 65.297 190.326 65.719 190.306 66.1459C190.276 67.0594 190.083 67.8239 189.725 68.4396C189.368 69.0452 188.866 69.497 188.221 69.7949C187.586 70.0828 186.826 70.2268 185.942 70.2268ZM185.942 68.514C186.588 68.514 187.114 68.3254 187.521 67.9481C187.928 67.5608 188.147 66.9353 188.176 66.0714C188.196 65.6346 188.206 65.2324 188.206 64.865C188.206 64.4877 188.196 64.0856 188.176 63.6586C188.157 63.0827 188.047 62.6161 187.849 62.2586C187.66 61.8912 187.402 61.6281 187.074 61.4692C186.747 61.3004 186.369 61.216 185.942 61.216C185.525 61.216 185.153 61.3004 184.825 61.4692C184.498 61.6281 184.235 61.8912 184.036 62.2586C183.847 62.6161 183.743 63.0827 183.723 63.6586C183.713 64.0856 183.708 64.4877 183.708 64.865C183.708 65.2324 183.713 65.6346 183.723 66.0714C183.753 66.9353 183.971 67.5608 184.378 67.9481C184.786 68.3254 185.307 68.514 185.942 68.514Z" fill="black"/>
<path d="M193.96 70.0779C193.861 70.0779 193.776 70.0431 193.707 69.9736C193.637 69.9041 193.602 69.8197 193.602 69.7204V66.131L192.977 66.3693C192.907 66.3991 192.848 66.414 192.798 66.414C192.719 66.414 192.649 66.3892 192.59 66.3395C192.53 66.2899 192.5 66.2204 192.5 66.131V65.3119C192.5 65.1927 192.525 65.1033 192.575 65.0438C192.624 64.9743 192.709 64.9196 192.828 64.8799L193.602 64.5969V60.0096C193.602 59.9103 193.637 59.8259 193.707 59.7564C193.776 59.6869 193.861 59.6522 193.96 59.6522H195.345C195.444 59.6522 195.529 59.6869 195.598 59.7564C195.668 59.8259 195.702 59.9103 195.702 60.0096V63.7629L197.862 62.9288C197.941 62.899 198.001 62.8842 198.041 62.8842C198.12 62.8842 198.19 62.909 198.249 62.9586C198.309 63.0083 198.339 63.0778 198.339 63.1671V63.9863C198.339 64.1054 198.314 64.1948 198.264 64.2544C198.214 64.304 198.13 64.3537 198.011 64.4033L195.702 65.3119V68.3055H200.439C200.538 68.3055 200.622 68.3403 200.692 68.4098C200.761 68.4793 200.796 68.5637 200.796 68.663V69.7204C200.796 69.8197 200.761 69.9041 200.692 69.9736C200.622 70.0431 200.538 70.0779 200.439 70.0779H193.96Z" fill="black"/>
<path d="M202.79 70.0779C202.711 70.0779 202.636 70.0481 202.567 69.9885C202.507 69.9289 202.477 69.8545 202.477 69.7651C202.477 69.7254 202.487 69.6807 202.507 69.6311L206.097 60.0245C206.126 59.9252 206.181 59.8408 206.26 59.7713C206.35 59.6919 206.469 59.6522 206.618 59.6522H208.241C208.39 59.6522 208.504 59.6919 208.584 59.7713C208.663 59.8408 208.723 59.9252 208.763 60.0245L212.352 69.6311C212.362 69.6807 212.367 69.7254 212.367 69.7651C212.367 69.8545 212.337 69.9289 212.278 69.9885C212.218 70.0481 212.148 70.0779 212.069 70.0779H210.773C210.634 70.0779 210.53 70.0481 210.461 69.9885C210.401 69.919 210.361 69.8545 210.341 69.7949L209.641 67.9779H205.218L204.518 69.7949C204.498 69.8545 204.453 69.919 204.384 69.9885C204.324 70.0481 204.225 70.0779 204.086 70.0779H202.79ZM205.739 66.2651H209.12L207.422 61.6629L205.739 66.2651Z" fill="black"/>
<path d="M219.509 70.0779C219.409 70.0779 219.325 70.0431 219.255 69.9736C219.186 69.9041 219.151 69.8197 219.151 69.7204V60.0245C219.151 59.9153 219.186 59.8259 219.255 59.7564C219.325 59.6869 219.409 59.6522 219.509 59.6522H223.5C224.275 59.6522 224.95 59.7763 225.526 60.0245C226.102 60.2628 226.548 60.6302 226.866 61.1267C227.184 61.6132 227.343 62.2239 227.343 62.9586C227.343 63.7033 227.184 64.3189 226.866 64.8055C226.548 65.2821 226.102 65.6395 225.526 65.8778C224.95 66.1161 224.275 66.2353 223.5 66.2353H221.281V69.7204C221.281 69.8197 221.246 69.9041 221.177 69.9736C221.117 70.0431 221.033 70.0779 220.924 70.0779H219.509ZM221.251 64.5821H223.426C224.002 64.5821 224.443 64.448 224.751 64.1799C225.059 63.9019 225.213 63.4948 225.213 62.9586C225.213 62.4622 225.069 62.065 224.781 61.7671C224.493 61.4593 224.041 61.3054 223.426 61.3054H221.251V64.5821Z" fill="black"/>
<path d="M230.637 70.0779C230.538 70.0779 230.453 70.0431 230.384 69.9736C230.314 69.9041 230.279 69.8197 230.279 69.7204V66.131L229.654 66.3693C229.584 66.3991 229.525 66.414 229.475 66.414C229.396 66.414 229.326 66.3892 229.267 66.3395C229.207 66.2899 229.177 66.2204 229.177 66.131V65.3119C229.177 65.1927 229.202 65.1033 229.252 65.0438C229.301 64.9743 229.386 64.9196 229.505 64.8799L230.279 64.5969V60.0096C230.279 59.9103 230.314 59.8259 230.384 59.7564C230.453 59.6869 230.538 59.6522 230.637 59.6522H232.022C232.121 59.6522 232.206 59.6869 232.275 59.7564C232.345 59.8259 232.379 59.9103 232.379 60.0096V63.7629L234.539 62.9288C234.619 62.899 234.678 62.8842 234.718 62.8842C234.797 62.8842 234.867 62.909 234.926 62.9586C234.986 63.0083 235.016 63.0778 235.016 63.1671V63.9863C235.016 64.1054 234.991 64.1948 234.941 64.2544C234.892 64.304 234.807 64.3537 234.688 64.4033L232.379 65.3119V68.3055H237.116C237.215 68.3055 237.299 68.3403 237.369 68.4098C237.438 68.4793 237.473 68.5637 237.473 68.663V69.7204C237.473 69.8197 237.438 69.9041 237.369 69.9736C237.299 70.0431 237.215 70.0779 237.116 70.0779H230.637Z" fill="black"/>
<path d="M241.664 70.0779C241.565 70.0779 241.48 70.0431 241.411 69.9736C241.341 69.9041 241.306 69.8197 241.306 69.7204V66.3544L237.792 60.1288C237.782 60.1089 237.772 60.0841 237.762 60.0543C237.752 60.0245 237.747 59.9947 237.747 59.965C237.747 59.8756 237.777 59.8011 237.836 59.7415C237.896 59.682 237.965 59.6522 238.045 59.6522H239.37C239.489 59.6522 239.584 59.682 239.653 59.7415C239.733 59.8011 239.787 59.8657 239.817 59.9352L242.349 64.2693L244.866 59.9352C244.906 59.8657 244.96 59.8011 245.03 59.7415C245.109 59.682 245.209 59.6522 245.328 59.6522H246.638C246.728 59.6522 246.802 59.682 246.862 59.7415C246.921 59.8011 246.951 59.8756 246.951 59.965C246.951 59.9947 246.946 60.0245 246.936 60.0543C246.936 60.0841 246.926 60.1089 246.907 60.1288L243.392 66.3544V69.7204C243.392 69.8197 243.357 69.9041 243.287 69.9736C243.218 70.0431 243.128 70.0779 243.019 70.0779H241.664Z" fill="black"/>
<path d="M251.361 70.0779C251.212 70.0779 251.093 70.0382 251.003 69.9587C250.924 69.8694 250.869 69.7601 250.839 69.6311L249.067 60.0841C249.067 60.0543 249.062 60.0295 249.052 60.0096C249.052 59.9898 249.052 59.9749 249.052 59.965C249.052 59.8756 249.082 59.8011 249.142 59.7415C249.211 59.682 249.285 59.6522 249.365 59.6522H250.676C250.924 59.6522 251.063 59.7515 251.093 59.9501L252.329 66.697L253.669 62.3331C253.699 62.2536 253.749 62.1742 253.818 62.0948C253.898 62.0054 254.012 61.9607 254.161 61.9607H254.965C255.124 61.9607 255.238 62.0054 255.308 62.0948C255.377 62.1742 255.422 62.2536 255.442 62.3331L256.797 66.6821L258.033 59.9501C258.063 59.7515 258.202 59.6522 258.45 59.6522H259.761C259.84 59.6522 259.91 59.682 259.969 59.7415C260.029 59.8011 260.059 59.8756 260.059 59.965C260.059 59.9749 260.059 59.9898 260.059 60.0096C260.059 60.0295 260.054 60.0543 260.044 60.0841L258.271 69.6311C258.252 69.7601 258.197 69.8694 258.108 69.9587C258.018 70.0382 257.899 70.0779 257.75 70.0779H256.752C256.603 70.0779 256.484 70.0382 256.395 69.9587C256.315 69.8793 256.261 69.7949 256.231 69.7055L254.563 64.731L252.895 69.7055C252.855 69.7949 252.795 69.8793 252.716 69.9587C252.637 70.0382 252.517 70.0779 252.359 70.0779H251.361Z" fill="black"/>
<path d="M261.937 70.0779C261.857 70.0779 261.783 70.0481 261.713 69.9885C261.654 69.9289 261.624 69.8545 261.624 69.7651C261.624 69.7254 261.634 69.6807 261.654 69.6311L265.243 60.0245C265.273 59.9252 265.327 59.8408 265.407 59.7713C265.496 59.6919 265.615 59.6522 265.764 59.6522H267.388C267.537 59.6522 267.651 59.6919 267.73 59.7713C267.81 59.8408 267.869 59.9252 267.909 60.0245L271.498 69.6311C271.508 69.6807 271.513 69.7254 271.513 69.7651C271.513 69.8545 271.483 69.9289 271.424 69.9885C271.364 70.0481 271.295 70.0779 271.215 70.0779H269.92C269.781 70.0779 269.676 70.0481 269.607 69.9885C269.547 69.919 269.508 69.8545 269.488 69.7949L268.788 67.9779H264.364L263.664 69.7949C263.644 69.8545 263.6 69.919 263.53 69.9885C263.471 70.0481 263.371 70.0779 263.232 70.0779H261.937ZM264.886 66.2651H268.266L266.569 61.6629L264.886 66.2651Z" fill="black"/>
<path d="M274.453 70.0779C274.353 70.0779 274.269 70.0431 274.199 69.9736C274.13 69.9041 274.095 69.8197 274.095 69.7204V60.0245C274.095 59.9153 274.13 59.8259 274.199 59.7564C274.269 59.6869 274.353 59.6522 274.453 59.6522H275.599C275.739 59.6522 275.838 59.6869 275.897 59.7564C275.967 59.816 276.012 59.8607 276.031 59.8905L280.321 66.5629V60.0245C280.321 59.9153 280.351 59.8259 280.41 59.7564C280.48 59.6869 280.569 59.6522 280.678 59.6522H281.929C282.039 59.6522 282.128 59.6869 282.197 59.7564C282.267 59.8259 282.302 59.9153 282.302 60.0245V69.7055C282.302 69.8148 282.267 69.9041 282.197 69.9736C282.128 70.0431 282.044 70.0779 281.944 70.0779H280.783C280.644 70.0779 280.544 70.0431 280.485 69.9736C280.425 69.9041 280.38 69.8594 280.351 69.8396L276.076 63.3161V69.7204C276.076 69.8197 276.041 69.9041 275.972 69.9736C275.902 70.0431 275.813 70.0779 275.704 70.0779H274.453Z" fill="black"/>
<path d="M286.175 70.0779C286.075 70.0779 285.991 70.0431 285.921 69.9736C285.852 69.9041 285.817 69.8197 285.817 69.7204V60.0096C285.817 59.9103 285.852 59.8259 285.921 59.7564C285.991 59.6869 286.075 59.6522 286.175 59.6522H287.575C287.684 59.6522 287.768 59.6869 287.828 59.7564C287.897 59.8259 287.932 59.9103 287.932 60.0096V69.7204C287.932 69.8197 287.897 69.9041 287.828 69.9736C287.768 70.0431 287.684 70.0779 287.575 70.0779H286.175Z" fill="black"/>
<path d="M290.819 70.0779C290.739 70.0779 290.665 70.0481 290.595 69.9885C290.536 69.9289 290.506 69.8545 290.506 69.7651C290.506 69.7254 290.516 69.6807 290.536 69.6311L294.125 60.0245C294.155 59.9252 294.21 59.8408 294.289 59.7713C294.378 59.6919 294.498 59.6522 294.647 59.6522H296.27C296.419 59.6522 296.533 59.6919 296.613 59.7713C296.692 59.8408 296.752 59.9252 296.791 60.0245L300.381 69.6311C300.391 69.6807 300.396 69.7254 300.396 69.7651C300.396 69.8545 300.366 69.9289 300.306 69.9885C300.247 70.0481 300.177 70.0779 300.098 70.0779H298.802C298.663 70.0779 298.559 70.0481 298.489 69.9885C298.43 69.919 298.39 69.8545 298.37 69.7949L297.67 67.9779H293.247L292.547 69.7949C292.527 69.8545 292.482 69.919 292.412 69.9885C292.353 70.0481 292.254 70.0779 292.115 70.0779H290.819ZM293.768 66.2651H297.149L295.451 61.6629L293.768 66.2651Z" fill="black"/>
<path fill-rule="evenodd" clip-rule="evenodd" d="M124.791 30.5561C132.984 31.2454 140.165 25.3906 140.831 17.479C141.496 9.56746 135.394 2.5951 127.202 1.90582C123.686 1.61004 120.357 2.51928 117.649 4.27896C122.093 12.4023 122.93 18.4102 111.894 11.5442C111.513 12.6329 111.263 13.7843 111.162 14.9829C110.792 19.3883 112.519 23.5025 115.538 26.4029C117.94 28.7112 121.16 30.2507 124.791 30.5561Z" fill="#DF4030"/>
<path d="M124.791 30.5561C121.16 30.2507 117.94 28.7112 115.538 26.4029C116.272 31.9208 114.113 31.2919 108.262 30.623L108.229 39.29C116.227 37.9303 120.062 36.2957 124.791 30.5561Z" fill="#DF4030"/>
<path d="M124.791 30.5561C132.984 31.2454 140.165 25.3906 140.831 17.479C141.496 9.56746 135.394 2.5951 127.202 1.90582C123.686 1.61004 120.357 2.51928 117.649 4.27896C122.093 12.4023 122.93 18.4102 111.894 11.5442C111.513 12.6329 111.263 13.7843 111.162 14.9829C110.792 19.3883 112.519 23.5025 115.538 26.4029M124.791 30.5561C121.16 30.2507 117.94 28.7112 115.538 26.4029M124.791 30.5561C120.062 36.2957 116.227 37.9303 108.229 39.29L108.262 30.623C114.113 31.2919 116.272 31.9208 115.538 26.4029" stroke="black"/>
<path fill-rule="evenodd" clip-rule="evenodd" d="M17.6404 32.7251C9.44761 33.4144 2.26647 27.5596 1.60085 19.648C0.935238 11.7364 7.0372 4.76404 15.23 4.07476C18.7456 3.77898 22.0749 4.68822 24.7831 6.4479C20.3384 14.5713 19.5011 20.5792 30.5374 13.7132C30.9182 14.8018 31.1686 15.9532 31.2695 17.1519C31.6401 21.5573 29.9124 25.6715 26.8938 28.5718C24.4913 30.8802 21.2712 32.4196 17.6404 32.7251Z" fill="#DF4030"/>
<path d="M17.6404 32.7251C21.2712 32.4196 24.4913 30.8802 26.8938 28.5718C26.1593 34.0897 28.3184 33.4609 34.1699 32.792L34.203 41.459C26.2049 40.0992 22.3696 38.4647 17.6404 32.7251Z" fill="#DF4030"/>
<path d="M17.6404 32.7251C9.44761 33.4144 2.26647 27.5596 1.60085 19.648C0.935238 11.7364 7.0372 4.76404 15.23 4.07476C18.7456 3.77898 22.0749 4.68822 24.7831 6.4479C20.3384 14.5713 19.5011 20.5792 30.5374 13.7132C30.9182 14.8018 31.1686 15.9532 31.2695 17.1519C31.6401 21.5573 29.9124 25.6715 26.8938 28.5718M17.6404 32.7251C21.2712 32.4196 24.4913 30.8802 26.8938 28.5718M17.6404 32.7251C22.3696 38.4647 26.2049 40.0992 34.203 41.459L34.1699 32.792C28.3184 33.4609 26.1593 34.0897 26.8938 28.5718" stroke="black"/>
<path d="M35.5892 61.2665L42.0834 53.2077L39.7988 50.9824L33.0629 57.1168C31.2648 58.7283 31.0948 59.6732 33.0629 61.2665C34.1339 61.4944 34.6723 61.5247 35.5892 61.2665Z" fill="#DF4030"/>
<path d="M35.5892 61.2665C34.6723 61.5247 34.1339 61.4944 33.0629 61.2665L31.7241 66.0646L35.0858 69.3957L35.5892 61.2665Z" fill="#DF4030"/>
<path d="M35.0858 69.3957C33.5641 70.3286 32.7592 70.5367 30.8607 70.5044C34.7629 77.3703 37.9636 79.325 44.8941 79.8935C45.9775 78.5431 39.8657 74.0226 35.0858 69.3957Z" fill="#DF4030"/>
<path d="M35.0858 69.3957L31.7241 66.0646L30.3405 68.7711C30.2234 69.4958 30.356 69.8726 30.8607 70.5044C32.7592 70.5367 33.5641 70.3286 35.0858 69.3957Z" fill="#DF4030"/>
<path d="M35.5892 61.2665L42.0834 53.2077L39.7988 50.9824L33.0629 57.1168C31.2648 58.7283 31.0948 59.6732 33.0629 61.2665M35.5892 61.2665C34.6723 61.5247 34.1339 61.4944 33.0629 61.2665M35.5892 61.2665L35.0858 69.3957M33.0629 61.2665L31.7241 66.0646M31.7241 66.0646L35.0858 69.3957M31.7241 66.0646L30.3405 68.7711C30.2234 69.4958 30.356 69.8726 30.8607 70.5044M35.0858 69.3957C33.5641 70.3286 32.7592 70.5367 30.8607 70.5044M35.0858 69.3957C39.8657 74.0226 45.9775 78.5431 44.8941 79.8935C37.9636 79.325 34.7629 77.3703 30.8607 70.5044" stroke="black"/>
<path d="M39.2028 50.3495L28.4704 56.8876L24.5538 65.9688C28.1132 73.2199 33.2382 80.8969 31.4454 81.9945C23.7605 78.4963 20.9071 74.9474 19.2708 65.4988C18.9539 64.5695 18.9572 64.0845 19.3889 63.3046L22.0822 60.781L25.584 55.8492C23.9903 53.2198 24.5729 52.2102 27.2897 51.1081L37.5072 46.8679L39.2028 50.3495Z" fill="#DF4030"/>
<path d="M28.4704 56.8876L39.2028 50.3495L37.5072 46.8679L27.2897 51.1081C24.5729 52.2102 23.9903 53.2198 25.584 55.8492M28.4704 56.8876C27.3167 56.8058 26.7139 56.5499 25.584 55.8492M28.4704 56.8876L24.5538 65.9688M25.584 55.8492L22.0822 60.781M22.0822 60.781L24.5538 65.9688M22.0822 60.781L19.3889 63.3046C18.9572 64.0845 18.9539 64.5695 19.2708 65.4988M24.5538 65.9688C22.4318 66.4091 21.4266 66.3161 19.2708 65.4988M24.5538 65.9688C28.1132 73.2199 33.2382 80.8969 31.4454 81.9945C23.7605 78.4963 20.9071 74.9474 19.2708 65.4988" stroke="black"/>
<path d="M38.198 46.6484L24.308 48.0966L16.0482 55.3461C16.1653 64.3217 17.6511 74.471 15.3282 74.7183C9.28103 67.5438 8.10801 62.6212 10.9687 52.3563C11.0935 51.2723 11.328 50.7871 12.133 50.2099L16.0395 48.9603L21.9054 45.6785C21.5587 42.2793 22.6248 41.5434 25.8773 41.7319L38.1552 42.3452L38.198 46.6484Z" fill="#DF4030"/>
<path d="M24.308 48.0966L38.198 46.6484L38.1552 42.3452L25.8773 41.7319C22.6248 41.5434 21.5587 42.2793 21.9054 45.6785M24.308 48.0966C23.1888 47.4646 22.7057 46.9203 21.9054 45.6785M24.308 48.0966L16.0482 55.3461M21.9054 45.6785L16.0395 48.9603M16.0395 48.9603L16.0482 55.3461M16.0395 48.9603L12.133 50.2099C11.328 50.7871 11.0935 51.2723 10.9687 52.3563M16.0482 55.3461C13.7081 54.7768 12.7434 54.2042 10.9687 52.3563M16.0482 55.3461C16.1653 64.3217 17.6511 74.471 15.3282 74.7183C9.28103 67.5438 8.10801 62.6212 10.9687 52.3563" stroke="black"/>
<path d="M105.592 62.0516L99.0982 53.9928L101.383 51.7676L108.119 57.902C109.917 59.5135 110.087 60.4583 108.119 62.0516C107.048 62.2796 106.509 62.3099 105.592 62.0516Z" fill="#DF4030"/>
<path d="M105.592 62.0516C106.509 62.3099 107.048 62.2796 108.119 62.0516L109.457 66.8498L106.096 70.1809L105.592 62.0516Z" fill="#DF4030"/>
<path d="M106.096 70.1809L109.457 66.8498L110.841 69.5562C110.958 70.281 110.826 70.6577 110.321 71.2896C108.422 71.3219 107.617 71.1137 106.096 70.1809Z" fill="#DF4030"/>
<path d="M106.096 70.1809C107.617 71.1137 108.422 71.3219 110.321 71.2896C106.419 78.1555 103.218 80.1102 96.2875 80.6786C95.2042 79.3282 101.316 74.8078 106.096 70.1809Z" fill="#DF4030"/>
<path d="M105.592 62.0516L99.0982 53.9928L101.383 51.7676L108.119 57.902C109.917 59.5135 110.087 60.4583 108.119 62.0516M105.592 62.0516C106.509 62.3099 107.048 62.2796 108.119 62.0516M105.592 62.0516L106.096 70.1809M108.119 62.0516L109.457 66.8498M109.457 66.8498L106.096 70.1809M109.457 66.8498L110.841 69.5562C110.958 70.281 110.826 70.6577 110.321 71.2896M106.096 70.1809C107.617 71.1137 108.422 71.3219 110.321 71.2896M106.096 70.1809C101.316 74.8078 95.2042 79.3282 96.2875 80.6786C103.218 80.1102 106.419 78.1555 110.321 71.2896" stroke="black"/>
<path d="M112.71 57.6728L101.978 51.1346L103.673 47.6531L113.891 51.8932C116.608 52.9953 117.19 54.005 115.597 56.6344C114.467 57.335 113.864 57.591 112.71 57.6728Z" fill="#DF4030"/>
<path d="M112.71 57.6728C113.864 57.591 114.467 57.335 115.597 56.6344L119.098 61.5662L116.627 66.7539L112.71 57.6728Z" fill="#DF4030"/>
<path d="M116.627 66.7539L119.098 61.5662L121.792 64.0897C122.223 64.8697 122.227 65.3546 121.91 66.2839C119.754 67.1012 118.749 67.1943 116.627 66.7539Z" fill="#DF4030"/>
<path d="M116.627 66.7539C118.749 67.1943 119.754 67.1012 121.91 66.2839C120.274 75.7325 117.42 79.2814 109.735 82.7797C107.942 81.6821 113.067 74.0051 116.627 66.7539Z" fill="#DF4030"/>
<path d="M112.71 57.6728L101.978 51.1346L103.673 47.6531L113.891 51.8932C116.608 52.9953 117.19 54.005 115.597 56.6344M112.71 57.6728C113.864 57.591 114.467 57.335 115.597 56.6344M112.71 57.6728L116.627 66.7539M115.597 56.6344L119.098 61.5662M119.098 61.5662L116.627 66.7539M119.098 61.5662L121.792 64.0897C122.223 64.8697 122.227 65.3546 121.91 66.2839M116.627 66.7539C118.749 67.1943 119.754 67.1012 121.91 66.2839M116.627 66.7539C113.067 74.0051 107.942 81.6821 109.735 82.7797C117.42 79.2814 120.274 75.7325 121.91 66.2839" stroke="black"/>
<path d="M117.551 48.0966L103.661 46.6484L103.704 42.3452L115.982 41.7319C119.235 41.5434 120.301 42.2793 119.954 45.6785C119.154 46.9203 118.671 47.4646 117.551 48.0966Z" fill="#DF4030"/>
<path d="M117.551 48.0966C118.671 47.4646 119.154 46.9203 119.954 45.6785L125.82 48.9603L125.811 55.3461L117.551 48.0966Z" fill="#DF4030"/>
<path d="M125.811 55.3461L125.82 48.9603L129.726 50.2099C130.531 50.7871 130.766 51.2723 130.891 52.3563C129.116 54.2042 128.151 54.7768 125.811 55.3461Z" fill="#DF4030"/>
<path d="M125.811 55.3461C128.151 54.7768 129.116 54.2042 130.891 52.3563C133.751 62.6212 132.578 67.5438 126.531 74.7183C124.208 74.471 125.694 64.3217 125.811 55.3461Z" fill="#DF4030"/>
<path d="M117.551 48.0966L103.661 46.6484L103.704 42.3452L115.982 41.7319C119.235 41.5434 120.301 42.2793 119.954 45.6785M117.551 48.0966C118.671 47.4646 119.154 46.9203 119.954 45.6785M117.551 48.0966L125.811 55.3461M119.954 45.6785L125.82 48.9603M125.82 48.9603L125.811 55.3461M125.82 48.9603L129.726 50.2099C130.531 50.7871 130.766 51.2723 130.891 52.3563M125.811 55.3461C128.151 54.7768 129.116 54.2042 130.891 52.3563M125.811 55.3461C125.694 64.3217 124.208 74.471 126.531 74.7183C132.578 67.5438 133.751 62.6212 130.891 52.3563" stroke="black"/>
<path d="M70.4423 62.5052C47.6935 60.5292 36.7974 56.6336 31.5879 33.0034C40.9726 29.4257 45.2217 25.9158 54.8551 20.2814C64.4885 14.647 76.6741 15.1477 86.2269 20.2814C95.7797 25.4151 100.62 27.8786 110.9 31.0178C104.265 54.9762 95.2506 61.71 70.4423 62.5052Z" fill="#DF4030" stroke="black"/>
<path d="M86.4766 3.19824C92.0479 3.19824 96.5644 7.71473 96.5645 13.2861C96.5645 18.8576 92.048 23.374 86.4766 23.374C80.9052 23.374 76.3887 18.8576 76.3887 13.2861C76.3887 7.71475 80.9052 3.19828 86.4766 3.19824Z" fill="#DF4030" stroke="black"/>
<path d="M95.1491 14.6815C95.1491 19.7583 91.0336 23.8738 85.9569 23.8738C80.8802 23.8738 76.7646 19.7583 76.7646 14.6815C76.7646 9.60478 80.8802 5.48926 85.9569 5.48926C91.0336 5.48926 95.1491 9.60478 95.1491 14.6815Z" fill="white"/>
<path d="M85.9551 8.58301C82.5863 8.5832 79.8555 11.3138 79.8555 14.6826C79.8555 18.0515 82.5863 20.783 85.9551 20.7832C89.324 20.7832 92.0557 18.0516 92.0557 14.6826C92.0557 13.9327 91.9204 13.2144 91.6729 12.5508C91.2143 13.3028 90.3886 13.8066 89.4434 13.8066C88.001 13.8065 86.832 12.6367 86.832 11.1943C86.8321 10.2497 87.3347 9.42447 88.0859 8.96582C87.4226 8.71852 86.7046 8.58301 85.9551 8.58301Z" fill="black"/>
<path d="M50.3916 4.59473C44.8202 4.59473 40.3038 9.11122 40.3037 14.6826C40.3037 20.2541 44.8202 24.7705 50.3916 24.7705C55.963 24.7705 60.4795 20.2541 60.4795 14.6826C60.4794 9.11124 55.963 4.59476 50.3916 4.59473Z" fill="#DF4030" stroke="black"/>
<path d="M41.7181 16.077C41.7181 21.1538 45.8336 25.2693 50.9103 25.2693C55.987 25.2693 60.1025 21.1538 60.1025 16.077C60.1025 11.0003 55.987 6.88477 50.9103 6.88477C45.8336 6.88477 41.7181 11.0003 41.7181 16.077Z" fill="white"/>
<path d="M50.9131 9.97754C54.2818 9.97776 57.0126 12.7083 57.0127 16.0771C57.0127 19.446 54.2819 22.1775 50.9131 22.1777C47.5441 22.1777 44.8125 19.4461 44.8125 16.0771C44.8125 15.3273 44.9478 14.6089 45.1953 13.9453C45.6538 14.6973 46.4796 15.2012 47.4248 15.2012C48.8671 15.201 50.0361 14.0313 50.0361 12.5889C50.0361 11.6443 49.5335 10.819 48.7822 10.3604C49.4455 10.1131 50.1636 9.97754 50.9131 9.97754Z" fill="black"/>
<g filter="url(#filter0_d_2036_343)">
<path d="M57.0254 33.1113C57.4253 33.3767 57.8101 33.6276 58.2061 33.8781C61.7646 36.0941 65.6315 38.1531 69.9954 38.5311C74.417 38.9671 78.5624 36.7345 81.7151 34.0363C82.0814 33.7305 82.4232 33.4312 82.7792 33.1113C82.3822 33.3787 82.0028 33.627 81.6028 33.8831C78.1027 36.1563 74.1578 37.938 70.0722 37.5341C66.0036 37.191 62.1077 35.4564 58.2972 33.7114C57.8734 33.5141 57.4582 33.3188 57.0254 33.1113Z" fill="black"/>
</g>
<ellipse cx="0.775718" cy="0.775721" rx="0.775718" ry="0.775721" transform="matrix(-0.964481 0.264151 0.264148 0.964482 60.4189 56.8389)" fill="black" fill-opacity="0.62"/>
<ellipse cx="1.43553" cy="1.43554" rx="1.43553" ry="1.43554" transform="matrix(-0.964481 0.264151 0.264148 0.964482 55.1338 54.0117)" fill="black" fill-opacity="0.62"/>
<ellipse cx="0.960406" cy="0.96041" rx="0.960406" ry="0.96041" transform="matrix(-0.964481 0.264151 0.264148 0.964482 52.2832 49.0371)" fill="black" fill-opacity="0.62"/>
<ellipse cx="1.60287" cy="1.60288" rx="1.60287" ry="1.60288" transform="matrix(-0.964481 0.264151 0.264148 0.964482 47.3174 51.998)" fill="black" fill-opacity="0.62"/>
<ellipse cx="0.870562" cy="0.870566" rx="0.870562" ry="0.870566" transform="matrix(-0.964481 0.264151 0.264148 0.964482 44.7998 47.0879)" fill="black" fill-opacity="0.62"/>
<ellipse cx="87.2142" cy="56.5833" rx="0.775718" ry="0.775722" fill="black" fill-opacity="0.62"/>
<ellipse cx="92.2236" cy="53.1201" rx="1.43553" ry="1.43554" fill="black" fill-opacity="0.62"/>
<ellipse cx="93.185" cy="47.0932" rx="0.960405" ry="0.96041" fill="black" fill-opacity="0.62"/>
<ellipse cx="99.3978" cy="49.2796" rx="1.60287" ry="1.60288" fill="black" fill-opacity="0.62"/>
<ellipse cx="99.7983" cy="43.1469" rx="0.870561" ry="0.870566" fill="black" fill-opacity="0.62"/>
<ellipse cx="50.7551" cy="35.6042" rx="4.34402" ry="3.87861" fill="#FFB5B5"/>
<ellipse cx="89.801" cy="35.6042" rx="4.34402" ry="3.87861" fill="#FFB5B5"/>
<defs>
<filter id="filter0_d_2036_343" x="53.0254" y="33.1113" width="33.7539" height="13.4746" filterUnits="userSpaceOnUse" color-interpolation-filters="sRGB">
<feFlood flood-opacity="0" result="BackgroundImageFix"/>
<feColorMatrix in="SourceAlpha" type="matrix" values="0 0 0 0 0 0 0 0 0 0 0 0 0 0 0 0 0 0 127 0" result="hardAlpha"/>
<feOffset dy="4"/>
<feGaussianBlur stdDeviation="2"/>
<feComposite in2="hardAlpha" operator="out"/>
<feColorMatrix type="matrix" values="0 0 0 0 0 0 0 0 0 0 0 0 0 0 0 0 0 0 0.25 0"/>
<feBlend mode="normal" in2="BackgroundImageFix" result="effect1_dropShadow_2036_343"/>
<feBlend mode="normal" in="SourceGraphic" in2="effect1_dropShadow_2036_343" result="shape"/>
</filter>
</defs>
</svg>
