<svg width="301" height="249" viewBox="0 0 301 249" fill="none" xmlns="http://www.w3.org/2000/svg">
<path d="M29.5555 217.945C27.3768 217.945 25.4622 217.499 23.8117 216.608C22.1612 215.717 20.7913 214.33 19.702 212.449C18.6456 210.6 17.8534 208.207 17.3252 205.269C16.7971 202.331 16.533 198.832 16.533 194.772C16.533 190.679 16.7971 187.18 17.3252 184.275C17.8534 181.337 18.6456 178.944 19.702 177.095C20.7913 175.214 22.1612 173.844 23.8117 172.985C25.4622 172.094 27.3768 171.648 29.5555 171.648C29.8856 171.648 30.1661 171.764 30.3972 171.995C30.6283 172.226 30.7438 172.507 30.7438 172.837V175.808C30.7438 176.138 30.6283 176.418 30.3972 176.649C30.1992 176.881 29.9516 176.996 29.6545 176.996C28.3011 177.062 27.1622 177.458 26.2379 178.184C25.3137 178.878 24.5709 179.95 24.0098 181.403C23.4816 182.822 23.102 184.638 22.8709 186.85C22.6399 189.061 22.5243 191.702 22.5243 194.772C22.5243 197.842 22.6399 200.483 22.8709 202.694C23.102 204.906 23.4816 206.738 24.0098 208.191C24.5709 209.643 25.3137 210.716 26.2379 211.409C27.1622 212.135 28.3011 212.531 29.6545 212.597C29.9516 212.597 30.1992 212.713 30.3972 212.944C30.6283 213.175 30.7438 213.456 30.7438 213.786V216.757C30.7438 217.087 30.6283 217.367 30.3972 217.598C30.1661 217.83 29.8856 217.945 29.5555 217.945Z" fill="black"/>
<path d="M52.2991 210.567C48.9981 210.567 46.2583 210.105 44.0796 209.181C41.901 208.224 40.2505 206.986 39.1281 205.467C38.0058 203.949 37.4116 202.331 37.3456 200.615C37.3456 200.351 37.4446 200.12 37.6427 199.922C37.8737 199.69 38.1378 199.575 38.4349 199.575H44.6738C45.1359 199.575 45.4825 199.657 45.7136 199.823C45.9777 199.988 46.2088 200.202 46.4068 200.466C46.6709 200.961 47.034 201.44 47.4962 201.902C47.9913 202.364 48.6185 202.744 49.3777 203.041C50.17 203.305 51.1438 203.437 52.2991 203.437C54.2137 203.437 55.6496 203.14 56.6069 202.546C57.5972 201.952 58.0924 201.143 58.0924 200.12C58.0924 199.393 57.8283 198.799 57.3001 198.337C56.772 197.842 55.9137 197.413 54.7254 197.05C53.57 196.654 52.0185 196.257 50.0709 195.861C47.5622 195.333 45.4165 194.656 43.634 193.831C41.8845 192.973 40.5475 191.867 39.6233 190.514C38.699 189.127 38.2368 187.411 38.2368 185.364C38.2368 183.351 38.798 181.551 39.9204 179.967C41.0757 178.382 42.6767 177.145 44.7233 176.253C46.7699 175.362 49.1962 174.916 52.002 174.916C54.2797 174.916 56.2768 175.214 57.9934 175.808C59.7429 176.402 61.2118 177.194 62.4002 178.184C63.5886 179.175 64.4798 180.231 65.074 181.353C65.7012 182.443 66.0313 183.516 66.0643 184.572C66.0643 184.836 65.9653 185.084 65.7672 185.315C65.5692 185.513 65.3216 185.612 65.0245 185.612H58.4885C58.1254 185.612 57.8118 185.546 57.5477 185.414C57.2836 185.282 57.0526 185.067 56.8545 184.77C56.6564 184.044 56.1283 183.417 55.27 182.888C54.4448 182.327 53.3554 182.047 52.002 182.047C50.5496 182.047 49.4107 182.311 48.5855 182.839C47.7933 183.334 47.3971 184.11 47.3971 185.166C47.3971 185.826 47.6117 186.404 48.0408 186.899C48.503 187.394 49.2457 187.823 50.269 188.186C51.3253 188.55 52.7613 188.929 54.5768 189.325C57.5807 189.886 60.007 190.596 61.8555 191.454C63.7041 192.28 65.0575 193.369 65.9158 194.722C66.774 196.043 67.2032 197.71 67.2032 199.723C67.2032 201.968 66.5595 203.916 65.2721 205.566C64.0177 207.184 62.2682 208.422 60.0235 209.28C57.7788 210.138 55.204 210.567 52.2991 210.567Z" fill="black"/>
<path d="M75.7747 210.072C75.4116 210.072 75.1145 209.957 74.8834 209.726C74.6523 209.461 74.5368 209.164 74.5368 208.834V203.982C74.5368 203.52 74.6193 203.14 74.7844 202.843C74.9824 202.546 75.1475 202.331 75.2795 202.199L91.2234 182.789H76.2203C75.8902 182.789 75.5931 182.674 75.329 182.443C75.098 182.212 74.9824 181.915 74.9824 181.551V176.649C74.9824 176.286 75.098 175.989 75.329 175.758C75.5931 175.527 75.8902 175.412 76.2203 175.412H101.176C101.539 175.412 101.836 175.527 102.067 175.758C102.331 175.989 102.463 176.286 102.463 176.649V181.452C102.463 181.816 102.397 182.129 102.265 182.393C102.166 182.657 102.018 182.905 101.82 183.136L86.3214 202.595H101.77C102.133 202.595 102.43 202.727 102.661 202.991C102.925 203.223 103.057 203.52 103.057 203.883V208.834C103.057 209.197 102.925 209.494 102.661 209.726C102.43 209.957 102.133 210.072 101.77 210.072H75.7747Z" fill="black"/>
<path d="M111.197 217.945C110.867 217.945 110.587 217.83 110.356 217.598C110.124 217.367 110.009 217.087 110.009 216.757V213.786C110.009 213.456 110.108 213.175 110.306 212.944C110.537 212.713 110.801 212.597 111.098 212.597C112.485 212.531 113.624 212.135 114.515 211.409C115.439 210.716 116.165 209.643 116.693 208.191C117.255 206.738 117.651 204.906 117.882 202.694C118.146 200.483 118.278 197.842 118.278 194.772C118.278 191.702 118.146 189.061 117.882 186.85C117.651 184.638 117.255 182.822 116.693 181.403C116.165 179.95 115.439 178.878 114.515 178.184C113.624 177.458 112.485 177.062 111.098 176.996C110.801 176.996 110.537 176.881 110.306 176.649C110.108 176.418 110.009 176.138 110.009 175.808V172.837C110.009 172.507 110.124 172.226 110.356 171.995C110.587 171.764 110.867 171.648 111.197 171.648C113.376 171.648 115.291 172.094 116.941 172.985C118.592 173.844 119.945 175.214 121.001 177.095C122.091 178.944 122.899 181.337 123.428 184.275C123.956 187.18 124.22 190.679 124.22 194.772C124.22 198.832 123.956 202.331 123.428 205.269C122.899 208.207 122.091 210.6 121.001 212.449C119.945 214.33 118.592 215.717 116.941 216.608C115.291 217.499 113.376 217.945 111.197 217.945Z" fill="black"/>
<path d="M135.377 210.072C135.014 210.072 134.717 209.957 134.486 209.726C134.255 209.494 134.139 209.197 134.139 208.834V176.649C134.139 176.286 134.255 175.989 134.486 175.758C134.717 175.527 135.014 175.412 135.377 175.412H141.616C141.979 175.412 142.276 175.527 142.507 175.758C142.738 175.989 142.854 176.286 142.854 176.649V187.642L152.014 176.352C152.146 176.154 152.361 175.956 152.658 175.758C152.988 175.527 153.417 175.412 153.945 175.412H161.075C161.372 175.412 161.62 175.527 161.818 175.758C162.016 175.956 162.115 176.187 162.115 176.451C162.115 176.682 162.049 176.881 161.917 177.046L150.083 191.999L162.858 208.438C162.99 208.57 163.056 208.768 163.056 209.032C163.056 209.296 162.94 209.544 162.709 209.775C162.511 209.973 162.28 210.072 162.016 210.072H154.638C154.044 210.072 153.582 209.94 153.252 209.676C152.955 209.412 152.757 209.214 152.658 209.082L142.854 196.852V208.834C142.854 209.197 142.738 209.494 142.507 209.726C142.276 209.957 141.979 210.072 141.616 210.072H135.377Z" fill="black"/>
<path d="M172.122 210.072C171.759 210.072 171.462 209.957 171.231 209.726C171 209.494 170.885 209.197 170.885 208.834V176.649C170.885 176.286 171 175.989 171.231 175.758C171.462 175.527 171.759 175.412 172.122 175.412H185.591C189.849 175.412 193.199 176.402 195.642 178.382C198.118 180.33 199.356 183.103 199.356 186.701C199.356 189.045 198.778 191.025 197.623 192.643C196.5 194.26 195.015 195.482 193.166 196.307L199.999 208.488C200.098 208.686 200.148 208.867 200.148 209.032C200.148 209.296 200.032 209.544 199.801 209.775C199.603 209.973 199.356 210.072 199.059 210.072H192.523C191.895 210.072 191.433 209.924 191.136 209.627C190.839 209.296 190.625 208.999 190.493 208.735L184.848 197.842H179.748V208.834C179.748 209.197 179.632 209.494 179.401 209.726C179.17 209.957 178.873 210.072 178.51 210.072H172.122ZM179.748 190.86H185.492C187.043 190.86 188.198 190.481 188.958 189.721C189.75 188.962 190.146 187.922 190.146 186.602C190.146 185.315 189.766 184.275 189.007 183.483C188.281 182.69 187.109 182.294 185.492 182.294H179.748V190.86Z" fill="black"/>
<path d="M207.1 210.072C206.836 210.072 206.589 209.973 206.357 209.775C206.159 209.544 206.06 209.296 206.06 209.032C206.06 208.867 206.077 208.719 206.11 208.587L217.746 176.798C217.845 176.435 218.043 176.121 218.34 175.857C218.67 175.56 219.116 175.412 219.677 175.412H227.005C227.566 175.412 227.996 175.56 228.293 175.857C228.623 176.121 228.837 176.435 228.936 176.798L240.523 208.587C240.589 208.719 240.622 208.867 240.622 209.032C240.622 209.296 240.506 209.544 240.275 209.775C240.077 209.973 239.83 210.072 239.533 210.072H233.442C232.947 210.072 232.567 209.957 232.303 209.726C232.072 209.461 231.924 209.23 231.858 209.032L229.927 203.982H216.706L214.825 209.032C214.759 209.23 214.61 209.461 214.379 209.726C214.148 209.957 213.752 210.072 213.191 210.072H207.1ZM218.736 196.852H227.946L223.292 183.78L218.736 196.852Z" fill="black"/>
<path d="M249.724 210.072C249.361 210.072 249.064 209.957 248.833 209.726C248.601 209.494 248.486 209.197 248.486 208.834V176.649C248.486 176.286 248.601 175.989 248.833 175.758C249.064 175.527 249.361 175.412 249.724 175.412H264.826C267.665 175.412 269.992 175.808 271.807 176.6C273.623 177.392 274.96 178.531 275.818 180.016C276.71 181.469 277.155 183.202 277.155 185.216C277.155 186.404 276.924 187.46 276.462 188.385C276.033 189.276 275.488 190.019 274.828 190.613C274.201 191.207 273.607 191.636 273.045 191.9C274.3 192.494 275.406 193.468 276.363 194.822C277.353 196.175 277.848 197.759 277.848 199.575C277.848 201.754 277.353 203.635 276.363 205.22C275.406 206.771 273.986 207.976 272.105 208.834C270.256 209.66 267.978 210.072 265.272 210.072H249.724ZM257.349 203.635H264.281C265.701 203.635 266.773 203.223 267.5 202.397C268.226 201.572 268.589 200.631 268.589 199.575C268.589 198.42 268.209 197.446 267.45 196.654C266.724 195.861 265.668 195.465 264.281 195.465H257.349V203.635ZM257.349 189.177H263.836C265.189 189.177 266.196 188.83 266.856 188.137C267.549 187.444 267.896 186.552 267.896 185.463C267.896 184.407 267.549 183.549 266.856 182.888C266.196 182.195 265.189 181.849 263.836 181.849H257.349V189.177Z" fill="black"/>
<path d="M8.83865 248.041C6.99669 248.041 5.45182 247.774 4.20405 247.239C2.97607 246.684 2.03529 245.971 1.38169 245.1C0.747898 244.209 0.411194 243.278 0.371582 242.307C0.371582 242.129 0.431 241.981 0.549836 241.862C0.668672 241.743 0.817217 241.683 0.995471 241.683H3.63957C3.89705 241.683 4.08521 241.743 4.20405 241.862C4.34269 241.961 4.46152 242.089 4.56055 242.248C4.67939 242.624 4.90716 243.001 5.24386 243.377C5.58056 243.733 6.0361 244.03 6.61048 244.268C7.20466 244.506 7.94738 244.625 8.83865 244.625C10.2647 244.625 11.3243 244.387 12.0175 243.912C12.7305 243.436 13.087 242.793 13.087 241.981C13.087 241.406 12.8989 240.951 12.5226 240.614C12.1463 240.257 11.562 239.941 10.7697 239.663C9.9973 239.366 8.96739 239.059 7.68 238.742C6.19455 238.386 4.94677 237.96 3.93666 237.465C2.94636 236.95 2.19373 236.306 1.67878 235.534C1.18363 234.761 0.936054 233.781 0.936054 232.593C0.936054 231.444 1.24305 230.424 1.85703 229.532C2.49083 228.641 3.38209 227.938 4.53084 227.423C5.6994 226.908 7.08582 226.651 8.69011 226.651C9.9775 226.651 11.1163 226.829 12.1066 227.185C13.0969 227.522 13.9189 227.978 14.5725 228.552C15.2261 229.107 15.7213 229.711 16.058 230.364C16.4145 230.998 16.6026 231.622 16.6224 232.236C16.6224 232.394 16.563 232.543 16.4442 232.682C16.3451 232.8 16.1966 232.86 15.9985 232.86H13.2356C13.0771 232.86 12.9187 232.82 12.7602 232.741C12.6018 232.662 12.4731 232.513 12.374 232.295C12.2552 231.681 11.869 231.157 11.2154 230.721C10.5618 230.285 9.72002 230.067 8.69011 230.067C7.62058 230.067 6.75902 230.265 6.10542 230.661C5.45182 231.058 5.12502 231.672 5.12502 232.503C5.12502 233.058 5.28347 233.523 5.60037 233.9C5.93707 234.256 6.46193 234.573 7.17495 234.85C7.90777 235.128 8.86836 235.425 10.0567 235.742C11.7402 236.118 13.1168 236.554 14.1863 237.049C15.2558 237.544 16.0381 238.178 16.5333 238.95C17.0284 239.703 17.276 240.663 17.276 241.832C17.276 243.139 16.9195 244.258 16.2065 245.189C15.5133 246.1 14.5329 246.803 13.2653 247.298C11.9977 247.794 10.5222 248.041 8.83865 248.041Z" fill="black"/>
<path d="M22.6118 247.744C22.4137 247.744 22.2454 247.675 22.1068 247.536C21.9681 247.397 21.8988 247.219 21.8988 247.001V244.922C21.8988 244.625 21.9582 244.387 22.077 244.209C22.1959 244.03 22.285 243.902 22.3444 243.822L32.6832 230.453H22.9089C22.691 230.453 22.5128 230.384 22.3741 230.246C22.2553 230.107 22.1959 229.939 22.1959 229.74V227.691C22.1959 227.473 22.2553 227.294 22.3741 227.156C22.5128 227.017 22.691 226.948 22.9089 226.948H37.1098C37.3277 226.948 37.5059 227.017 37.6446 227.156C37.7832 227.294 37.8526 227.473 37.8526 227.691V229.74C37.8526 229.978 37.8129 230.176 37.7337 230.335C37.6545 230.493 37.5654 230.642 37.4663 230.78L27.3356 244.209H37.4366C37.6545 244.209 37.8327 244.278 37.9714 244.417C38.11 244.555 38.1793 244.734 38.1793 244.951V247.031C38.1793 247.229 38.11 247.397 37.9714 247.536C37.8327 247.675 37.6545 247.744 37.4366 247.744H22.6118Z" fill="black"/>
<path d="M44.7153 247.744C44.5173 247.744 44.3489 247.675 44.2103 247.536C44.0716 247.397 44.0023 247.229 44.0023 247.031V227.691C44.0023 227.473 44.0716 227.294 44.2103 227.156C44.3489 227.017 44.5173 226.948 44.7153 226.948H47.3297C47.5476 226.948 47.7259 227.017 47.8645 227.156C48.0031 227.294 48.0725 227.473 48.0725 227.691V234.642L54.7867 227.483C54.8659 227.384 54.9947 227.275 55.1729 227.156C55.371 227.017 55.6285 226.948 55.9454 226.948H58.8866C59.045 226.948 59.1836 227.007 59.3025 227.126C59.4411 227.245 59.5104 227.393 59.5104 227.572C59.5104 227.71 59.4708 227.829 59.3916 227.928L51.2216 236.9L59.9561 246.734C60.0551 246.853 60.1046 246.982 60.1046 247.12C60.1046 247.298 60.0353 247.447 59.8967 247.566C59.7778 247.685 59.6392 247.744 59.4807 247.744H56.4207C56.084 247.744 55.8166 247.675 55.6186 247.536C55.4403 247.378 55.3215 247.269 55.262 247.209L48.0725 239.336V247.031C48.0725 247.229 48.0031 247.397 47.8645 247.536C47.7259 247.675 47.5476 247.744 47.3297 247.744H44.7153Z" fill="black"/>
<path d="M72.0686 248.041C70.3058 248.041 68.7907 247.754 67.5231 247.18C66.2555 246.585 65.2652 245.684 64.5522 244.476C63.8392 243.248 63.4529 241.723 63.3935 239.901C63.3737 239.049 63.3638 238.208 63.3638 237.376C63.3638 236.544 63.3737 235.692 63.3935 234.821C63.4529 233.018 63.8491 231.513 64.5819 230.305C65.3147 229.097 66.3149 228.186 67.5825 227.572C68.8699 226.958 70.3652 226.651 72.0686 226.651C73.7719 226.651 75.2672 226.958 76.5546 227.572C77.842 228.186 78.8521 229.097 79.5849 230.305C80.3178 231.513 80.7139 233.018 80.7733 234.821C80.8129 235.692 80.8327 236.544 80.8327 237.376C80.8327 238.208 80.8129 239.049 80.7733 239.901C80.7139 241.723 80.3277 243.248 79.6147 244.476C78.9016 245.684 77.9014 246.585 76.614 247.18C75.3465 247.754 73.8313 248.041 72.0686 248.041ZM72.0686 244.625C73.3559 244.625 74.4057 244.248 75.2177 243.496C76.0298 242.723 76.4655 241.476 76.5249 239.752C76.5645 238.881 76.5843 238.079 76.5843 237.346C76.5843 236.593 76.5645 235.791 76.5249 234.94C76.4853 233.791 76.2674 232.86 75.8713 232.147C75.495 231.414 74.98 230.889 74.3265 230.572C73.6729 230.236 72.9202 230.067 72.0686 230.067C71.2367 230.067 70.494 230.236 69.8404 230.572C69.1868 230.889 68.6619 231.414 68.2658 232.147C67.8895 232.86 67.6815 233.791 67.6419 234.94C67.6221 235.791 67.6122 236.593 67.6122 237.346C67.6122 238.079 67.6221 238.881 67.6419 239.752C67.7013 241.476 68.1371 242.723 68.9491 243.496C69.7612 244.248 70.801 244.625 72.0686 244.625Z" fill="black"/>
<path d="M88.0613 247.744C87.8632 247.744 87.6949 247.675 87.5563 247.536C87.4176 247.397 87.3483 247.229 87.3483 247.031V239.871L86.1005 240.347C85.9619 240.406 85.843 240.436 85.744 240.436C85.5855 240.436 85.4469 240.386 85.3281 240.287C85.2092 240.188 85.1498 240.049 85.1498 239.871V238.237C85.1498 238 85.1993 237.821 85.2984 237.702C85.3974 237.564 85.5658 237.455 85.8034 237.376L87.3483 236.811V227.661C87.3483 227.463 87.4176 227.294 87.5563 227.156C87.6949 227.017 87.8632 226.948 88.0613 226.948H90.8242C91.0223 226.948 91.1907 227.017 91.3293 227.156C91.4679 227.294 91.5373 227.463 91.5373 227.661V235.147L95.8451 233.484C96.0035 233.424 96.1224 233.395 96.2016 233.395C96.36 233.395 96.4987 233.444 96.6175 233.543C96.7364 233.642 96.7958 233.781 96.7958 233.959V235.593C96.7958 235.831 96.7463 236.009 96.6472 236.128C96.5482 236.227 96.3798 236.326 96.1422 236.425L91.5373 238.237V244.209H100.985C101.183 244.209 101.351 244.278 101.49 244.417C101.628 244.555 101.698 244.724 101.698 244.922V247.031C101.698 247.229 101.628 247.397 101.49 247.536C101.351 247.675 101.183 247.744 100.985 247.744H88.0613Z" fill="black"/>
<path d="M105.676 247.744C105.517 247.744 105.369 247.685 105.23 247.566C105.111 247.447 105.052 247.298 105.052 247.12C105.052 247.041 105.071 246.952 105.111 246.853L112.271 227.691C112.33 227.492 112.439 227.324 112.598 227.185C112.776 227.027 113.014 226.948 113.311 226.948H116.549C116.846 226.948 117.074 227.027 117.232 227.185C117.391 227.324 117.51 227.492 117.589 227.691L124.749 246.853C124.769 246.952 124.778 247.041 124.778 247.12C124.778 247.298 124.719 247.447 124.6 247.566C124.481 247.685 124.343 247.744 124.184 247.744H121.6C121.322 247.744 121.114 247.685 120.976 247.566C120.857 247.427 120.778 247.298 120.738 247.18L119.342 243.555H110.518L109.122 247.18C109.082 247.298 108.993 247.427 108.854 247.566C108.736 247.685 108.537 247.744 108.26 247.744H105.676ZM111.558 240.139H118.302L114.915 230.959L111.558 240.139Z" fill="black"/>
<path d="M139.024 247.744C138.826 247.744 138.658 247.675 138.519 247.536C138.38 247.397 138.311 247.229 138.311 247.031V227.691C138.311 227.473 138.38 227.294 138.519 227.156C138.658 227.017 138.826 226.948 139.024 226.948H146.986C148.531 226.948 149.878 227.195 151.027 227.691C152.175 228.166 153.067 228.899 153.7 229.889C154.334 230.859 154.651 232.078 154.651 233.543C154.651 235.029 154.334 236.257 153.7 237.227C153.067 238.178 152.175 238.891 151.027 239.366C149.878 239.842 148.531 240.079 146.986 240.079H142.559V247.031C142.559 247.229 142.49 247.397 142.352 247.536C142.233 247.675 142.064 247.744 141.847 247.744H139.024ZM142.5 236.782H146.838C147.986 236.782 148.868 236.514 149.482 235.979C150.096 235.425 150.403 234.613 150.403 233.543C150.403 232.553 150.115 231.761 149.541 231.166C148.967 230.552 148.066 230.246 146.838 230.246H142.5V236.782Z" fill="black"/>
<path d="M161.222 247.744C161.024 247.744 160.856 247.675 160.717 247.536C160.578 247.397 160.509 247.229 160.509 247.031V239.871L159.261 240.347C159.123 240.406 159.004 240.436 158.905 240.436C158.746 240.436 158.608 240.386 158.489 240.287C158.37 240.188 158.311 240.049 158.311 239.871V238.237C158.311 238 158.36 237.821 158.459 237.702C158.558 237.564 158.727 237.455 158.964 237.376L160.509 236.811V227.661C160.509 227.463 160.578 227.294 160.717 227.156C160.856 227.017 161.024 226.948 161.222 226.948H163.985C164.183 226.948 164.351 227.017 164.49 227.156C164.629 227.294 164.698 227.463 164.698 227.661V235.147L169.006 233.484C169.164 233.424 169.283 233.395 169.362 233.395C169.521 233.395 169.659 233.444 169.778 233.543C169.897 233.642 169.957 233.781 169.957 233.959V235.593C169.957 235.831 169.907 236.009 169.808 236.128C169.709 236.227 169.541 236.326 169.303 236.425L164.698 238.237V244.209H174.146C174.344 244.209 174.512 244.278 174.651 244.417C174.789 244.555 174.859 244.724 174.859 244.922V247.031C174.859 247.229 174.789 247.397 174.651 247.536C174.512 247.675 174.344 247.744 174.146 247.744H161.222Z" fill="black"/>
<path d="M183.218 247.744C183.02 247.744 182.851 247.675 182.713 247.536C182.574 247.397 182.505 247.229 182.505 247.031V240.317L175.494 227.898C175.474 227.859 175.454 227.809 175.434 227.75C175.414 227.691 175.404 227.631 175.404 227.572C175.404 227.393 175.464 227.245 175.583 227.126C175.702 227.007 175.84 226.948 175.999 226.948H178.643C178.88 226.948 179.069 227.007 179.207 227.126C179.366 227.245 179.475 227.374 179.534 227.512L184.585 236.158L189.605 227.512C189.685 227.374 189.793 227.245 189.932 227.126C190.091 227.007 190.289 226.948 190.526 226.948H193.141C193.319 226.948 193.468 227.007 193.586 227.126C193.705 227.245 193.765 227.393 193.765 227.572C193.765 227.631 193.755 227.691 193.735 227.75C193.735 227.809 193.715 227.859 193.675 227.898L186.664 240.317V247.031C186.664 247.229 186.595 247.397 186.456 247.536C186.318 247.675 186.139 247.744 185.921 247.744H183.218Z" fill="black"/>
<path d="M202.56 247.744C202.263 247.744 202.026 247.665 201.847 247.506C201.689 247.328 201.58 247.11 201.521 246.853L197.985 227.809C197.985 227.75 197.975 227.7 197.955 227.661C197.955 227.621 197.955 227.591 197.955 227.572C197.955 227.393 198.015 227.245 198.134 227.126C198.272 227.007 198.421 226.948 198.579 226.948H201.194C201.689 226.948 201.966 227.146 202.026 227.542L204.491 241L207.165 232.295C207.225 232.137 207.324 231.979 207.462 231.82C207.621 231.642 207.849 231.553 208.146 231.553H209.75C210.067 231.553 210.295 231.642 210.433 231.82C210.572 231.979 210.661 232.137 210.701 232.295L213.404 240.97L215.87 227.542C215.929 227.146 216.207 226.948 216.702 226.948H219.316C219.475 226.948 219.613 227.007 219.732 227.126C219.851 227.245 219.91 227.393 219.91 227.572C219.91 227.591 219.91 227.621 219.91 227.661C219.91 227.7 219.9 227.75 219.881 227.809L216.345 246.853C216.306 247.11 216.197 247.328 216.019 247.506C215.84 247.665 215.603 247.744 215.306 247.744H213.315C213.018 247.744 212.78 247.665 212.602 247.506C212.444 247.348 212.335 247.18 212.275 247.001L208.948 237.079L205.62 247.001C205.541 247.18 205.422 247.348 205.264 247.506C205.105 247.665 204.868 247.744 204.551 247.744H202.56Z" fill="black"/>
<path d="M223.656 247.744C223.498 247.744 223.349 247.685 223.211 247.566C223.092 247.447 223.032 247.298 223.032 247.12C223.032 247.041 223.052 246.952 223.092 246.853L230.252 227.691C230.311 227.492 230.42 227.324 230.579 227.185C230.757 227.027 230.994 226.948 231.292 226.948H234.53C234.827 226.948 235.055 227.027 235.213 227.185C235.372 227.324 235.49 227.492 235.57 227.691L242.73 246.853C242.749 246.952 242.759 247.041 242.759 247.12C242.759 247.298 242.7 247.447 242.581 247.566C242.462 247.685 242.323 247.744 242.165 247.744H239.58C239.303 247.744 239.095 247.685 238.956 247.566C238.838 247.427 238.758 247.298 238.719 247.18L237.322 243.555H228.499L227.103 247.18C227.063 247.298 226.974 247.427 226.835 247.566C226.716 247.685 226.518 247.744 226.241 247.744H223.656ZM229.539 240.139H236.283L232.896 230.959L229.539 240.139Z" fill="black"/>
<path d="M248.623 247.744C248.425 247.744 248.256 247.675 248.118 247.536C247.979 247.397 247.91 247.229 247.91 247.031V227.691C247.91 227.473 247.979 227.294 248.118 227.156C248.256 227.017 248.425 226.948 248.623 226.948H250.91C251.187 226.948 251.386 227.017 251.504 227.156C251.643 227.275 251.732 227.364 251.772 227.423L260.328 240.733V227.691C260.328 227.473 260.387 227.294 260.506 227.156C260.645 227.017 260.823 226.948 261.041 226.948H263.536C263.754 226.948 263.933 227.017 264.071 227.156C264.21 227.294 264.279 227.473 264.279 227.691V247.001C264.279 247.219 264.21 247.397 264.071 247.536C263.933 247.675 263.764 247.744 263.566 247.744H261.249C260.972 247.744 260.774 247.675 260.655 247.536C260.536 247.397 260.447 247.308 260.387 247.269L251.861 234.256V247.031C251.861 247.229 251.792 247.397 251.653 247.536C251.514 247.675 251.336 247.744 251.118 247.744H248.623Z" fill="black"/>
<path d="M272.005 247.744C271.806 247.744 271.638 247.675 271.499 247.536C271.361 247.397 271.292 247.229 271.292 247.031V227.661C271.292 227.463 271.361 227.294 271.499 227.156C271.638 227.017 271.806 226.948 272.005 226.948H274.797C275.015 226.948 275.183 227.017 275.302 227.156C275.441 227.294 275.51 227.463 275.51 227.661V247.031C275.51 247.229 275.441 247.397 275.302 247.536C275.183 247.675 275.015 247.744 274.797 247.744H272.005Z" fill="black"/>
<path d="M281.269 247.744C281.11 247.744 280.962 247.685 280.823 247.566C280.704 247.447 280.645 247.298 280.645 247.12C280.645 247.041 280.665 246.952 280.704 246.853L287.864 227.691C287.923 227.492 288.032 227.324 288.191 227.185C288.369 227.027 288.607 226.948 288.904 226.948H292.142C292.439 226.948 292.667 227.027 292.825 227.185C292.984 227.324 293.103 227.492 293.182 227.691L300.342 246.853C300.362 246.952 300.372 247.041 300.372 247.12C300.372 247.298 300.312 247.447 300.193 247.566C300.074 247.685 299.936 247.744 299.777 247.744H297.193C296.915 247.744 296.707 247.685 296.569 247.566C296.45 247.427 296.371 247.298 296.331 247.18L294.935 243.555H286.111L284.715 247.18C284.675 247.298 284.586 247.427 284.448 247.566C284.329 247.685 284.131 247.744 283.853 247.744H281.269ZM287.151 240.139H293.895L290.508 230.959L287.151 240.139Z" fill="black"/>
<path fill-rule="evenodd" clip-rule="evenodd" d="M259.86 59.9469C276.202 61.3218 290.527 49.6431 291.854 33.8617C293.182 18.0803 281.01 4.17242 264.668 2.79751C257.655 2.20751 251.014 4.02118 245.612 7.53125C254.478 23.7351 256.148 35.7191 234.134 22.0235C233.374 24.1949 232.875 26.4917 232.673 28.8827C231.934 37.6702 235.38 45.8768 241.402 51.6622C246.194 56.2667 252.617 59.3375 259.86 59.9469Z" fill="#DF4030"/>
<path d="M259.86 59.9469C252.617 59.3375 246.194 56.2667 241.402 51.6622C242.867 62.669 238.56 61.4145 226.888 60.0802L226.822 77.3685C242.776 74.6562 250.426 71.3957 259.86 59.9469Z" fill="#DF4030"/>
<path d="M259.86 59.9469C276.202 61.3218 290.527 49.6431 291.854 33.8617C293.182 18.0803 281.01 4.17242 264.668 2.79751C257.655 2.20751 251.014 4.02118 245.612 7.53125C254.478 23.7351 256.148 35.7191 234.134 22.0235C233.374 24.1949 232.875 26.4917 232.673 28.8827C231.934 37.6702 235.38 45.8768 241.402 51.6622M259.86 59.9469C252.617 59.3375 246.194 56.2667 241.402 51.6622M259.86 59.9469C250.426 71.3957 242.776 74.6562 226.822 77.3685L226.888 60.0802C238.56 61.4145 242.867 62.669 241.402 51.6622" stroke="black"/>
<path fill-rule="evenodd" clip-rule="evenodd" d="M46.1236 64.2721C29.7812 65.647 15.4568 53.9682 14.1291 38.1869C12.8014 22.4055 24.9731 8.49762 41.3155 7.1227C48.3282 6.53271 54.9693 8.34638 60.3714 11.8564C51.5055 28.0603 49.8353 40.0443 71.8497 26.3487C72.6093 28.5201 73.1088 30.8169 73.31 33.2079C74.0493 41.9954 70.603 50.202 64.5816 55.9874C59.7894 60.5919 53.366 63.6627 46.1236 64.2721Z" fill="#DF4030"/>
<path d="M46.1236 64.2721C53.366 63.6627 59.7894 60.5919 64.5816 55.9874C63.1165 66.9942 67.4234 65.7397 79.0954 64.4054L79.1615 81.6937C63.2075 78.9814 55.5571 75.7209 46.1236 64.2721Z" fill="#DF4030"/>
<path d="M46.1236 64.2721C29.7812 65.647 15.4568 53.9682 14.1291 38.1869C12.8014 22.4055 24.9731 8.49762 41.3155 7.1227C48.3282 6.53271 54.9693 8.34638 60.3714 11.8564C51.5055 28.0603 49.8353 40.0443 71.8497 26.3487C72.6093 28.5201 73.1088 30.8169 73.31 33.2079C74.0493 41.9954 70.603 50.202 64.5816 55.9874M46.1236 64.2721C53.366 63.6627 59.7894 60.5919 64.5816 55.9874M46.1236 64.2721C55.5571 75.7209 63.2075 78.9814 79.1615 81.6937L79.0954 64.4054C67.4234 65.7397 63.1165 66.9941 64.5816 55.9874" stroke="black"/>
<path d="M81.9274 121.205L94.8816 105.13L90.3244 100.691L76.8881 112.928C73.3014 116.142 72.9623 118.027 76.8881 121.205C79.0244 121.66 80.0985 121.72 81.9274 121.205Z" fill="#DF4030"/>
<path d="M81.9274 121.205C80.0985 121.72 79.0244 121.66 76.8881 121.205L74.2176 130.776L80.9232 137.421L81.9274 121.205Z" fill="#DF4030"/>
<path d="M80.9232 137.421C77.8879 139.282 76.2823 139.697 72.4953 139.632C80.2791 153.328 86.6636 157.227 100.488 158.361C102.649 155.667 90.4578 146.65 80.9232 137.421Z" fill="#DF4030"/>
<path d="M80.9232 137.421L74.2176 130.776L71.4576 136.175C71.2241 137.62 71.4887 138.372 72.4953 139.632C76.2823 139.697 77.8879 139.282 80.9232 137.421Z" fill="#DF4030"/>
<path d="M81.9274 121.205L94.8816 105.13L90.3244 100.691L76.8881 112.928C73.3014 116.142 72.9623 118.027 76.8881 121.205M81.9274 121.205C80.0985 121.72 79.0244 121.66 76.8881 121.205M81.9274 121.205L80.9232 137.421M76.8881 121.205L74.2176 130.776M74.2176 130.776L80.9232 137.421M74.2176 130.776L71.4576 136.175C71.2241 137.62 71.4887 138.372 72.4953 139.632M80.9232 137.421C77.8879 139.282 76.2823 139.697 72.4953 139.632M80.9232 137.421C90.4578 146.65 102.649 155.667 100.488 158.361C86.6636 157.227 80.2791 153.328 72.4953 139.632" stroke="black"/>
<path d="M89.1354 99.4305L67.7271 112.472L59.9147 130.587C67.0147 145.051 77.2376 160.364 73.6614 162.553C58.3322 155.575 52.6403 148.496 49.3764 129.649C48.7443 127.795 48.7509 126.828 49.6119 125.272L54.9844 120.238L61.9696 110.401C58.7905 105.156 59.9527 103.142 65.3719 100.944L85.7531 92.4858L89.1354 99.4305Z" fill="#DF4030"/>
<path d="M67.7271 112.472L89.1354 99.4305L85.7531 92.4858L65.3719 100.944C59.9527 103.142 58.7905 105.156 61.9696 110.401M67.7271 112.472C65.4258 112.309 64.2234 111.798 61.9696 110.401M67.7271 112.472L59.9147 130.587M61.9696 110.401L54.9844 120.238M54.9844 120.238L59.9147 130.587M54.9844 120.238L49.6119 125.272C48.7509 126.828 48.7443 127.795 49.3764 129.649M59.9147 130.587C55.6818 131.465 53.6767 131.279 49.3764 129.649M59.9147 130.587C67.0147 145.051 77.2376 160.364 73.6614 162.553C58.3322 155.575 52.6403 148.496 49.3764 129.649" stroke="black"/>
<path d="M87.13 92.0464L59.4231 94.935L42.947 109.396C43.1807 127.3 46.1445 147.545 41.5109 148.038C29.4484 133.727 27.1085 123.908 32.8148 103.432C33.0638 101.27 33.5315 100.302 35.1373 99.1505L42.9297 96.6579L54.6306 90.1116C53.939 83.3312 56.0656 81.8634 62.5535 82.2394L87.0445 83.4628L87.13 92.0464Z" fill="#DF4030"/>
<path d="M59.4231 94.935L87.13 92.0464L87.0445 83.4628L62.5535 82.2394C56.0656 81.8634 53.939 83.3312 54.6306 90.1116M59.4231 94.935C57.1906 93.6744 56.227 92.5888 54.6306 90.1116M59.4231 94.935L42.947 109.396M54.6306 90.1116L42.9297 96.6579M42.9297 96.6579L42.947 109.396M42.9297 96.6579L35.1373 99.1505C33.5315 100.302 33.0638 101.27 32.8148 103.432M42.947 109.396C38.2791 108.26 36.3548 107.118 32.8148 103.432M42.947 109.396C43.1807 127.3 46.1445 147.545 41.5109 148.038C29.4484 133.727 27.1085 123.908 32.8148 103.432" stroke="black"/>
<path d="M221.563 122.771L208.609 106.696L213.166 102.257L226.603 114.493C230.189 117.708 230.528 119.592 226.603 122.771C224.466 123.225 223.392 123.286 221.563 122.771Z" fill="#DF4030"/>
<path d="M221.563 122.771C223.392 123.286 224.466 123.225 226.603 122.771L229.273 132.342L222.567 138.986L221.563 122.771Z" fill="#DF4030"/>
<path d="M222.567 138.986L229.273 132.342L232.033 137.74C232.267 139.186 232.002 139.937 230.995 141.198C227.208 141.262 225.603 140.847 222.567 138.986Z" fill="#DF4030"/>
<path d="M222.567 138.986C225.603 140.847 227.208 141.262 230.995 141.198C223.212 154.893 216.827 158.792 203.003 159.926C200.842 157.233 213.033 148.216 222.567 138.986Z" fill="#DF4030"/>
<path d="M221.563 122.771L208.609 106.696L213.166 102.257L226.603 114.493C230.189 117.708 230.528 119.592 226.603 122.771M221.563 122.771C223.392 123.286 224.466 123.225 226.603 122.771M221.563 122.771L222.567 138.986M226.603 122.771L229.273 132.342M229.273 132.342L222.567 138.986M229.273 132.342L232.033 137.74C232.267 139.186 232.002 139.937 230.995 141.198M222.567 138.986C225.603 140.847 227.208 141.262 230.995 141.198M222.567 138.986C213.033 148.216 200.842 157.233 203.003 159.926C216.827 158.792 223.212 154.893 230.995 141.198" stroke="black"/>
<path d="M235.763 114.037L214.355 100.995L217.737 94.0502L238.118 102.508C243.538 104.706 244.7 106.72 241.521 111.965C239.267 113.363 238.064 113.874 235.763 114.037Z" fill="#DF4030"/>
<path d="M235.763 114.037C238.064 113.874 239.267 113.363 241.521 111.965L248.506 121.803L243.576 132.151L235.763 114.037Z" fill="#DF4030"/>
<path d="M243.576 132.151L248.506 121.803L253.878 126.837C254.739 128.392 254.746 129.36 254.114 131.214C249.813 132.844 247.808 133.029 243.576 132.151Z" fill="#DF4030"/>
<path d="M243.576 132.151C247.808 133.029 249.813 132.844 254.114 131.214C250.85 150.061 245.158 157.14 229.829 164.118C226.253 161.928 236.476 146.615 243.576 132.151Z" fill="#DF4030"/>
<path d="M235.763 114.037L214.355 100.995L217.737 94.0502L238.118 102.508C243.538 104.706 244.7 106.72 241.521 111.965M235.763 114.037C238.064 113.874 239.267 113.363 241.521 111.965M235.763 114.037L243.576 132.151M241.521 111.965L248.506 121.803M248.506 121.803L243.576 132.151M248.506 121.803L253.878 126.837C254.739 128.392 254.746 129.36 254.114 131.214M243.576 132.151C247.808 133.029 249.813 132.844 254.114 131.214M243.576 132.151C236.476 146.615 226.253 161.928 229.829 164.118C245.158 157.14 250.85 150.061 254.114 131.214" stroke="black"/>
<path d="M245.419 94.935L217.712 92.0464L217.798 83.4628L242.289 82.2394C248.777 81.8634 250.903 83.3312 250.212 90.1116C248.615 92.5888 247.652 93.6744 245.419 94.935Z" fill="#DF4030"/>
<path d="M245.419 94.935C247.652 93.6744 248.615 92.5888 250.212 90.1116L261.913 96.6579L261.895 109.396L245.419 94.935Z" fill="#DF4030"/>
<path d="M261.895 109.396L261.913 96.6579L269.705 99.1505C271.311 100.302 271.779 101.27 272.027 103.432C268.487 107.118 266.563 108.26 261.895 109.396Z" fill="#DF4030"/>
<path d="M261.895 109.396C266.563 108.26 268.487 107.118 272.027 103.432C277.734 123.908 275.394 133.727 263.331 148.038C258.698 147.545 261.662 127.3 261.895 109.396Z" fill="#DF4030"/>
<path d="M245.419 94.935L217.712 92.0464L217.798 83.4628L242.289 82.2394C248.777 81.8634 250.903 83.3312 250.212 90.1116M245.419 94.935C247.652 93.6744 248.615 92.5888 250.212 90.1116M245.419 94.935L261.895 109.396M250.212 90.1116L261.913 96.6579M261.913 96.6579L261.895 109.396M261.913 96.6579L269.705 99.1505C271.311 100.302 271.779 101.27 272.027 103.432M261.895 109.396C266.563 108.26 268.487 107.118 272.027 103.432M261.895 109.396C261.662 127.3 258.698 147.545 263.331 148.038C275.394 133.727 277.734 123.908 272.027 103.432" stroke="black"/>
<path d="M151.449 123.677C106.072 119.736 84.3368 111.965 73.9453 64.8295C92.6653 57.6929 101.141 50.6916 120.357 39.4526C139.573 28.2136 163.88 29.2124 182.935 39.4526C201.99 49.6928 211.646 54.6069 232.152 60.8687C218.916 108.659 200.935 122.091 151.449 123.677Z" fill="#DF4030" stroke="black"/>
<path d="M183.434 4.87891C194.822 4.87892 204.054 14.1109 204.054 25.499C204.054 36.8872 194.822 46.1191 183.434 46.1191C172.046 46.1191 162.814 36.8872 162.814 25.499C162.814 14.1108 172.046 4.87891 183.434 4.87891Z" fill="#DF4030" stroke="black"/>
<path d="M200.734 28.2833C200.734 38.41 192.525 46.6193 182.398 46.6193C172.271 46.6193 164.062 38.41 164.062 28.2833C164.062 18.1566 172.271 9.94727 182.398 9.94727C192.525 9.94727 200.734 18.1566 200.734 28.2833Z" fill="white"/>
<path d="M182.395 16.1152C175.674 16.1153 170.227 21.5631 170.227 28.2832C170.227 35.0032 175.675 40.4511 182.395 40.4512C189.115 40.4512 194.562 35.0033 194.562 28.2832C194.562 26.7904 194.293 25.3606 193.801 24.0391C192.885 25.536 191.236 26.5352 189.353 26.5352C186.475 26.5351 184.143 24.2024 184.143 21.3252C184.143 19.4422 185.142 17.7923 186.639 16.877C185.317 16.3851 183.887 16.1152 182.395 16.1152Z" fill="black"/>
<path d="M111.452 7.66211C100.064 7.66212 90.8315 16.8941 90.8315 28.2822C90.8315 39.6704 100.064 48.9023 111.452 48.9023C122.84 48.9023 132.072 39.6704 132.072 28.2822C132.072 16.8941 122.84 7.66211 111.452 7.66211Z" fill="#DF4030" stroke="black"/>
<path d="M94.1517 31.0665C94.1517 41.1932 102.361 49.4025 112.488 49.4025C122.614 49.4025 130.824 41.1932 130.824 31.0665C130.824 20.9398 122.614 12.7305 112.488 12.7305C102.361 12.7305 94.1517 20.9398 94.1517 31.0665Z" fill="white"/>
<path d="M112.491 18.8975C119.211 18.8975 124.659 24.3452 124.659 31.0654C124.658 37.7854 119.211 43.2334 112.491 43.2334C105.771 43.2334 100.323 37.7854 100.323 31.0654C100.323 29.5724 100.592 28.142 101.084 26.8203C102 28.3176 103.649 29.3173 105.533 29.3174C108.41 29.3174 110.742 26.9846 110.743 24.1074C110.743 22.2243 109.744 20.5745 108.247 19.6592C109.568 19.1672 110.998 18.8975 112.491 18.8975Z" fill="black"/>
<g filter="url(#filter0_d_2036_771)">
<path d="M124.686 65.043C125.5 65.5435 126.282 66.0163 127.086 66.4896C134.31 70.6756 142.037 74.6213 150.595 75.3581C159.248 76.2118 167.417 71.9826 173.879 66.8119C174.626 66.2266 175.327 65.655 176.057 65.043C175.286 65.6024 174.548 66.123 173.767 66.6587C166.958 71.4044 158.989 75.1827 150.672 74.361C142.41 73.6592 134.653 70.0379 127.177 66.3228C126.346 65.9028 125.533 65.4856 124.686 65.043Z" fill="black"/>
</g>
<ellipse cx="1.54735" cy="1.54735" rx="1.54735" ry="1.54735" transform="matrix(-0.964482 0.264149 0.264149 0.964482 131.457 112.375)" fill="black" fill-opacity="0.62"/>
<ellipse cx="2.8635" cy="2.8635" rx="2.8635" ry="2.8635" transform="matrix(-0.964482 0.264149 0.264149 0.964482 120.915 106.735)" fill="black" fill-opacity="0.62"/>
<ellipse cx="1.91575" cy="1.91575" rx="1.91575" ry="1.91575" transform="matrix(-0.964482 0.264149 0.264149 0.964482 115.229 96.8105)" fill="black" fill-opacity="0.62"/>
<ellipse cx="3.19729" cy="3.1973" rx="3.19729" ry="3.1973" transform="matrix(-0.964482 0.264149 0.264149 0.964482 105.323 102.716)" fill="black" fill-opacity="0.62"/>
<ellipse cx="1.73653" cy="1.73653" rx="1.73653" ry="1.73653" transform="matrix(-0.964482 0.264149 0.264149 0.964482 100.3 92.9229)" fill="black" fill-opacity="0.62"/>
<ellipse cx="184.904" cy="111.863" rx="1.54735" ry="1.54735" fill="black" fill-opacity="0.62"/>
<ellipse cx="194.897" cy="104.954" rx="2.8635" ry="2.8635" fill="black" fill-opacity="0.62"/>
<ellipse cx="196.813" cy="92.9333" rx="1.91575" ry="1.91575" fill="black" fill-opacity="0.62"/>
<ellipse cx="209.208" cy="97.294" rx="3.19729" ry="3.1973" fill="black" fill-opacity="0.62"/>
<ellipse cx="210.004" cy="85.0617" rx="1.73653" ry="1.73653" fill="black" fill-opacity="0.62"/>
<ellipse cx="112.179" cy="70.018" rx="8.66514" ry="7.73673" fill="#FFB5B5"/>
<ellipse cx="190.064" cy="70.017" rx="8.66514" ry="7.73673" fill="#FFB5B5"/>
<defs>
<filter id="filter0_d_2036_771" x="120.686" y="65.043" width="59.3721" height="18.4248" filterUnits="userSpaceOnUse" color-interpolation-filters="sRGB">
<feFlood flood-opacity="0" result="BackgroundImageFix"/>
<feColorMatrix in="SourceAlpha" type="matrix" values="0 0 0 0 0 0 0 0 0 0 0 0 0 0 0 0 0 0 127 0" result="hardAlpha"/>
<feOffset dy="4"/>
<feGaussianBlur stdDeviation="2"/>
<feComposite in2="hardAlpha" operator="out"/>
<feColorMatrix type="matrix" values="0 0 0 0 0 0 0 0 0 0 0 0 0 0 0 0 0 0 0.25 0"/>
<feBlend mode="normal" in2="BackgroundImageFix" result="effect1_dropShadow_2036_771"/>
<feBlend mode="normal" in="SourceGraphic" in2="effect1_dropShadow_2036_771" result="shape"/>
</filter>
</defs>
</svg>
