<svg width="125" height="125" viewBox="0 0 125 125" fill="none" xmlns="http://www.w3.org/2000/svg">
<rect x="2.5" y="2.5" width="120" height="120" rx="60" stroke="#78B7B7" stroke-width="5"/>
<path d="M62.858 55.7752C62.0379 54.3371 61.5413 53.1008 61.2673 51.9305C59.3675 52.3689 57.3146 53.004 55.0935 53.8366C55.6845 57.8813 54.9249 59.998 59.6987 64.6213C61.4664 65.3299 62.0336 65.2924 61.9424 64.1036C61.6888 60.3839 62.0695 58.0596 62.858 55.7752Z" fill="#9CD3FC"/>
<path d="M30.4216 63.217C33.1675 65.8674 38.0345 61.9852 44.5156 58.6094C48.4133 56.6144 51.9246 55.0244 55.0935 53.8366C57.3146 53.004 59.3675 52.3689 61.2673 51.9305C60.7858 49.8741 60.9916 48.0216 61.3383 45.6362C52.4654 45.9412 49.2798 47.7497 45.1147 52.3673C40.2817 59.4756 36.882 61.2682 30.4216 63.217Z" fill="#A5D1F2"/>
<path d="M85.7131 82.1896C88.4796 59.2171 83.8792 53.1378 71.0898 47.3621C70.4116 48.8776 69.9863 50.1583 69.7104 51.3955C79.2825 52.9295 83.0815 63.2938 85.7131 82.1896Z" fill="#A5D1F1"/>
<path d="M35.7069 53.3242L35.6872 53.3459C31.7654 57.6647 29.5605 60.0928 30.4216 63.217C36.882 61.2682 40.2817 59.4756 45.1147 52.3673C49.2798 47.7497 52.4654 45.9412 61.3383 45.6362C60.9916 48.0216 60.7858 49.8741 61.2673 51.9305C61.5413 53.1008 62.0379 54.3371 62.858 55.7752C63.3497 56.6376 63.9578 57.5726 64.7039 58.6094C67.3036 60.9841 68.3647 61.1242 69.105 57.8902C69.2084 55.2951 69.2629 53.4025 69.7104 51.3955C69.9863 50.1583 70.4116 48.8776 71.0898 47.3621C83.8792 53.1378 88.4796 59.2171 85.7131 82.1896C78.704 84.8519 77.9768 87.5623 77.9886 92.8955C79.3091 90.6756 80.1895 90.1276 81.9434 90.1542C84.005 90.0905 85.1089 89.7616 86.767 87.4257C86.962 89.1829 87.7629 89.8889 90.2264 90.7389C92.6167 91.3397 93.4543 92.4033 94.6115 94.783C94.6949 88.8469 93.7093 85.9934 89.1545 82.1896C97.8645 58.7621 96.1169 49.9404 86.0844 38.7004C87.7716 36.115 88.9442 34.9773 91.8448 34.0492C92.018 34.0145 92.4402 33.569 92.1345 33.0017C89.4269 28.3395 79.9058 30.7874 72.9338 31.4656C48.8968 28.3426 40.9909 33.4292 35.7069 53.3242Z" fill="#9CD3FC"/>
<path d="M35.7069 53.3242C40.9909 33.4292 48.8968 28.3426 72.9338 31.4656C79.9058 30.7874 89.4269 28.3395 92.1345 33.0017C92.4402 33.569 92.018 34.0145 91.8448 34.0492C88.9442 34.9773 87.7716 36.115 86.0844 38.7004C96.1169 49.9404 97.8645 58.7621 89.1545 82.1896C93.7093 85.9934 94.6949 88.8469 94.6115 94.783C93.4543 92.4033 92.6167 91.3397 90.2264 90.7389C87.7629 89.8889 86.962 89.1829 86.767 87.4257C85.1089 89.7616 84.005 90.0905 81.9434 90.1542C80.1895 90.1276 79.3091 90.6756 77.9886 92.8955C77.9768 87.5623 78.704 84.8519 85.7131 82.1896M35.7069 53.3242L35.6872 53.3459M35.7069 53.3242C35.7003 53.3314 35.6938 53.3387 35.6872 53.3459M30.4216 63.217C33.1675 65.8674 38.0345 61.9852 44.5156 58.6094C48.4133 56.6144 51.9246 55.0244 55.0935 53.8366M30.4216 63.217C36.882 61.2682 40.2817 59.4756 45.1147 52.3673C49.2798 47.7497 52.4654 45.9412 61.3383 45.6362C60.9916 48.0216 60.7858 49.8741 61.2673 51.9305M30.4216 63.217C29.5605 60.0928 31.7654 57.6647 35.6872 53.3459M85.7131 82.1896C88.4796 59.2171 83.8792 53.1378 71.0898 47.3621C70.4116 48.8776 69.9863 50.1583 69.7104 51.3955M85.7131 82.1896C83.0815 63.2938 79.2825 52.9295 69.7104 51.3955M55.0935 53.8366C55.6845 57.8813 54.9249 59.998 59.6987 64.6213C61.4664 65.3299 62.0336 65.2924 61.9424 64.1036C61.6888 60.3839 62.0695 58.0596 62.858 55.7752M55.0935 53.8366C57.3146 53.004 59.3675 52.3689 61.2673 51.9305M62.858 55.7752C62.0379 54.3371 61.5413 53.1008 61.2673 51.9305M62.858 55.7752C63.3497 56.6376 63.9578 57.5726 64.7039 58.6094C67.3036 60.9841 68.3647 61.1242 69.105 57.8902C69.2084 55.2951 69.2629 53.4025 69.7104 51.3955" stroke="black"/>
<path d="M46.2555 50.0748C46.2555 51.1345 45.3964 51.9935 44.3367 51.9935C43.277 51.9935 42.418 51.1345 42.418 50.0748C42.418 49.0151 43.277 48.156 44.3367 48.156C45.3964 48.156 46.2555 49.0151 46.2555 50.0748Z" fill="white"/>
<path d="M44.3369 48.8013C43.6337 48.8013 43.0635 49.3715 43.0635 50.0747C43.0636 50.7779 43.6337 51.3481 44.3369 51.3481C45.04 51.348 45.6103 50.7778 45.6104 50.0747C45.6104 49.918 45.5811 49.768 45.5293 49.6294C45.4336 49.7862 45.2616 49.8921 45.0645 49.8921C44.7635 49.8919 44.5195 49.6472 44.5195 49.3462C44.5196 49.1494 44.6248 48.9781 44.7812 48.8823C44.6428 48.8307 44.4934 48.8013 44.3369 48.8013Z" fill="black"/>
</svg>
