<svg width="126" height="125" viewBox="0 0 126 125" fill="none" xmlns="http://www.w3.org/2000/svg">
<rect x="3" y="2.5" width="120" height="120" rx="60" stroke="#78B7B7" stroke-width="5"/>
<path d="M76.2781 62.5C72.8648 62.5 69.5645 60.976 66.9813 58.2102C64.4694 55.5124 62.9355 51.9148 62.6648 48.0832C62.376 43.9959 63.6228 40.2373 66.1744 37.498C68.7261 34.7588 72.2938 33.2812 76.2781 33.2812C80.2343 33.2812 83.8119 34.7854 86.3553 37.518C88.9235 40.2771 90.1736 44.0291 89.8848 48.0815C89.6075 51.9182 88.0752 55.5141 85.5684 58.2085C82.9918 60.976 79.6931 62.5 76.2781 62.5Z" fill="#78B7B7"/>
<path d="M98.164 91.7188H54.3939C53.6902 91.7225 52.995 91.5648 52.3618 91.2577C51.7286 90.9506 51.1743 90.5023 50.7416 89.9474C50.2826 89.3458 49.9656 88.6481 49.8144 87.9067C49.6631 87.1652 49.6816 86.3991 49.8684 85.6658C51.2662 80.0528 54.7293 75.3978 59.8824 72.2053C64.4562 69.3731 70.2783 67.8125 76.2781 67.8125C82.3958 67.8125 88.0652 69.3066 92.6655 72.1372C97.8303 75.3131 101.298 79.9947 102.69 85.6758C102.874 86.4096 102.89 87.1757 102.738 87.9168C102.585 88.6578 102.266 89.3548 101.806 89.9557C101.374 90.508 100.821 90.9541 100.19 91.2597C99.5583 91.5653 98.8654 91.7224 98.164 91.7188Z" fill="#78B7B7"/>
<path d="M44.9012 63.1641C39.0591 63.1641 33.9226 57.732 33.4461 51.0565C33.2104 47.6366 34.2762 44.474 36.4344 42.1548C38.5693 39.8588 41.5809 38.5938 44.9012 38.5938C48.2215 38.5938 51.2098 39.8654 53.3563 42.1747C55.5312 44.5122 56.5937 47.6682 56.3446 51.0599C55.8682 57.7337 50.7333 63.1641 44.9012 63.1641Z" fill="#78B7B7"/>
<path d="M55.8018 68.3853C52.8815 66.9575 49.0914 66.2437 44.9028 66.2437C40.012 66.2437 35.2623 67.5187 31.527 69.8329C27.2919 72.4609 24.4431 76.2876 23.2926 80.9078C23.1242 81.5724 23.1083 82.2664 23.246 82.938C23.3837 83.6095 23.6715 84.2413 24.0878 84.7859C24.4828 85.2931 24.9889 85.7028 25.5671 85.9837C26.1453 86.2646 26.7802 86.4092 27.4231 86.4063H45.8508C46.1618 86.4062 46.463 86.297 46.7017 86.0977C46.9405 85.8984 47.1017 85.6216 47.1573 85.3155C47.1756 85.2109 47.1988 85.1063 47.2254 85.0034C48.6332 79.3489 51.9319 74.571 56.8062 71.088C56.9854 70.9588 57.1296 70.7868 57.2257 70.5878C57.3217 70.3888 57.3666 70.1689 57.3562 69.9482C57.3458 69.7274 57.2805 69.5128 57.1662 69.3236C57.0519 69.1345 56.8922 68.9769 56.7016 68.865C56.4409 68.7123 56.1421 68.5513 55.8018 68.3853Z" fill="#78B7B7"/>
</svg>
