<svg width="126" height="125" viewBox="0 0 126 125" fill="none" xmlns="http://www.w3.org/2000/svg">
<rect x="3" y="2.5" width="120" height="120" rx="60" stroke="#78B7B7" stroke-width="5"/>
<path d="M72.431 38.9464C70.0365 36.3612 66.6921 34.9375 63.0007 34.9375C59.2896 34.9375 55.9341 36.3525 53.5507 38.9218C51.1414 41.5193 49.9676 45.0495 50.2432 48.8615C50.7895 56.3821 56.5124 62.5 63.0007 62.5C69.489 62.5 75.202 56.3833 75.757 48.8639C76.0363 45.0864 74.855 41.5636 72.431 38.9464Z" fill="#78B7B7"/>
<path d="M84.6569 90.0625H41.3445C40.7775 90.0699 40.2161 89.9508 39.701 89.7139C39.1859 89.477 38.7301 89.1282 38.3667 88.693C37.5669 87.7369 37.2445 86.4314 37.4832 85.1111C38.5218 79.35 41.7628 74.5106 46.857 71.1133C51.3826 68.0974 57.1154 66.4375 63.0007 66.4375C68.886 66.4375 74.6188 68.0986 79.1445 71.1133C84.2386 74.5094 87.4796 79.3488 88.5182 85.1099C88.7569 86.4302 88.4345 87.7357 87.6347 88.6918C87.2714 89.1272 86.8157 89.4762 86.3006 89.7133C85.7855 89.9504 85.224 90.0697 84.6569 90.0625Z" fill="#78B7B7"/>
</svg>
