<svg width="125" height="125" viewBox="0 0 125 125" fill="none" xmlns="http://www.w3.org/2000/svg">
<rect x="2.5" y="2.5" width="120" height="120" rx="60" stroke="#78B7B7" stroke-width="5"/>
<path d="M40.45 77.2665C33.2282 74.7129 29.4544 73.3255 29.9137 71.9981C26.6985 69.862 26.0195 68.513 25.6639 65.9924C25.5983 65.1153 25.6896 64.5365 25.9358 64.1571C16.7923 55.2941 19.5636 51.3724 25.2047 44.4712C25.5854 44.2015 25.8118 44.1844 26.1965 44.4712C26.4041 45.1849 25.9954 45.4761 26.1965 46.1039C26.3975 46.7317 27.0342 46.488 27.3367 47.2826C27.6224 48.0332 27.0136 48.2949 27.3367 49.0146C27.6041 49.6102 28.2544 49.5289 28.5635 50.1452C28.6644 50.3464 28.2765 50.5151 28.5635 51.2999C28.6542 51.5479 29.6264 51.9619 29.7187 52.214C29.798 52.4304 29.4748 53.3836 29.5498 53.5852C29.7749 54.1908 30.5131 54.3241 30.6067 54.4993C30.728 54.7266 30.4778 55.3937 30.6067 55.6299C30.7921 55.9701 30.9857 55.8862 31.1882 56.2491C31.5342 55.8091 31.7026 55.5079 31.997 55.1145C32.3634 54.6249 32.0538 54.5809 32.3516 54.1142C32.5903 53.74 33.2613 53.3761 33.4631 52.9851C33.6512 52.6208 33.3937 52.1953 33.5552 51.7928C33.7005 51.4307 34.2953 51.1716 34.4231 50.7611C34.5147 50.4668 34.4682 50.4717 34.5525 50.1452C34.5827 50.0282 34.7474 49.838 34.9131 49.6466L34.9308 49.6262C35.1118 49.4171 35.091 48.5654 35.2492 48.4362C35.5344 48.2033 35.6368 48.1231 36.0293 48.4362C40.1675 54.8017 41.3604 58.3148 35.1819 64.1571C35.2665 65.4662 34.7962 67.3966 34.4093 69.7153L39.6424 74.6324L40.45 77.2665Z" fill="#DF4030"/>
<path d="M29.9137 71.9981C29.4544 73.3255 33.2282 74.7129 40.45 77.2665L39.6424 74.6324L34.4093 69.7153M29.9137 71.9981C32.6666 72.2399 33.6998 71.7797 34.4093 69.7153M29.9137 71.9981C26.6985 69.862 26.0195 68.513 25.6639 65.9924C25.5983 65.1153 25.6896 64.5365 25.9358 64.1571M34.4093 69.7153C34.7962 67.3966 35.2665 65.4662 35.1819 64.1571M35.1819 64.1571C35.1347 63.4257 34.9142 62.8883 34.4093 62.5855C33.036 63.2327 31.9247 63.478 30.2316 63.5001M35.1819 64.1571C41.3604 58.3148 40.1675 54.8017 36.0293 48.4362C35.6368 48.1231 35.5344 48.2033 35.2492 48.4362C35.091 48.5654 35.1118 49.4171 34.9308 49.6262C34.7593 49.8244 34.5838 50.024 34.5525 50.1452C34.4682 50.4717 34.5147 50.4668 34.4231 50.7611C34.2953 51.1716 33.7005 51.4307 33.5552 51.7928C33.3937 52.1953 33.6512 52.6208 33.4631 52.9851C33.2613 53.3761 32.5903 53.74 32.3516 54.1142C32.0538 54.5809 32.3634 54.6249 31.997 55.1145C31.7026 55.5079 31.5342 55.8091 31.1882 56.2491M31.1882 56.2491C29.9278 59.0056 29.8894 60.6092 30.2316 63.5001M31.1882 56.2491C30.9857 55.8862 30.7921 55.9701 30.6067 55.6299C30.4778 55.3937 30.728 54.7266 30.6067 54.4993C30.5131 54.3241 29.7749 54.1908 29.5498 53.5852C29.4748 53.3836 29.798 52.4304 29.7187 52.214C29.6264 51.9619 28.6542 51.5479 28.5635 51.2999C28.2765 50.5151 28.6644 50.3464 28.5635 50.1452C28.2544 49.5289 27.6041 49.6102 27.3367 49.0146C27.0136 48.2949 27.6224 48.0332 27.3367 47.2826C27.0342 46.488 26.3975 46.7317 26.1965 46.1039C25.9954 45.4761 26.4041 45.1849 26.1965 44.4712C25.8118 44.1844 25.5854 44.2015 25.2047 44.4712C19.5636 51.3724 16.7923 55.2941 25.9358 64.1571M30.2316 63.5001C29.7183 63.5068 29.1516 63.493 28.5079 63.4636C27.2129 63.4439 26.3525 63.515 25.9358 64.1571" stroke="black"/>
<path d="M90.0388 69.3157C90.7319 71.319 85.0367 73.4127 74.1381 77.2665L75.3569 73.2913L83.2544 65.8706C84.3251 68.9862 85.8843 69.6807 90.0388 69.3157Z" fill="#DF4030"/>
<path d="M90.0388 69.3157C85.8843 69.6807 84.3251 68.9862 83.2544 65.8706C82.6704 62.3715 81.9607 59.4582 82.0883 57.4826C82.1597 56.3789 82.4924 55.5678 83.2544 55.1109C85.3268 56.0875 87.004 56.4578 89.5591 56.4911C90.3337 56.5012 91.189 56.4804 92.1604 56.4361C94.1147 56.4062 95.4132 56.5136 96.0421 57.4826C96.4136 58.0552 96.5514 58.9286 96.4524 60.2523C95.9157 64.0563 94.8909 66.0921 90.0388 69.3157Z" fill="#DF4030"/>
<path d="M92.1604 56.4361C91.189 56.4804 90.3337 56.5012 89.5591 56.4911C90.0755 52.1283 90.0176 49.7083 88.1155 45.5482C88.2729 45.266 88.4268 44.9888 88.5773 44.7161C88.7662 44.3739 89.1675 44.2281 89.346 43.8992C89.5018 43.6122 89.3387 42.802 89.4871 42.5238C89.6483 42.2216 90.198 42.0237 90.3511 41.7303C90.518 41.4106 90.1931 40.7367 90.3511 40.4255C90.514 40.1046 91.1314 40.1048 91.2857 39.7907C91.5177 39.3185 91.2468 38.7553 91.462 38.2918C91.6567 37.8725 92.3367 37.6344 92.52 37.2162C92.7981 36.5815 92.2618 35.9783 92.52 35.3295C92.7122 34.8463 93.4988 34.7369 93.6838 34.2362C93.8502 33.7858 93.5208 33.3495 93.6838 32.8784C93.836 32.4384 94.4672 32.0367 94.6183 31.5736C94.7978 31.0236 94.4373 30.2947 94.6183 29.7045C94.707 29.4151 95.2879 28.9949 95.3775 28.6944C95.4673 28.3935 95.5576 28.0868 95.6487 27.7737C96.2292 27.341 96.5708 27.3667 97.1454 27.7737C105.659 38.1887 109.841 44.1071 96.0421 57.4826C95.4132 56.5136 94.1147 56.4062 92.1604 56.4361Z" fill="#DF4030"/>
<path d="M83.2544 55.1109C82.4924 55.5678 82.1597 56.3789 82.0883 57.4826C72.7642 48.6658 74.5643 43.3639 80.8095 33.7575C81.4019 33.285 81.658 33.406 82.0883 33.7575C82.1848 34.1879 82.2841 34.599 82.3865 34.993C82.5144 35.4846 82.4359 35.9794 82.575 36.4227C82.7732 37.0544 83.3539 37.2418 83.5801 37.7981C83.8265 38.4043 83.6102 39.0468 83.8975 39.5967C84.1969 40.1699 84.8849 40.1748 85.2376 40.7252C85.5493 41.2118 85.4771 42.0261 85.8371 42.5238C86.0029 42.7531 86.3111 42.8533 86.4895 43.1057C86.6425 43.3223 86.6641 43.6903 86.8245 43.8992C87.1196 44.2835 87.7893 45.1335 88.1155 45.5482C90.0176 49.7083 90.0755 52.1283 89.5591 56.4911C87.004 56.4578 85.3268 56.0875 83.2544 55.1109Z" fill="#DF4030"/>
<path d="M90.0388 69.3157C90.7319 71.319 85.0367 73.4127 74.1381 77.2665L75.3569 73.2913L83.2544 65.8706M90.0388 69.3157C85.8843 69.6807 84.3251 68.9862 83.2544 65.8706M90.0388 69.3157C94.8909 66.0921 95.9157 64.0563 96.4524 60.2524C96.5514 58.9286 96.4136 58.0552 96.0421 57.4826M83.2544 65.8706C82.6704 62.3715 81.9607 59.4582 82.0883 57.4826M82.0883 57.4826C82.1597 56.3789 82.4924 55.5678 83.2544 55.1109C85.3268 56.0875 87.004 56.4578 89.5591 56.4911M82.0883 57.4826C72.7642 48.6658 74.5643 43.3639 80.8095 33.7575C81.4019 33.285 81.658 33.406 82.0883 33.7575C82.1848 34.1879 82.2841 34.599 82.3865 34.993C82.5144 35.4846 82.4359 35.9794 82.575 36.4227C82.7732 37.0544 83.3539 37.2418 83.5801 37.7981C83.8265 38.4043 83.6102 39.0468 83.8975 39.5967C84.1969 40.1699 84.8849 40.1748 85.2376 40.7252C85.5493 41.2118 85.4771 42.0261 85.8371 42.5238C86.0029 42.7531 86.3111 42.8533 86.4895 43.1057C86.6425 43.3223 86.6641 43.6903 86.8245 43.8992C87.1196 44.2835 87.7893 45.1335 88.1155 45.5482M88.1155 45.5482C90.0176 49.7083 90.0755 52.1283 89.5591 56.4911M88.1155 45.5482C88.2729 45.266 88.4268 44.9888 88.5773 44.7161C88.7662 44.3739 89.1675 44.2281 89.346 43.8992C89.5018 43.6122 89.3387 42.802 89.4871 42.5238C89.6483 42.2216 90.198 42.0237 90.3511 41.7303C90.518 41.4106 90.1931 40.7367 90.3511 40.4255C90.514 40.1046 91.1314 40.1048 91.2857 39.7907C91.5177 39.3185 91.2468 38.7553 91.462 38.2918C91.6567 37.8725 92.3367 37.6344 92.52 37.2162C92.7981 36.5815 92.2618 35.9783 92.52 35.3295C92.7122 34.8463 93.4988 34.7369 93.6838 34.2362C93.8502 33.7858 93.5208 33.3495 93.6838 32.8784C93.836 32.4384 94.4672 32.0367 94.6183 31.5736C94.7978 31.0236 94.4373 30.2947 94.6183 29.7045C94.707 29.4151 95.2879 28.9949 95.3775 28.6944C95.4673 28.3935 95.5576 28.0868 95.6487 27.7737C96.2292 27.341 96.5708 27.3667 97.1454 27.7737C105.659 38.1887 109.841 44.1071 96.0421 57.4826M89.5591 56.4911C90.3337 56.5012 91.189 56.4804 92.1604 56.4361C94.1147 56.4062 95.4132 56.5136 96.0421 57.4826" stroke="black"/>
<path d="M41.0169 87.0269L44.1833 83.0977L43.0694 82.0127L39.7852 85.0037C38.9085 85.7894 38.8256 86.25 39.7852 87.0269C40.3074 87.138 40.5699 87.1528 41.0169 87.0269Z" fill="#DF4030"/>
<path d="M41.0169 87.0269C40.5699 87.1528 40.3074 87.138 39.7852 87.0269L39.1325 89.3663L40.7715 90.9905L41.0169 87.0269Z" fill="#DF4030"/>
<path d="M40.7715 90.9905C40.0296 91.4453 39.6371 91.5468 38.7115 91.531C40.614 94.8786 42.1746 95.8317 45.5537 96.1088C46.0819 95.4504 43.102 93.2464 40.7715 90.9905Z" fill="#DF4030"/>
<path d="M40.7715 90.9905L39.1325 89.3663L38.4578 90.6859C38.4008 91.0393 38.4654 91.223 38.7115 91.531C39.6371 91.5468 40.0296 91.4453 40.7715 90.9905Z" fill="#DF4030"/>
<path d="M41.0169 87.0269L44.1833 83.0977L43.0694 82.0127L39.7852 85.0037C38.9085 85.7894 38.8256 86.25 39.7852 87.0269M41.0169 87.0269C40.5699 87.1528 40.3074 87.138 39.7852 87.0269M41.0169 87.0269L40.7715 90.9905M39.7852 87.0269L39.1325 89.3663M39.1325 89.3663L40.7715 90.9905M39.1325 89.3663L38.4578 90.6859C38.4008 91.0393 38.4654 91.223 38.7115 91.531M40.7715 90.9905C40.0296 91.4453 39.6371 91.5468 38.7115 91.531M40.7715 90.9905C43.102 93.2464 46.0819 95.4504 45.5537 96.1088C42.1746 95.8317 40.614 94.8786 38.7115 91.531" stroke="black"/>
<path d="M42.7799 81.704L37.5471 84.8918L35.6375 89.3195C37.373 92.855 39.8717 96.5981 38.9976 97.1332C35.2507 95.4276 33.8595 93.6972 33.0617 89.0904C32.9072 88.6373 32.9088 88.4008 33.1193 88.0205L34.4325 86.7901L36.1398 84.3855C35.3628 83.1035 35.6468 82.6112 36.9714 82.0739L41.9531 80.0065L42.7799 81.704Z" fill="#DF4030"/>
<path d="M37.5471 84.8918L42.7799 81.704L41.9531 80.0065L36.9714 82.0739C35.6468 82.6112 35.3628 83.1035 36.1398 84.3855M37.5471 84.8918C36.9846 84.852 36.6907 84.7272 36.1398 84.3855M37.5471 84.8918L35.6375 89.3195M36.1398 84.3855L34.4325 86.7901M34.4325 86.7901L35.6375 89.3195M34.4325 86.7901L33.1193 88.0205C32.9088 88.4008 32.9072 88.6373 33.0617 89.0904M35.6375 89.3195C34.6029 89.5342 34.1128 89.4889 33.0617 89.0904M35.6375 89.3195C37.373 92.855 39.8717 96.5981 38.9976 97.1332C35.2507 95.4276 33.8595 93.6972 33.0617 89.0904" stroke="black"/>
<path d="M42.2884 79.8992L35.5161 80.6053L31.4889 84.1399C31.546 88.5162 32.2705 93.4647 31.1379 93.5853C28.1895 90.0872 27.6176 87.6871 29.0123 82.6822C29.0732 82.1537 29.1875 81.9171 29.58 81.6356L31.4847 81.0264L34.3447 79.4263C34.1757 77.7689 34.6954 77.4101 36.2813 77.502L42.2675 77.8011L42.2884 79.8992Z" fill="#DF4030"/>
<path d="M35.5161 80.6053L42.2884 79.8992L42.2675 77.8011L36.2813 77.502C34.6954 77.4101 34.1757 77.7689 34.3447 79.4263M35.5161 80.6053C34.9704 80.2971 34.7349 80.0318 34.3447 79.4263M35.5161 80.6053L31.4889 84.1399M34.3447 79.4263L31.4847 81.0264M31.4847 81.0264L31.4889 84.1399M31.4847 81.0264L29.58 81.6356C29.1875 81.9171 29.0732 82.1537 29.0123 82.6822M31.4889 84.1399C30.348 83.8623 29.8776 83.5832 29.0123 82.6822M31.4889 84.1399C31.546 88.5162 32.2705 93.4647 31.1379 93.5853C28.1895 90.0872 27.6176 87.6871 29.0123 82.6822" stroke="black"/>
<path d="M75.1481 87.4095L71.9818 83.4802L73.0957 82.3953L76.3798 85.3862C77.2565 86.1719 77.3394 86.6326 76.3798 87.4095C75.8577 87.5206 75.5952 87.5354 75.1481 87.4095Z" fill="#DF4030"/>
<path d="M75.1481 87.4095C75.5952 87.5354 75.8577 87.5206 76.3798 87.4095L77.0326 89.7489L75.3936 91.373L75.1481 87.4095Z" fill="#DF4030"/>
<path d="M75.3936 91.373L77.0326 89.7489L77.7072 91.0685C77.7643 91.4218 77.6996 91.6055 77.4536 91.9136C76.5279 91.9293 76.1355 91.8279 75.3936 91.373Z" fill="#DF4030"/>
<path d="M75.3936 91.373C76.1355 91.8279 76.5279 91.9293 77.4536 91.9136C75.551 95.2612 73.9905 96.2142 70.6114 96.4914C70.0832 95.833 73.0631 93.629 75.3936 91.373Z" fill="#DF4030"/>
<path d="M75.1481 87.4095L71.9818 83.4802L73.0957 82.3953L76.3798 85.3862C77.2565 86.1719 77.3394 86.6326 76.3798 87.4095M75.1481 87.4095C75.5952 87.5354 75.8577 87.5206 76.3798 87.4095M75.1481 87.4095L75.3936 91.373M76.3798 87.4095L77.0326 89.7489M77.0326 89.7489L75.3936 91.373M77.0326 89.7489L77.7072 91.0685C77.7643 91.4218 77.6996 91.6055 77.4536 91.9136M75.3936 91.373C76.1355 91.8279 76.5279 91.9293 77.4536 91.9136M75.3936 91.373C73.0631 93.629 70.0832 95.833 70.6114 96.4914C73.9905 96.2142 75.551 95.2612 77.4536 91.9136" stroke="black"/>
<path d="M78.6179 85.2744L73.3852 82.0866L74.2119 80.3891L79.1936 82.4565C80.5182 82.9938 80.8023 83.4861 80.0252 84.7681C79.4743 85.1097 79.1804 85.2345 78.6179 85.2744Z" fill="#DF4030"/>
<path d="M78.6179 85.2744C79.1804 85.2345 79.4743 85.1097 80.0252 84.7681L81.7326 87.1727L80.5275 89.7021L78.6179 85.2744Z" fill="#DF4030"/>
<path d="M80.5275 89.7021L81.7326 87.1727L83.0458 88.4031C83.2562 88.7834 83.2578 89.0198 83.1033 89.4729C82.0522 89.8714 81.5621 89.9168 80.5275 89.7021Z" fill="#DF4030"/>
<path d="M80.5275 89.7021C81.5621 89.9168 82.0522 89.8714 83.1033 89.4729C82.3055 94.0798 80.9143 95.8101 77.1674 97.5158C76.2933 96.9806 78.7921 93.2376 80.5275 89.7021Z" fill="#DF4030"/>
<path d="M78.6179 85.2744L73.3852 82.0866L74.2119 80.3891L79.1936 82.4565C80.5182 82.9938 80.8023 83.4861 80.0252 84.7681M78.6179 85.2744C79.1804 85.2345 79.4743 85.1097 80.0252 84.7681M78.6179 85.2744L80.5275 89.7021M80.0252 84.7681L81.7326 87.1727M81.7326 87.1727L80.5275 89.7021M81.7326 87.1727L83.0458 88.4031C83.2562 88.7834 83.2578 89.0198 83.1033 89.4729M80.5275 89.7021C81.5621 89.9168 82.0522 89.8714 83.1033 89.4729M80.5275 89.7021C78.7921 93.2376 76.2933 96.9806 77.1674 97.5158C80.9143 95.8101 82.3055 94.0798 83.1033 89.4729" stroke="black"/>
<path d="M80.978 80.6052L74.2057 79.8992L74.2266 77.8011L80.2129 77.502C81.7987 77.4101 82.3185 77.7689 82.1495 79.4262C81.7592 80.0317 81.5237 80.2971 80.978 80.6052Z" fill="#DF4030"/>
<path d="M80.978 80.6052C81.5237 80.2971 81.7592 80.0317 82.1495 79.4262L85.0095 81.0264L85.0052 84.1399L80.978 80.6052Z" fill="#DF4030"/>
<path d="M85.0052 84.1399L85.0095 81.0264L86.9141 81.6356C87.3066 81.9171 87.421 82.1536 87.4818 82.6821C86.6165 83.5832 86.1462 83.8623 85.0052 84.1399Z" fill="#DF4030"/>
<path d="M85.0052 84.1399C86.1462 83.8623 86.6165 83.5832 87.4818 82.6821C88.8766 87.687 88.3047 90.0871 85.3562 93.5852C84.2237 93.4646 84.9481 88.5161 85.0052 84.1399Z" fill="#DF4030"/>
<path d="M80.978 80.6052L74.2057 79.8992L74.2266 77.8011L80.2129 77.502C81.7987 77.4101 82.3185 77.7689 82.1495 79.4262M80.978 80.6052C81.5237 80.2971 81.7592 80.0317 82.1495 79.4262M80.978 80.6052L85.0052 84.1399M82.1495 79.4262L85.0095 81.0264M85.0095 81.0264L85.0052 84.1399M85.0095 81.0264L86.9141 81.6356C87.3066 81.9171 87.421 82.1536 87.4818 82.6821M85.0052 84.1399C86.1462 83.8623 86.6165 83.5832 87.4818 82.6821M85.0052 84.1399C84.9481 88.5161 84.2237 93.4646 85.3562 93.5852C88.3047 90.0871 88.8766 87.687 87.4818 82.6821" stroke="black"/>
<path d="M58.0085 87.6307C46.917 86.6672 41.6044 84.7678 39.0645 73.2465C43.6401 71.5021 45.7118 69.7908 50.4087 67.0436C55.1056 64.2965 61.0469 64.5406 65.7045 67.0436C70.3621 69.5466 72.7223 70.7478 77.7344 72.2784C74.4991 83.9597 70.1041 87.2429 58.0085 87.6307Z" fill="#DF4030" stroke="black"/>
<path d="M65.8271 58.9709C68.402 58.9709 70.4891 61.0582 70.4893 63.6331C70.4893 66.208 68.4021 68.2961 65.8271 68.2961C63.2523 68.296 61.165 66.208 61.165 63.6331C61.1652 61.0583 63.2524 58.9711 65.8271 58.9709Z" fill="#DF4030" stroke="black"/>
<path d="M70.0525 64.3137C70.0525 66.7889 68.0459 68.7955 65.5707 68.7955C63.0954 68.7955 61.0889 66.7889 61.0889 64.3137C61.0889 61.8384 63.0954 59.8318 65.5707 59.8318C68.0459 59.8318 70.0525 61.8384 70.0525 64.3137Z" fill="white"/>
<path d="M65.5752 61.3391C63.9326 61.3391 62.6006 62.6711 62.6006 64.3137C62.6008 65.9562 63.9327 67.2874 65.5752 67.2874C67.2175 67.2872 68.5486 65.956 68.5488 64.3137C68.5488 63.949 68.4804 63.6004 68.3604 63.2776C68.1364 63.6422 67.7347 63.886 67.2754 63.886C66.5722 63.8859 66.002 63.3158 66.002 62.6125C66.002 62.153 66.2463 61.7515 66.6113 61.5276C66.2884 61.4074 65.94 61.3392 65.5752 61.3391Z" fill="black"/>
<path d="M48.2314 59.6506C45.6566 59.6506 43.5695 61.7379 43.5693 64.3127C43.5693 66.8877 45.6565 68.9758 48.2314 68.9758C50.8063 68.9757 52.8936 66.8877 52.8936 64.3127C52.8934 61.738 50.8062 59.6507 48.2314 59.6506Z" fill="#DF4030" stroke="black"/>
<path d="M44.0022 64.9938C44.0022 67.4691 46.0088 69.4757 48.484 69.4757C50.9592 69.4757 52.9658 67.4691 52.9658 64.9938C52.9658 62.5186 50.9592 60.512 48.484 60.512C46.0088 60.512 44.0022 62.5186 44.0022 64.9938Z" fill="white"/>
<path d="M48.4844 62.0198C50.127 62.0198 51.459 63.3518 51.459 64.9944C51.4588 66.6368 50.1268 67.968 48.4844 67.968C46.8421 67.9678 45.5109 66.6367 45.5107 64.9944C45.5107 64.6297 45.5791 64.2811 45.6992 63.9583C45.9232 64.3229 46.3248 64.5667 46.7842 64.5667C47.4874 64.5666 48.0576 63.9965 48.0576 63.2932C48.0576 62.8336 47.8132 62.4322 47.4482 62.2083C47.7711 62.0881 48.1196 62.0198 48.4844 62.0198Z" fill="black"/>
<g filter="url(#filter0_d_2041_4013)">
<path d="M51.4648 73.2986C51.6514 73.4428 51.8312 73.5794 52.0172 73.7152C53.6876 74.9162 55.5655 76.0033 57.7689 76.1966C60.0108 76.4174 62.0833 75.2133 63.5315 73.7889C63.7014 73.627 63.8584 73.468 64.0215 73.2986C63.8174 73.4155 63.6228 73.5235 63.4191 73.6356C61.6236 74.6351 59.7516 75.3883 57.8457 75.1995C55.9377 75.0412 54.0307 74.2786 52.1083 73.5484C51.8945 73.4659 51.6843 73.3849 51.4648 73.2986Z" fill="black"/>
</g>
<ellipse cx="0.378213" cy="0.378218" rx="0.378213" ry="0.378218" transform="matrix(-0.96448 0.264154 0.264144 0.964483 53.1221 84.8682)" fill="black" fill-opacity="0.62"/>
<ellipse cx="0.699916" cy="0.699925" rx="0.699916" ry="0.699925" transform="matrix(-0.964481 0.264153 0.264146 0.964483 50.5469 83.4895)" fill="black" fill-opacity="0.62"/>
<ellipse cx="0.46826" cy="0.468266" rx="0.46826" ry="0.468266" transform="matrix(-0.96448 0.264154 0.264144 0.964483 49.1523 81.0637)" fill="black" fill-opacity="0.62"/>
<ellipse cx="0.781505" cy="0.781515" rx="0.781505" ry="0.781515" transform="matrix(-0.96448 0.264154 0.264144 0.964483 46.7314 82.5076)" fill="black" fill-opacity="0.62"/>
<ellipse cx="0.424455" cy="0.424461" rx="0.424455" ry="0.424461" transform="matrix(-0.96448 0.264154 0.264144 0.964483 45.5049 80.114)" fill="black" fill-opacity="0.62"/>
<ellipse cx="66.1868" cy="84.743" rx="0.378213" ry="0.378219" fill="black" fill-opacity="0.62"/>
<ellipse cx="68.6296" cy="83.0544" rx="0.699915" ry="0.699926" fill="black" fill-opacity="0.62"/>
<ellipse cx="69.0962" cy="80.116" rx="0.46826" ry="0.468267" fill="black" fill-opacity="0.62"/>
<ellipse cx="72.1253" cy="81.1814" rx="0.781504" ry="0.781516" fill="black" fill-opacity="0.62"/>
<ellipse cx="72.319" cy="78.192" rx="0.424455" ry="0.424462" fill="black" fill-opacity="0.62"/>
<ellipse cx="48.409" cy="74.5149" rx="2.11799" ry="1.89109" fill="#FFB5B5"/>
<ellipse cx="67.0809" cy="74.5149" rx="2.11799" ry="1.89109" fill="#FFB5B5"/>
<defs>
<filter id="filter0_d_2041_4013" x="47.4648" y="73.2986" width="20.5566" height="10.9243" filterUnits="userSpaceOnUse" color-interpolation-filters="sRGB">
<feFlood flood-opacity="0" result="BackgroundImageFix"/>
<feColorMatrix in="SourceAlpha" type="matrix" values="0 0 0 0 0 0 0 0 0 0 0 0 0 0 0 0 0 0 127 0" result="hardAlpha"/>
<feOffset dy="4"/>
<feGaussianBlur stdDeviation="2"/>
<feComposite in2="hardAlpha" operator="out"/>
<feColorMatrix type="matrix" values="0 0 0 0 0 0 0 0 0 0 0 0 0 0 0 0 0 0 0.25 0"/>
<feBlend mode="normal" in2="BackgroundImageFix" result="effect1_dropShadow_2041_4013"/>
<feBlend mode="normal" in="SourceGraphic" in2="effect1_dropShadow_2041_4013" result="shape"/>
</filter>
</defs>
</svg>
