<svg width="125" height="125" viewBox="0 0 125 125" fill="none" xmlns="http://www.w3.org/2000/svg">
<rect x="2.5" y="2.5" width="120" height="120" rx="60" stroke="#78B7B7" stroke-width="5"/>
<path d="M66.1138 86.6226C65.805 89.1634 66.3757 90.2511 70.5302 90.7714C70.5093 90.7231 70.4885 90.6751 70.4678 90.6273L70.4007 90.4723C68.8015 86.7777 67.8659 84.6162 66.1138 86.6226Z" fill="white"/>
<path d="M89.9359 95.1879C88.5393 93.122 86.4953 93.5565 82.1736 95.1879C82.4477 95.2842 82.7125 95.3791 82.9691 95.4711C85.8619 96.5082 87.7096 97.1706 89.9359 95.1879Z" fill="white"/>
<path d="M87.5269 83.4107C85.3916 82.3719 84.2252 83.0271 82.1736 85.1505C82.5378 85.1054 82.871 85.0763 83.1859 85.0489C84.618 84.9241 85.6712 84.8323 87.5269 83.4107Z" fill="white"/>
<path d="M88.5975 68.6892C88.5076 67.1273 88.4695 65.9587 88.6563 65.0698C84.6682 66.5083 83.4934 67.8359 83.1104 71.0981C83.3537 71.0714 83.5903 71.0464 83.8199 71.0222L83.8257 71.0216L83.8303 71.0211L83.8315 71.021C86.6008 70.7288 88.3587 70.5434 88.5975 68.6892Z" fill="white"/>
<path d="M94.2185 75.2469C90.5428 75.6109 89.8248 76.4015 92.4787 79.5295C92.4756 79.5105 92.4725 79.4916 92.4694 79.4728L92.4614 79.4243L92.4596 79.4129L92.4587 79.4077C92.2533 78.1583 92.101 77.2326 94.2185 75.2469Z" fill="white"/>
<path d="M89.9359 71.9732C93.3489 71.6927 95.2732 71.2578 98.7688 68.6892C96.2781 67.065 94.1911 68.6809 90.8606 71.2597L90.8601 71.2601C90.5624 71.4906 90.2547 71.7289 89.9359 71.9732Z" fill="white"/>
<path d="M93.2816 58.7856C92.705 57.4855 92.2699 56.4475 92.0416 55.5758C90.0217 57.8184 89.5599 59.3056 90.6583 62.617C92.7473 60.9137 93.8317 59.8742 93.2816 58.7856Z" fill="white"/>
<path d="M97.1628 46.0716C96.3504 49.3021 95.034 50.5469 92.4787 52.6293C94.5556 47.2623 95.5806 45.7604 97.1628 46.0716Z" fill="white"/>
<path d="M54.4704 90.7656C58.6249 90.2452 59.1956 89.1576 58.8868 86.6168C54.0725 88.145 53.0986 89.0532 54.4704 90.7656Z" fill="white"/>
<path d="M51.1246 93.1745C49.7858 91.9094 48.0273 92.291 42.827 95.182C48.4311 96.7524 49.3255 95.5619 50.7192 93.7069L50.7194 93.7067L50.7196 93.7063C50.8489 93.5342 50.9825 93.3564 51.1246 93.1745Z" fill="white"/>
<path d="M42.827 85.1446C39.8724 81.6848 38.9319 82.0479 37.4737 83.4048C39.3294 84.8264 40.3826 84.9182 41.8147 85.043C42.1296 85.0704 42.4629 85.0995 42.827 85.1446Z" fill="white"/>
<path d="M32.5219 79.5237C35.7386 78.0387 35.0039 77.0839 30.7821 75.2411C32.8996 77.2267 32.7473 78.1525 32.5419 79.4018L32.5419 79.402L32.5418 79.4022L32.5418 79.4024L32.5418 79.4026C32.5352 79.4426 32.5286 79.483 32.5219 79.5237Z" fill="white"/>
<path d="M26.2318 68.6833C28.8371 70.5639 30.6944 71.3377 35.0724 71.9732C34.7512 71.7271 34.4413 71.4872 34.1415 71.255L34.1401 71.2539L34.14 71.2538C30.8095 68.675 28.7226 67.0591 26.2318 68.6833Z" fill="white"/>
<path d="M41.8902 71.0923C42.7408 69.7986 41.8526 69.2343 36.4031 68.6833C36.6419 70.5375 38.3998 70.723 41.1691 71.0151L41.1703 71.0152L41.175 71.0157L41.1802 71.0163L41.1829 71.0165L41.1845 71.0167L41.1886 71.0171C41.4157 71.0411 41.6497 71.0658 41.8902 71.0923Z" fill="white"/>
<path d="M31.719 58.7797C31.1086 59.9877 32.5106 61.1352 35.0648 63.1962C34.1798 59.3814 33.3469 58.9105 31.719 58.7797Z" fill="white"/>
<path fill-rule="evenodd" clip-rule="evenodd" d="M62.5003 28.5337C73.5007 29.5351 77.4878 32.5734 80.1661 42.9934C81.6113 52.3888 79.7464 57.0453 75.2143 65.0757C74.7066 67.2049 74.8412 67.9924 78.0248 66.5478C83.3387 63.2589 85.1085 60.3091 87.5269 54.3691C94.2092 43.3557 98.4801 39.898 97.1628 46.0716C95.5806 45.7604 94.5556 47.2623 92.4787 52.6293C91.8078 53.4606 91.7219 54.3551 92.0416 55.5758C90.0217 57.8184 89.5599 59.3056 90.6583 62.617C90.4293 62.8037 90.1882 62.9984 89.9359 63.202C89.2107 63.6387 88.833 64.2292 88.6563 65.0698C84.6682 66.5083 83.4934 67.8359 83.1104 71.0981C76.5744 73.582 78.9148 77.3945 85.2517 75.2469C87.0665 74.129 88.5989 72.9977 89.9359 71.9732C93.3489 71.6927 95.2732 71.2578 98.7688 68.6892C102.984 70.2327 102.117 71.041 97.9658 72.4365C96.8828 72.2535 96.0513 72.9062 94.2185 75.2469C90.5428 75.6109 89.8248 76.4015 92.4787 79.5295C91.3837 82.7835 90.2006 82.9686 88.5585 83.2254C88.2336 83.2762 87.8907 83.3299 87.5269 83.4107C85.3916 82.3719 84.2252 83.0271 82.1736 85.1505C79.5293 85.9693 79.0008 85.0704 78.0977 83.5346C78.0737 83.4937 78.0494 83.4524 78.0248 83.4107L77.9297 83.3501C74.7061 81.2972 72.8694 80.1274 76.9542 86.6226C81.4506 91.1231 84.433 91.6246 89.9359 91.7083C94.5567 92.1455 93.5671 93.1048 89.9359 95.1879C88.5393 93.122 86.4953 93.5565 82.1736 95.1879C76.5695 96.7582 75.6751 95.5677 74.2814 93.7127L74.2811 93.7123L74.2802 93.7111C74.1511 93.5393 74.0178 93.3619 73.876 93.1804C72.9667 91.8717 72.2511 91.3248 70.5302 90.7714L70.4678 90.6273L70.4007 90.4723C68.8015 86.7777 67.8659 84.6162 66.1138 86.6226C65.5693 84.8393 64.7189 84.1658 62.5003 83.4048C60.2817 84.1658 59.4313 84.8335 58.8868 86.6168C54.0725 88.145 53.0986 89.0532 54.4704 90.7656C52.7495 91.3189 52.0339 91.8658 51.1246 93.1745C49.7858 91.9094 48.0273 92.291 42.827 95.182C42.5529 95.2783 42.2881 95.3733 42.0315 95.4653C39.1387 96.5023 37.291 97.1647 35.0648 95.182C31.4335 93.0989 30.4439 92.1396 35.0648 91.7024C40.5676 91.6188 43.55 91.1173 48.0464 86.6168C52.1312 80.1216 50.2945 81.2913 47.0709 83.3443L46.9758 83.4048C46.9512 83.4465 46.9269 83.4879 46.9029 83.5287C45.9998 85.0646 45.4713 85.9634 42.827 85.1446C39.8724 81.6848 38.9319 82.0479 37.4737 83.4048C37.11 83.324 36.767 83.2704 36.4421 83.2195C34.8 82.9627 33.6169 82.7776 32.5219 79.5237C35.7386 78.0387 35.0039 77.0839 30.7821 75.2411C28.9493 72.9004 28.1178 72.2476 27.0348 72.4306C22.8832 71.0352 22.0168 70.2268 26.2318 68.6833C28.8371 70.5639 30.6944 71.3377 35.0724 71.9732C36.4076 72.9962 37.9376 74.1252 39.7489 75.2411C46.0858 77.3886 48.4262 73.5761 41.8902 71.0923C42.7408 69.7986 41.8526 69.2343 36.4031 68.6833C36.578 65.6443 36.5567 64.0945 35.0648 63.1962C34.1798 59.3814 33.3469 58.9105 31.719 58.7797C33.1031 55.6588 33.6718 54.0484 32.5219 52.6235C32.4987 49.8114 30.9966 48.4418 27.8378 46.0657C26.5205 39.8921 30.7914 43.3498 37.4737 54.3633C39.8921 60.3033 41.6619 63.253 46.9758 66.542C50.1594 67.9866 50.294 67.199 49.7863 65.0698C45.2542 57.0394 43.3893 52.383 44.8345 42.9875C47.5128 32.5676 51.4999 29.5351 62.5003 28.5337Z" fill="#9EA0FF"/>
<path d="M27.8378 46.0657C28.6502 49.2963 29.9666 50.5411 32.5219 52.6235C32.4987 49.8114 30.9966 48.4418 27.8378 46.0657Z" fill="white"/>
<path d="M97.1628 46.0716C98.4801 39.898 94.2092 43.3557 87.5269 54.3691C85.1085 60.3091 83.3387 63.2589 78.0248 66.5478C74.8412 67.9924 74.7066 67.2049 75.2143 65.0757C79.7464 57.0453 81.6113 52.3888 80.1661 42.9934C77.4878 32.5734 73.5007 29.5351 62.5003 28.5337C51.4999 29.5351 47.5128 32.5676 44.8345 42.9875C43.3893 52.383 45.2542 57.0394 49.7863 65.0698C50.294 67.199 50.1594 67.9866 46.9758 66.542C41.6619 63.253 39.8921 60.3033 37.4737 54.3633C30.7914 43.3498 26.5205 39.8921 27.8378 46.0657M97.1628 46.0716C96.3504 49.3021 95.034 50.5469 92.4787 52.6293M97.1628 46.0716C95.5806 45.7604 94.5556 47.2623 92.4787 52.6293M92.4787 52.6293C91.8078 53.4606 91.7219 54.3551 92.0416 55.5758M83.1104 71.0981C76.5744 73.582 78.9148 77.3945 85.2517 75.2469C87.0665 74.129 88.5989 72.9977 89.9359 71.9732M83.1104 71.0981C83.4934 67.8359 84.6682 66.5083 88.6563 65.0698M83.1104 71.0981C83.3537 71.0714 83.5903 71.0464 83.8199 71.0222M98.7688 68.6892C102.984 70.2327 102.117 71.041 97.9658 72.4364C96.8828 72.2535 96.0513 72.9062 94.2185 75.2469M98.7688 68.6892C95.2732 71.2578 93.3489 71.6927 89.9359 71.9732M98.7688 68.6892C96.2781 67.065 94.1911 68.6809 90.8606 71.2597M94.2185 75.2469C90.5428 75.6109 89.8248 76.4015 92.4787 79.5295M94.2185 75.2469C92.101 77.2326 92.2533 78.1583 92.4587 79.4077M92.4787 79.5295C91.3837 82.7835 90.2006 82.9686 88.5586 83.2254C88.2336 83.2762 87.8907 83.3299 87.5269 83.4107M92.4787 79.5295C92.4756 79.5105 92.4725 79.4916 92.4694 79.4728M87.5269 83.4107C85.3916 82.3719 84.2252 83.0271 82.1736 85.1505M87.5269 83.4107C85.6712 84.8323 84.618 84.9241 83.1859 85.0489C82.871 85.0763 82.5377 85.1053 82.1736 85.1505M82.1736 85.1505C79.5293 85.9693 79.0008 85.0704 78.0977 83.5346C78.0737 83.4937 78.0494 83.4524 78.0248 83.4107L77.9297 83.3501C74.7061 81.2972 72.8694 80.1274 76.9542 86.6226C81.4506 91.1231 84.433 91.6246 89.9359 91.7083C94.5567 92.1455 93.5671 93.1048 89.9359 95.1879M89.9359 95.1879C88.5393 93.122 86.4953 93.5565 82.1736 95.1879M89.9359 95.1879C87.7096 97.1706 85.8619 96.5082 82.9691 95.4711C82.7125 95.3791 82.4477 95.2842 82.1736 95.1879M82.1736 95.1879C76.5695 96.7582 75.6751 95.5677 74.2814 93.7127M70.5302 90.7714C72.2511 91.3248 72.9667 91.8717 73.876 93.1804C74.0178 93.3619 74.1511 93.5393 74.2802 93.7111M70.5302 90.7714C66.3757 90.2511 65.805 89.1634 66.1138 86.6226M70.5302 90.7714C70.5093 90.7231 70.4885 90.6751 70.4678 90.6273M70.5302 90.7714L70.4678 90.6273M66.1138 86.6226C65.5693 84.8393 64.7189 84.1658 62.5003 83.4048C60.2817 84.1658 59.4313 84.8335 58.8868 86.6168M66.1138 86.6226C67.8659 84.6162 68.8015 86.7777 70.4007 90.4723M27.8378 46.0657C28.6502 49.2963 29.9666 50.5411 32.5219 52.6235M27.8378 46.0657C30.9966 48.4418 32.4987 49.8114 32.5219 52.6235M32.5219 52.6235C33.6718 54.0484 33.1031 55.6588 31.719 58.7797M31.719 58.7797C31.1086 59.9877 32.5106 61.1352 35.0648 63.1962M31.719 58.7797C33.3469 58.9105 34.1798 59.3814 35.0648 63.1962M35.0648 63.1962C36.5567 64.0945 36.578 65.6443 36.4031 68.6833M36.4031 68.6833C41.8526 69.2343 42.7408 69.7986 41.8902 71.0923M36.4031 68.6833C36.6419 70.5375 38.3998 70.723 41.1691 71.0151M41.8902 71.0923C48.4262 73.5761 46.0858 77.3886 39.7489 75.2411C37.9376 74.1252 36.4076 72.9962 35.0724 71.9732M41.8902 71.0923C41.6497 71.0658 41.4157 71.0411 41.1886 71.0171M26.2318 68.6833C22.0168 70.2268 22.8832 71.0352 27.0348 72.4306C28.1178 72.2476 28.9493 72.9004 30.7821 75.2411M26.2318 68.6833C28.8371 70.5639 30.6944 71.3377 35.0724 71.9732M26.2318 68.6833C28.7226 67.0591 30.8095 68.675 34.14 71.2538L34.1401 71.2539M30.7821 75.2411C35.0039 77.0839 35.7386 78.0387 32.5219 79.5237M30.7821 75.2411C32.8996 77.2267 32.7473 78.1525 32.5419 79.4018L32.5419 79.402L32.5418 79.4022L32.5418 79.4024L32.5418 79.4026C32.5352 79.4426 32.5286 79.483 32.5219 79.5237M32.5219 79.5237C33.6169 82.7776 34.8 82.9627 36.4421 83.2195C36.767 83.2704 37.11 83.324 37.4737 83.4048M37.4737 83.4048C38.9319 82.0479 39.8724 81.6848 42.827 85.1446M37.4737 83.4048C39.3294 84.8264 40.3826 84.9182 41.8147 85.043C42.1296 85.0704 42.4629 85.0995 42.827 85.1446M42.827 85.1446C45.4713 85.9634 45.9998 85.0646 46.9029 83.5287C46.9269 83.4879 46.9512 83.4465 46.9758 83.4048L47.0709 83.3443C50.2945 81.2913 52.1312 80.1216 48.0464 86.6168C43.55 91.1173 40.5676 91.6188 35.0648 91.7024C30.4439 92.1396 31.4335 93.0989 35.0648 95.182C37.291 97.1647 39.1387 96.5023 42.0315 95.4653C42.2881 95.3733 42.5529 95.2783 42.827 95.182M42.827 95.182C48.0273 92.291 49.7858 91.9094 51.1246 93.1745M42.827 95.182C48.4311 96.7524 49.3255 95.5619 50.7192 93.7069L50.7194 93.7067M51.1246 93.1745C52.0339 91.8658 52.7495 91.3189 54.4704 90.7656M51.1246 93.1745C50.9825 93.3564 50.8489 93.5342 50.7196 93.7063M54.4704 90.7656C58.6249 90.2452 59.1956 89.1576 58.8868 86.6168M54.4704 90.7656C53.0986 89.0532 54.0725 88.145 58.8868 86.6168M88.6563 65.0698C88.833 64.2292 89.2107 63.6387 89.9359 63.202C90.1882 62.9984 90.4292 62.8037 90.6583 62.617M88.6563 65.0698C88.4695 65.9587 88.5076 67.1273 88.5975 68.6892C88.3587 70.5434 86.6008 70.7288 83.8315 71.021M92.0416 55.5758C92.2699 56.4475 92.705 57.4855 93.2816 58.7856C93.8317 59.8742 92.7473 60.9137 90.6583 62.617M92.0416 55.5758C90.0217 57.8184 89.5599 59.3056 90.6583 62.617M89.9359 71.9732C90.2547 71.7289 90.5624 71.4906 90.8601 71.2601M35.0724 71.9732C34.7512 71.7271 34.4413 71.4872 34.1415 71.255M41.1691 71.0151L41.1703 71.0152M41.1691 71.0151C41.1695 71.0151 41.1699 71.0152 41.1703 71.0152M70.4007 90.4723L70.4678 90.6273M70.4007 90.4723C70.4229 90.5236 70.4453 90.5753 70.4678 90.6273M74.2814 93.7127L74.2811 93.7123M74.2814 93.7127C74.2813 93.7126 74.2812 93.7125 74.2811 93.7123M92.4587 79.4077L92.4596 79.4129M92.4587 79.4077C92.459 79.4094 92.4593 79.4112 92.4596 79.4129M90.8606 71.2597L90.8601 71.2601M90.8606 71.2597C90.8604 71.2598 90.8603 71.26 90.8601 71.2601M83.8315 71.021L83.8303 71.0211M83.8315 71.021C83.8311 71.021 83.8307 71.021 83.8303 71.0211M83.8303 71.0211L83.8257 71.0216M83.8303 71.0211C83.8288 71.0212 83.8273 71.0214 83.8257 71.0216M74.2811 93.7123L74.2802 93.7111M74.2811 93.7123C74.2808 93.7119 74.2805 93.7115 74.2802 93.7111M50.7194 93.7067L50.7196 93.7063M50.7194 93.7067C50.7194 93.7065 50.7195 93.7064 50.7196 93.7063M34.1401 71.2539L34.1415 71.255M34.1401 71.2539C34.1406 71.2543 34.141 71.2546 34.1415 71.255M41.1703 71.0152L41.175 71.0157M41.1703 71.0152C41.1718 71.0154 41.1734 71.0155 41.175 71.0157M41.175 71.0157L41.1802 71.0163M41.175 71.0157C41.1767 71.0159 41.1785 71.0161 41.1802 71.0163M92.4596 79.4129L92.4614 79.4243M92.4596 79.4129C92.4602 79.4167 92.4608 79.4205 92.4614 79.4243M83.8257 71.0216L83.8199 71.0222M83.8257 71.0216C83.8238 71.0218 83.8219 71.022 83.8199 71.0222M92.4614 79.4243L92.4694 79.4728M92.4614 79.4243C92.4641 79.4404 92.4667 79.4565 92.4694 79.4728M41.1802 71.0163L41.1829 71.0165M41.1802 71.0163C41.1811 71.0164 41.182 71.0164 41.1829 71.0165M41.1829 71.0165L41.1845 71.0167M41.1829 71.0165C41.1834 71.0166 41.1839 71.0166 41.1845 71.0167M41.1845 71.0167L41.1886 71.0171M41.1845 71.0167C41.1858 71.0168 41.1872 71.017 41.1886 71.0171" stroke="black"/>
<path d="M74.6034 52.1049C74.6034 54.7727 72.4407 56.9354 69.7729 56.9354C67.1051 56.9354 64.9424 54.7727 64.9424 52.1049C64.9424 49.4371 67.1051 47.2744 69.7729 47.2744C72.4407 47.2744 74.6034 49.4371 74.6034 52.1049Z" fill="white"/>
<path d="M69.7705 48.8992C68.0003 48.8993 66.5654 50.3349 66.5654 52.1052C66.5656 53.8753 68.0004 55.3101 69.7705 55.3103C71.5408 55.3103 72.9763 53.8754 72.9766 52.1052C72.9766 51.711 72.9056 51.3329 72.7754 50.9841C72.5345 51.3795 72.1004 51.6443 71.6035 51.6443C70.8458 51.6441 70.2317 51.0299 70.2314 50.2722C70.2314 49.7754 70.4962 49.3412 70.8916 49.1003C70.5428 48.9702 70.1647 48.8992 69.7705 48.8992Z" fill="black"/>
<path d="M50.3986 52.1049C50.3986 54.7727 52.5613 56.9354 55.2291 56.9354C57.8969 56.9354 60.0596 54.7727 60.0596 52.1049C60.0596 49.4371 57.8969 47.2744 55.2291 47.2744C52.5613 47.2744 50.3986 49.4371 50.3986 52.1049Z" fill="white"/>
<path d="M55.2295 48.8992C56.9997 48.8994 58.4346 50.335 58.4346 52.1052C58.4343 53.8752 56.9995 55.31 55.2295 55.3103C53.4593 55.3103 52.0237 53.8754 52.0234 52.1052C52.0234 51.711 52.0945 51.3329 52.2246 50.9841C52.4655 51.3793 52.8989 51.6441 53.3955 51.6443C54.1535 51.6443 54.7686 51.0293 54.7686 50.2712C54.7684 49.7747 54.5036 49.3412 54.1084 49.1003C54.4572 48.9702 54.8353 48.8992 55.2295 48.8992Z" fill="black"/>
</svg>
