<svg width="125" height="125" viewBox="0 0 125 125" fill="none" xmlns="http://www.w3.org/2000/svg">
<rect x="2.5" y="2.5" width="120" height="120" rx="60" stroke="#78B7B7" stroke-width="5"/>
<path fill-rule="evenodd" clip-rule="evenodd" d="M42.9429 28.3771C33.6178 41.8783 30.6719 49.149 40.0491 60.1967H84.2291C93.6554 49.1929 92.6661 42.159 81.8624 28.3771C76.2569 22.6616 73.0495 19.5283 62.1395 19.173C53.968 19.165 49.7038 20.816 42.9429 28.3771Z" fill="#A5D1F1"/>
<path d="M48.8236 64.6741L48.8028 64.7525C47.8657 68.2844 47.3358 70.2816 46.121 72.476C38.5621 84.5879 41.9771 89.3232 48.8236 97.5668C50.2566 99.1019 51.6724 99.2819 53.0528 98.3226C53.8515 97.8513 53.7801 96.9474 52.7771 95.8933C44.737 89.4879 46.1022 84.2362 47.6792 77.1571C49.3107 71.9148 50.6583 69.7232 52.7771 65.3222C51.7623 65.8888 50.6586 65.8667 48.8236 64.6741Z" fill="#A5D1F1"/>
<path d="M59.7152 63.852C57.7786 62.5784 56.4143 62.5853 54.5822 63.852C56.1723 75.6194 54.6432 79.9709 48.8236 84.6378C47.7214 85.9378 47.7334 86.8119 48.8236 87.6095C50.2459 88.476 51.4997 88.4714 52.7771 87.0788C60.0093 81.4466 60.5519 75.6236 59.7152 63.852Z" fill="#A5D1F1"/>
<path d="M66.2643 63.852C64.984 64.742 63.9901 65.245 62.909 65.2106C57.1192 82.556 56.8435 91.4323 66.8445 104.268C68.2473 105.866 69.0245 106.364 70.3895 105.155C71.6346 104.103 71.554 103.433 70.3895 102.093C58.5526 89.4273 63.5085 85.0636 64.8304 75.5061C65.4928 70.198 65.7433 67.9274 66.2643 63.852Z" fill="#A5D1F1"/>
<path d="M70.3895 64.2704C63.8413 73.7894 64.0104 79.1308 72.793 88.6564C74.4546 89.9884 75.1357 90.1163 75.6142 89.346C76.2672 88.3422 76.1885 87.8571 75.6142 87.0788C67.6608 78.6565 69.6742 73.8632 72.5722 65.3222C71.9503 65.1769 71.2433 64.8485 70.3895 64.2704Z" fill="#A5D1F1"/>
<path d="M80.2473 63.852C78.8405 63.0798 78.0878 62.8425 76.8843 63.852C76.4244 64.1235 76.0101 64.3914 75.6142 64.6267C75.2068 67.3809 75.1805 68.8487 76.4569 70.9567C83.5113 83.5032 80.5783 87.6471 74.7544 94.7918C73.4554 96.6849 73.1125 97.5938 74.7544 98.3226C76.6854 99.2573 77.5277 98.8836 78.9255 97.5668C86.7317 88.9022 87.2047 82.569 83.8628 77.1571C80.5138 72.0521 80.1005 69.1213 80.2473 63.852Z" fill="#A5D1F1"/>
<path d="M84.2291 60.1967H40.0491L38.3221 63.852C37.4316 65.5645 39.011 64.8468 42.9429 63.852C44.9149 62.9716 45.916 63.1678 47.6792 63.852C48.0908 64.1721 48.4707 64.4447 48.8236 64.6741C50.6586 65.8667 51.7623 65.8888 52.7771 65.3222C53.3537 65.0002 53.9017 64.488 54.5389 63.8926L54.5822 63.852C56.4143 62.5853 57.7786 62.5784 59.7152 63.852C60.9985 64.7596 61.9856 65.1812 62.909 65.2106C63.9901 65.245 64.984 64.742 66.2643 63.852C67.7545 62.81 68.5194 62.9502 69.8043 63.852C70.0069 64.004 70.2017 64.1432 70.3895 64.2704C71.2433 64.8485 71.9503 65.1769 72.5722 65.3222C73.7523 65.5979 74.6259 65.2142 75.6142 64.6267C76.0101 64.3914 76.4244 64.1235 76.8843 63.852C78.0878 62.8425 78.8405 63.0798 80.2473 63.852C87.1682 65.9124 88.0541 65.6072 87.1503 63.852L84.2291 60.1967Z" fill="#6F9ADA"/>
<path d="M40.0491 60.1967C30.6719 49.149 33.6178 41.8783 42.9429 28.3771C49.7038 20.816 53.968 19.165 62.1395 19.173C73.0495 19.5283 76.2569 22.6616 81.8624 28.3771C92.6661 42.159 93.6554 49.1929 84.2291 60.1967M40.0491 60.1967H84.2291M40.0491 60.1967L38.3221 63.852C37.4316 65.5645 39.011 64.8468 42.9429 63.852C44.9149 62.9716 45.916 63.1678 47.6792 63.852C48.0908 64.1721 48.4707 64.4447 48.8236 64.6741M84.2291 60.1967L87.1503 63.852C88.0541 65.6072 87.1682 65.9124 80.2473 63.852M54.5822 63.852C56.4143 62.5853 57.7786 62.5784 59.7152 63.852M54.5822 63.852C56.1723 75.6194 54.6432 79.9709 48.8236 84.6378C47.7214 85.9378 47.7334 86.8119 48.8236 87.6095C50.2459 88.476 51.4997 88.4714 52.7771 87.0788C60.0093 81.4466 60.5519 75.6236 59.7152 63.852M54.5822 63.852L54.5389 63.8926M54.5822 63.852C54.5677 63.8656 54.5533 63.8791 54.5389 63.8926M59.7152 63.852C60.9985 64.7596 61.9856 65.1812 62.909 65.2106M66.2643 63.852C67.7545 62.81 68.5194 62.9502 69.8043 63.852C70.0069 64.004 70.2017 64.1432 70.3895 64.2704M66.2643 63.852C64.984 64.742 63.9901 65.245 62.909 65.2106M66.2643 63.852C65.7433 67.9274 65.4928 70.198 64.8304 75.5061C63.5085 85.0636 58.5526 89.4273 70.3895 102.093C71.554 103.433 71.6346 104.103 70.3895 105.155C69.0245 106.364 68.2473 105.866 66.8445 104.268C56.8435 91.4323 57.1192 82.556 62.909 65.2106M80.2473 63.852C78.8405 63.0798 78.0878 62.8425 76.8843 63.852C76.4244 64.1235 76.0101 64.3914 75.6142 64.6267M80.2473 63.852C80.1005 69.1213 80.5138 72.0521 83.8628 77.1571C87.2047 82.569 86.7317 88.9022 78.9255 97.5668C77.5277 98.8836 76.6854 99.2573 74.7544 98.3226C73.1125 97.5938 73.4554 96.6849 74.7544 94.7918C80.5783 87.6471 83.5113 83.5032 76.4569 70.9567C75.1805 68.8487 75.2068 67.3809 75.6142 64.6267M48.8236 64.6741C50.6586 65.8667 51.7623 65.8888 52.7771 65.3222M48.8236 64.6741L48.8028 64.7525M48.8236 64.6741C48.8166 64.7003 48.8097 64.7264 48.8028 64.7525M52.7771 65.3222C50.6583 69.7232 49.3107 71.9148 47.6792 77.1571C46.1022 84.2362 44.737 89.4879 52.7771 95.8933C53.7801 96.9474 53.8515 97.8513 53.0528 98.3226C51.6724 99.2819 50.2566 99.1019 48.8236 97.5668C41.9771 89.3232 38.5621 84.5879 46.121 72.476C47.3358 70.2816 47.8657 68.2844 48.8028 64.7525M52.7771 65.3222C53.3537 65.0002 53.9017 64.488 54.5389 63.8926M70.3895 64.2704C63.8413 73.7894 64.0104 79.1308 72.793 88.6564C74.4546 89.9884 75.1357 90.1163 75.6142 89.346C76.2672 88.3422 76.1885 87.8571 75.6142 87.0788C67.6608 78.6565 69.6742 73.8632 72.5722 65.3222M70.3895 64.2704C71.2433 64.8485 71.9503 65.1769 72.5722 65.3222M72.5722 65.3222C73.7523 65.5979 74.6259 65.2142 75.6142 64.6267" stroke="black"/>
<path d="M74.5659 35.0308C74.5659 37.2322 72.7813 39.0169 70.5798 39.0169C68.3784 39.0169 66.5938 37.2322 66.5938 35.0308C66.5938 32.8293 68.3784 31.0447 70.5798 31.0447C72.7813 31.0447 74.5659 32.8293 74.5659 35.0308Z" fill="white"/>
<path d="M70.5811 32.3855C69.12 32.3855 67.9356 33.5699 67.9355 35.031C67.9355 36.4921 69.12 37.6765 70.5811 37.6765C72.042 37.6763 73.2266 36.492 73.2266 35.031C73.2266 34.7065 73.1655 34.3964 73.0586 34.1091C72.8594 34.4337 72.5025 34.651 72.0938 34.6511C71.4682 34.6511 70.961 34.1439 70.9609 33.5183C70.9609 33.1098 71.1777 32.7527 71.502 32.5535C71.2149 32.4467 70.9053 32.3855 70.5811 32.3855Z" fill="black"/>
<path d="M50.4302 35.0308C50.4302 37.2322 52.2148 39.0169 54.4163 39.0169C56.6177 39.0169 58.4023 37.2322 58.4023 35.0308C58.4023 32.8293 56.6177 31.0447 54.4163 31.0447C52.2148 31.0447 50.4302 32.8293 50.4302 35.0308Z" fill="white"/>
<path d="M54.417 32.3855C55.8781 32.3855 57.0625 33.5699 57.0625 35.031C57.0625 36.4921 55.8781 37.6765 54.417 37.6765C52.9561 37.6763 51.7715 36.492 51.7715 35.031C51.7715 34.7065 51.8325 34.3964 51.9395 34.1091C52.1386 34.4337 52.4956 34.651 52.9043 34.6511C53.5299 34.6511 54.0371 34.1439 54.0371 33.5183C54.0371 33.1098 53.8204 32.7527 53.4961 32.5535C53.7832 32.4467 54.0927 32.3855 54.417 32.3855Z" fill="black"/>
<g filter="url(#filter0_d_2070_245)">
<path d="M56.2207 47.0542C56.4072 47.1985 56.5871 47.335 56.773 47.4708C58.4434 48.6719 60.3214 49.7589 62.5247 49.9522C64.7666 50.173 66.8392 48.9689 68.2873 47.5445C68.4573 47.3826 68.6143 47.2236 68.7774 47.0542C68.5733 47.1711 68.3787 47.2791 68.175 47.3912C66.3795 48.3907 64.5074 49.1439 62.6016 48.9551C60.6935 48.7968 58.7866 48.0342 56.8641 47.304C56.6504 47.2215 56.4402 47.1405 56.2207 47.0542Z" fill="black"/>
</g>
<defs>
<filter id="filter0_d_2070_245" x="52.2207" y="47.0542" width="20.5566" height="10.9243" filterUnits="userSpaceOnUse" color-interpolation-filters="sRGB">
<feFlood flood-opacity="0" result="BackgroundImageFix"/>
<feColorMatrix in="SourceAlpha" type="matrix" values="0 0 0 0 0 0 0 0 0 0 0 0 0 0 0 0 0 0 127 0" result="hardAlpha"/>
<feOffset dy="4"/>
<feGaussianBlur stdDeviation="2"/>
<feComposite in2="hardAlpha" operator="out"/>
<feColorMatrix type="matrix" values="0 0 0 0 0 0 0 0 0 0 0 0 0 0 0 0 0 0 0.25 0"/>
<feBlend mode="normal" in2="BackgroundImageFix" result="effect1_dropShadow_2070_245"/>
<feBlend mode="normal" in="SourceGraphic" in2="effect1_dropShadow_2070_245" result="shape"/>
</filter>
</defs>
</svg>
