<svg width="125" height="125" viewBox="0 0 125 125" fill="none" xmlns="http://www.w3.org/2000/svg">
<rect x="2.5" y="2.5" width="120" height="120" rx="60" stroke="#78B7B7" stroke-width="5"/>
<path fill-rule="evenodd" clip-rule="evenodd" d="M20.2578 48.6707C31.0065 67.3987 67.6184 64.2524 73.7071 63.3433C79.7957 62.4341 81.2119 64.252 81.9886 66.908C83.798 72.4745 77.5325 73.9026 69.0569 77.0775C64.1884 79.0835 61.3527 79.3477 56.0031 77.6786C45.6182 75.2425 40.7134 76.0761 34.0838 82.5694C51.4995 82.5119 59.1933 83.2773 59.0381 89.9901C59.2072 96.5384 58.5204 99.6501 57.0148 105C62.4445 102.425 64.6671 100.032 66.1197 92.8571C66.662 84.3036 69.9769 83.7614 75.7304 82.5694C94.7755 80.1864 103.326 74.2856 104.722 64.3109C105.171 46.3879 98.3172 39.3175 82.6434 32.8174L80.1346 32.6064C75.3871 31.6835 72.6652 31.4336 67.6546 31.5564L64.6022 31.2996C45.5223 32.5944 35.2364 34.6063 20.2578 48.6707ZM77.1726 61.1989L53.4496 61.9125C48.0356 61.4406 43.6813 60.8253 39.7058 59.5382C37.4146 58.7963 35.2491 57.8313 33.0791 56.542C30.272 54.8741 27.4572 52.6635 24.3526 49.6911C24.0072 49.3605 23.6583 49.0204 23.3054 48.6707C33.1857 40.4871 39.363 37.1223 52.2902 34.7939C64.0664 32.999 70.7876 32.4582 83.8237 35.5075C94.5059 39.5309 99.1949 43.8254 102.055 52.2783C104.011 62.5282 104.02 66.8777 98.9335 72.7064C91.687 78.6876 85.5636 80.5026 72.981 81.0026C69.0763 81.9257 66.7598 81.9705 64.6022 89.3879C63.728 95.171 62.4871 97.0447 60.406 100.628C63.9324 84.3032 58.315 80.8214 40.6963 80.2889C47.6334 78.4511 51.2594 78.3438 57.1062 80.2889C60.2338 81.2305 62.134 81.4005 66.1197 80.2889C72.6359 78.7429 76.2128 77.6405 81.9886 73.8661C83.3729 72.9995 84.4167 71.085 84.5383 68.3108C84.4734 66.3678 84.1176 64.8293 83.3368 63.6872C83.2528 63.5734 83.1668 63.4588 83.0788 63.3433C81.9481 61.9674 80.0773 61.2585 77.1726 61.1989Z" fill="#257AFA"/>
<path d="M81.9886 73.8661C76.2128 77.6405 72.6359 78.7429 66.1197 80.2889C62.134 81.4005 60.2338 81.2305 57.1062 80.2889C51.2594 78.3438 47.6334 78.4511 40.6963 80.2889C58.315 80.8214 63.9324 84.3032 60.406 100.628C62.4871 97.0447 63.728 95.171 64.6022 89.3879C66.7598 81.9705 69.0763 81.9257 72.981 81.0026C85.5636 80.5026 91.687 78.6876 98.9335 72.7064C104.02 66.8777 104.011 62.5282 102.055 52.2783C99.1949 43.8254 94.5059 39.5309 83.8237 35.5075C70.7876 32.4582 64.0664 32.999 52.2902 34.7939C39.363 37.1223 33.1857 40.4871 23.3054 48.6707C23.6583 49.0204 24.0072 49.3605 24.3526 49.6911C29.6871 48.1353 32.8953 47.487 39.2599 46.9687C43.9295 46.1175 46.5945 45.8827 50.8946 43.1502C54.6567 41.9743 56.7435 41.3453 59.9842 40.8469C65.4839 40.0518 68.72 39.795 75.7304 40.8469C82.0313 42.5926 85.6295 43.3704 91.0708 47.7567C95.4526 51.7106 98.0613 53.7881 99.8574 60.0004C100.434 63.2656 99.7898 66.4274 96.464 70.9712C91.048 76.8859 87.3627 78.4912 80.1346 79.6081C86.9004 71.8477 86.8805 68.4877 83.3368 63.6872C84.1176 64.8293 84.4734 66.3678 84.5383 68.3108C84.4167 71.085 83.3729 72.9995 81.9886 73.8661Z" fill="#6F9ADA"/>
<path d="M53.4496 61.9125L77.1726 61.1989C80.0773 61.2585 81.9481 61.9674 83.0788 63.3433C83.1695 63.4536 83.2555 63.5683 83.3368 63.6872C86.8805 68.4877 86.9004 71.8477 80.1346 79.6081C87.3627 78.4912 91.048 76.8859 96.464 70.9712C99.7898 66.4274 100.434 63.2656 99.8574 60.0004C98.0613 53.7881 95.4526 51.7106 91.0708 47.7567C85.6295 43.3704 82.0313 42.5926 75.7304 40.8469C68.72 39.795 65.4839 40.0518 59.9842 40.8469C56.7435 41.3453 54.6567 41.9743 50.8946 43.1502C46.5945 45.8827 43.9295 46.1175 39.2599 46.9687C32.8953 47.487 29.6871 48.1353 24.3526 49.6911C27.4572 52.6635 30.272 54.8741 33.0791 56.542C33.4286 56.1523 33.7754 55.7997 34.1244 55.4803C34.5795 55.0638 35.0385 54.7039 35.5128 54.3918C36.0076 54.0663 36.519 53.793 37.0599 53.5621C37.7384 53.2725 38.4633 53.0498 39.2599 52.8748C39.8465 52.746 40.4721 52.643 41.1468 52.5582C41.8314 52.4722 42.5667 52.405 43.363 52.3485C43.7208 52.3232 44.091 52.3 44.4744 52.2783L45.4927 52.3115L47.5269 52.378L49.4087 52.4395L51.2289 52.499L52.7168 52.5476L59.9842 52.7851C47.2668 54.6613 42.7042 56.1228 39.7058 59.5382C43.6813 60.8253 48.0356 61.4406 53.4496 61.9125Z" fill="#A4C7FD"/>
<path d="M82.6434 32.8174C81.4809 28.6909 82.2258 25.6212 83.8237 20C75.631 22.3427 71.3208 24.5052 64.6022 31.2996L67.6546 31.5564C72.3612 26.9158 75.2871 25.2877 80.74 23.1971C79.7052 26.7694 79.2576 28.7893 80.1346 32.6064L82.6434 32.8174Z" fill="#257AFA"/>
<path d="M80.74 23.1971C75.2871 25.2877 72.3612 26.9158 67.6546 31.5564C72.6652 31.4336 75.3871 31.6835 80.1346 32.6064C79.2576 28.7893 79.7052 26.7694 80.74 23.1971Z" fill="#6F9ADA"/>
<path d="M33.0791 56.542H34.5117L34.1244 55.4803C33.7754 55.7997 33.4286 56.1523 33.0791 56.542Z" fill="white"/>
<path d="M34.1244 55.4803L35.5128 55.7816V54.3918C35.0385 54.7039 34.5795 55.0638 34.1244 55.4803Z" fill="white"/>
<path fill-rule="evenodd" clip-rule="evenodd" d="M45.4927 52.3115L44.4744 53.3542L43.363 52.3485L42.9147 53.5621L41.1468 52.5582L40.7609 53.9004L39.2599 52.8748L38.9104 54.3918L37.0599 53.5621V54.932L35.5128 54.3918V55.7816L34.1244 55.4803L34.5117 56.542H33.0791C35.2491 57.8313 37.4146 58.7963 39.7058 59.5382C42.7042 56.1228 47.2668 54.6613 59.9842 52.7851L52.7168 52.5476L52.0458 53.3542L51.2289 52.499L50.347 53.3542L49.4087 52.4395L48.3449 53.3542L47.5269 52.378L46.5247 53.3542L45.4927 52.3115Z" fill="#DF4030"/>
<path d="M35.5128 54.3918L37.0599 54.932V53.5621C36.519 53.793 36.0076 54.0663 35.5128 54.3918Z" fill="white"/>
<path d="M37.0599 53.5621L38.9104 54.3918L39.2599 52.8748C38.4633 53.0498 37.7384 53.2725 37.0599 53.5621Z" fill="white"/>
<path d="M39.2599 52.8748L40.7609 53.9004L41.1468 52.5582C40.4721 52.643 39.8465 52.746 39.2599 52.8748Z" fill="white"/>
<path d="M41.1468 52.5582L42.9147 53.5621L43.363 52.3485C42.5667 52.405 41.8314 52.4722 41.1468 52.5582Z" fill="white"/>
<path d="M44.4744 52.2783C44.091 52.3 43.7208 52.3232 43.363 52.3485L44.4744 53.3542L45.4927 52.3115L44.4744 52.2783Z" fill="white"/>
<path d="M45.4927 52.3115L46.5247 53.3542L47.5269 52.378L45.4927 52.3115Z" fill="white"/>
<path d="M47.5269 52.378L48.3449 53.3542L49.4087 52.4395L47.5269 52.378Z" fill="white"/>
<path d="M49.4087 52.4395L50.347 53.3542L51.2289 52.499L49.4087 52.4395Z" fill="white"/>
<path d="M51.2289 52.499L52.0458 53.3542L52.7168 52.5476L51.2289 52.499Z" fill="white"/>
<path d="M82.6434 32.8174C98.3172 39.3175 105.171 46.3879 104.722 64.3109C103.326 74.2856 94.7755 80.1864 75.7304 82.5694C69.9769 83.7614 66.662 84.3036 66.1197 92.8571C64.6671 100.032 62.4445 102.425 57.0148 105C58.5204 99.6501 59.2072 96.5384 59.0381 89.9901C59.1933 83.2773 51.4996 82.5119 34.0838 82.5694C40.7134 76.0761 45.6182 75.2425 56.0031 77.6786C61.3527 79.3477 64.1884 79.0835 69.0569 77.0775C77.5325 73.9026 83.798 72.4745 81.9886 66.908C81.2119 64.252 79.7957 62.4341 73.7071 63.3433C67.6184 64.2524 31.0065 67.3987 20.2578 48.6707C35.2364 34.6063 45.5223 32.5944 64.6022 31.2996M82.6434 32.8174C81.4809 28.6909 82.2258 25.6212 83.8237 20C75.631 22.3427 71.3208 24.5052 64.6022 31.2996M82.6434 32.8174L80.1346 32.6064M64.6022 31.2996L67.6546 31.5564M67.6546 31.5564C72.3612 26.9158 75.2871 25.2877 80.74 23.1971C79.7052 26.7694 79.2576 28.7893 80.1346 32.6064M67.6546 31.5564C72.6652 31.4336 75.3871 31.6835 80.1346 32.6064M83.0788 63.3433C81.9481 61.9674 80.0773 61.2585 77.1726 61.1989L53.4496 61.9125C48.0356 61.4406 43.6813 60.8253 39.7058 59.5382M83.0788 63.3433C83.1668 63.4588 83.2528 63.5734 83.3368 63.6872M83.0788 63.3433C83.1695 63.4536 83.2555 63.5683 83.3368 63.6872M24.3526 49.6911C24.0072 49.3605 23.6583 49.0204 23.3054 48.6707C33.1857 40.4871 39.363 37.1223 52.2902 34.7939C64.0664 32.999 70.7876 32.4582 83.8237 35.5075C94.5059 39.5309 99.1949 43.8254 102.055 52.2783C104.011 62.5282 104.02 66.8777 98.9335 72.7064C91.687 78.6876 85.5636 80.5026 72.981 81.0026C69.0763 81.9257 66.7598 81.9705 64.6022 89.3879C63.728 95.171 62.4871 97.0447 60.406 100.628C63.9324 84.3032 58.315 80.8214 40.6963 80.2889C47.6334 78.4511 51.2594 78.3438 57.1062 80.2889C60.2338 81.2305 62.134 81.4005 66.1197 80.2889C72.6359 78.7429 76.2128 77.6405 81.9886 73.8661C83.3729 72.9995 84.4167 71.085 84.5383 68.3108C84.4734 66.3678 84.1176 64.8293 83.3368 63.6872M24.3526 49.6911C29.6871 48.1353 32.8953 47.487 39.2599 46.9687C43.9295 46.1175 46.5945 45.8827 50.8946 43.1502C54.6567 41.9743 56.7435 41.3453 59.9842 40.8469C65.4839 40.0518 68.72 39.795 75.7304 40.8469C82.0313 42.5926 85.6295 43.3704 91.0708 47.7567C95.4526 51.7106 98.0613 53.7881 99.8574 60.0004C100.434 63.2656 99.7898 66.4274 96.464 70.9712C91.048 76.8859 87.3627 78.4912 80.1346 79.6081C86.9004 71.8477 86.8805 68.4877 83.3368 63.6872M24.3526 49.6911C27.4572 52.6635 30.272 54.8741 33.0791 56.542M33.0791 56.542C35.2491 57.8313 37.4146 58.7963 39.7058 59.5382M33.0791 56.542H34.5117L34.1244 55.4803M33.0791 56.542C33.4286 56.1523 33.7754 55.7997 34.1244 55.4803M39.7058 59.5382C42.7042 56.1228 47.2668 54.6613 59.9842 52.7851L52.7168 52.5476M34.1244 55.4803L35.5128 55.7816V54.3918M34.1244 55.4803C34.5795 55.0638 35.0385 54.7039 35.5128 54.3918M35.5128 54.3918L37.0599 54.932V53.5621M35.5128 54.3918C36.0076 54.0663 36.519 53.793 37.0599 53.5621M37.0599 53.5621L38.9104 54.3918L39.2599 52.8748M37.0599 53.5621C37.7384 53.2725 38.4633 53.0498 39.2599 52.8748M39.2599 52.8748L40.7609 53.9004L41.1468 52.5582M39.2599 52.8748C39.8465 52.746 40.4721 52.643 41.1468 52.5582M41.1468 52.5582L42.9147 53.5621L43.363 52.3485M41.1468 52.5582C41.8314 52.4722 42.5667 52.405 43.363 52.3485M43.363 52.3485C43.7208 52.3232 44.091 52.3 44.4744 52.2783L45.4927 52.3115M43.363 52.3485L44.4744 53.3542L45.4927 52.3115M45.4927 52.3115L46.5247 53.3542L47.5269 52.378M45.4927 52.3115L47.5269 52.378M47.5269 52.378L48.3449 53.3542L49.4087 52.4395M47.5269 52.378L49.4087 52.4395M49.4087 52.4395L50.347 53.3542L51.2289 52.499M49.4087 52.4395L51.2289 52.499M51.2289 52.499L52.0458 53.3542L52.7168 52.5476M51.2289 52.499L52.7168 52.5476" stroke="black" stroke-width="0.3"/>
<path d="M45.581 42.3131C45.581 43.7761 44.3952 44.9621 42.9326 44.9621C41.4699 44.9621 40.2842 43.7761 40.2842 42.3131C40.2842 40.8501 41.4699 39.6641 42.9326 39.6641C44.3952 39.6641 45.581 40.8501 45.581 42.3131Z" fill="white"/>
<path d="M42.9316 40.5554C41.961 40.5554 41.1739 41.3424 41.1738 42.3132C41.1738 43.2841 41.961 44.071 42.9316 44.071C43.9022 44.071 44.6895 43.2841 44.6895 42.3132C44.6894 42.097 44.6486 41.8903 44.5771 41.699C44.445 41.9153 44.2085 42.0613 43.9365 42.0613C43.521 42.0613 43.1837 41.7239 43.1836 41.3083C43.1836 41.036 43.3303 40.7999 43.5469 40.6677C43.3553 40.596 43.1483 40.5554 42.9316 40.5554Z" fill="black"/>
</svg>
