<svg width="125" height="125" viewBox="0 0 125 125" fill="none" xmlns="http://www.w3.org/2000/svg">
<rect x="2.5" y="2.5" width="120" height="120" rx="60" stroke="#78B7B7" stroke-width="5"/>
<path fill-rule="evenodd" clip-rule="evenodd" d="M94.6511 55.8253C99.5677 56.239 103.877 52.7254 104.277 47.9776C104.676 43.2298 101.014 39.0456 96.0976 38.6319C93.9878 38.4544 91.9898 39 90.3646 40.056C93.0319 44.931 93.5344 48.5364 86.9113 44.416C86.6827 45.0693 86.5325 45.7603 86.472 46.4796C86.2495 49.1234 87.2864 51.5923 89.0979 53.3329C90.5397 54.7182 92.4722 55.642 94.6511 55.8253Z" fill="#DF4030"/>
<path d="M94.6511 55.8253C92.4722 55.642 90.5397 54.7182 89.0979 53.3329C89.5387 56.6443 88.243 56.2669 84.7314 55.8654L84.7115 61.0666C89.5113 60.2506 91.813 59.2697 94.6511 55.8253Z" fill="#DF4030"/>
<path d="M94.6511 55.8253C99.5677 56.239 103.877 52.7254 104.277 47.9776C104.676 43.2298 101.014 39.0456 96.0976 38.6319C93.9878 38.4544 91.9898 39 90.3646 40.056C93.0319 44.931 93.5344 48.5364 86.9113 44.416C86.6827 45.0693 86.5325 45.7603 86.472 46.4796C86.2495 49.1234 87.2864 51.5923 89.0979 53.3329M94.6511 55.8253C92.4722 55.642 90.5397 54.7182 89.0979 53.3329M94.6511 55.8253C91.813 59.2697 89.5113 60.2506 84.7115 61.0666L84.7314 55.8654C88.243 56.2669 89.5387 56.6443 89.0979 53.3329" stroke="black"/>
<path fill-rule="evenodd" clip-rule="evenodd" d="M30.3489 57.1259C25.4323 57.5395 21.1227 54.026 20.7233 49.2782C20.3239 44.5303 23.9858 40.3461 28.9024 39.9324C31.0122 39.7549 33.0102 40.3006 34.6354 41.3566C31.9681 46.2315 31.4656 49.8369 38.0887 45.7166C38.3172 46.3699 38.4675 47.0608 38.528 47.7802C38.7504 50.4239 37.7136 52.8929 35.9021 54.6334C34.4603 56.0187 32.5278 56.9426 30.3489 57.1259Z" fill="#DF4030"/>
<path d="M30.3489 57.1259C32.5278 56.9426 34.4603 56.0187 35.9021 54.6334C35.4613 57.9448 36.757 57.5674 40.2686 57.166L40.2884 62.3672C35.4886 61.5512 33.187 60.5703 30.3489 57.1259Z" fill="#DF4030"/>
<path d="M30.3489 57.1259C25.4323 57.5395 21.1227 54.026 20.7233 49.2782C20.3239 44.5303 23.9858 40.3461 28.9024 39.9324C31.0122 39.7549 33.0102 40.3006 34.6354 41.3566C31.9681 46.2315 31.4656 49.8369 38.0887 45.7166C38.3172 46.3699 38.4675 47.0608 38.528 47.7802C38.7504 50.4239 37.7136 52.8929 35.9021 54.6334M30.3489 57.1259C32.5278 56.9426 34.4603 56.0187 35.9021 54.6334M30.3489 57.1259C33.187 60.5703 35.4886 61.5512 40.2884 62.3672L40.2686 57.166C36.757 57.5674 35.4613 57.9448 35.9021 54.6334" stroke="black"/>
<path d="M41.1151 74.2556L45.0124 69.4194L43.6413 68.084L39.599 71.7653C38.52 72.7324 38.4179 73.2994 39.599 74.2556C40.2417 74.3924 40.5649 74.4106 41.1151 74.2556Z" fill="#DF4030"/>
<path d="M41.1151 74.2556C40.5649 74.4106 40.2417 74.3924 39.599 74.2556L38.7956 77.135L40.813 79.134L41.1151 74.2556Z" fill="#DF4030"/>
<path d="M40.813 79.134C39.8998 79.6939 39.4168 79.8188 38.2774 79.7994C40.6192 83.9197 42.54 85.0927 46.6992 85.4339C47.3493 84.6235 43.6815 81.9107 40.813 79.134Z" fill="#DF4030"/>
<path d="M40.813 79.134L38.7956 77.135L37.9652 78.7592C37.895 79.1941 37.9746 79.4202 38.2774 79.7994C39.4168 79.8188 39.8998 79.6939 40.813 79.134Z" fill="#DF4030"/>
<path d="M41.1151 74.2556L45.0124 69.4194L43.6413 68.084L39.599 71.7653C38.52 72.7324 38.4179 73.2994 39.599 74.2556M41.1151 74.2556C40.5649 74.4106 40.2417 74.3924 39.599 74.2556M41.1151 74.2556L40.813 79.134M39.599 74.2556L38.7956 77.135M38.7956 77.135L40.813 79.134M38.7956 77.135L37.9652 78.7592C37.895 79.1941 37.9746 79.4202 38.2774 79.7994M40.813 79.134C39.8998 79.6939 39.4168 79.8188 38.2774 79.7994M40.813 79.134C43.6815 81.9107 47.3493 84.6235 46.6992 85.4339C42.54 85.0927 40.6192 83.9197 38.2774 79.7994" stroke="black"/>
<path d="M43.2829 67.7043L36.8423 71.6279L34.492 77.0776C36.628 81.4292 39.7036 86.0363 38.6277 86.695C34.0159 84.5956 32.3035 82.4658 31.3215 76.7955C31.1313 76.2378 31.1333 75.9468 31.3924 75.4787L33.0087 73.9643L35.1101 71.0047C34.1537 69.4267 34.5033 68.8208 36.1337 68.1595L42.2653 65.6149L43.2829 67.7043Z" fill="#DF4030"/>
<path d="M36.8423 71.6279L43.2829 67.7043L42.2653 65.6149L36.1337 68.1595C34.5033 68.8208 34.1537 69.4267 35.1101 71.0047M36.8423 71.6279C36.1499 71.5788 35.7882 71.4252 35.1101 71.0047M36.8423 71.6279L34.492 77.0776M35.1101 71.0047L33.0087 73.9643M33.0087 73.9643L34.492 77.0776M33.0087 73.9643L31.3924 75.4787C31.1333 75.9468 31.1313 76.2378 31.3215 76.7955M34.492 77.0776C33.2185 77.3419 32.6153 77.286 31.3215 76.7955M34.492 77.0776C36.628 81.4292 39.7036 86.0363 38.6277 86.695C34.0159 84.5956 32.3035 82.4658 31.3215 76.7955" stroke="black"/>
<path d="M42.6789 65.483L34.3435 66.3521L29.3867 70.7027C29.457 76.0892 30.3487 82.1801 28.9547 82.3285C25.3257 78.0229 24.6218 75.0687 26.3385 68.9084C26.4134 68.2579 26.5541 67.9667 27.0372 67.6203L29.3815 66.8704L32.9017 64.9009C32.6936 62.861 33.3334 62.4194 35.2852 62.5325L42.6532 62.9005L42.6789 65.483Z" fill="#DF4030"/>
<path d="M34.3435 66.3521L42.6789 65.483L42.6532 62.9005L35.2852 62.5325C33.3334 62.4194 32.6936 62.861 32.9017 64.9009M34.3435 66.3521C33.6718 65.9728 33.382 65.6462 32.9017 64.9009M34.3435 66.3521L29.3867 70.7027M32.9017 64.9009L29.3815 66.8704M29.3815 66.8704L29.3867 70.7027M29.3815 66.8704L27.0372 67.6203C26.5541 67.9667 26.4134 68.2579 26.3385 68.9084M29.3867 70.7027C27.9824 70.361 27.4035 70.0175 26.3385 68.9084M29.3867 70.7027C29.457 76.0892 30.3487 82.1801 28.9547 82.3285C25.3257 78.0229 24.6218 75.0687 26.3385 68.9084" stroke="black"/>
<path d="M83.1261 74.726L79.2288 69.8899L80.5999 68.5544L84.6422 72.2358C85.7213 73.2029 85.8233 73.7699 84.6422 74.726C83.9995 74.8628 83.6764 74.881 83.1261 74.726Z" fill="#DF4030"/>
<path d="M83.1261 74.726C83.6764 74.881 83.9995 74.8628 84.6422 74.726L85.4456 77.6055L83.4282 79.6045L83.1261 74.726Z" fill="#DF4030"/>
<path d="M83.4282 79.6045L85.4456 77.6055L86.276 79.2297C86.3462 79.6646 86.2666 79.8907 85.9638 80.2698C84.8244 80.2892 84.3414 80.1643 83.4282 79.6045Z" fill="#DF4030"/>
<path d="M83.4282 79.6045C84.3414 80.1643 84.8244 80.2892 85.9638 80.2698C83.622 84.3902 81.7012 85.5632 77.5421 85.9043C76.8919 85.0939 80.5597 82.3812 83.4282 79.6045Z" fill="#DF4030"/>
<path d="M83.1261 74.726L79.2288 69.8899L80.5999 68.5544L84.6422 72.2358C85.7213 73.2029 85.8233 73.7699 84.6422 74.726M83.1261 74.726C83.6764 74.881 83.9995 74.8628 84.6422 74.726M83.1261 74.726L83.4282 79.6045M84.6422 74.726L85.4456 77.6055M85.4456 77.6055L83.4282 79.6045M85.4456 77.6055L86.276 79.2297C86.3462 79.6646 86.2666 79.8907 85.9638 80.2698M83.4282 79.6045C84.3414 80.1643 84.8244 80.2892 85.9638 80.2698M83.4282 79.6045C80.5597 82.3812 76.8919 85.0939 77.5421 85.9043C81.7012 85.5632 83.622 84.3902 85.9638 80.2698" stroke="black"/>
<path d="M87.396 72.0983L80.9553 68.1747L81.9729 66.0853L88.1046 68.6299C89.735 69.2913 90.0846 69.8972 89.1282 71.4751C88.4501 71.8956 88.0884 72.0492 87.396 72.0983Z" fill="#DF4030"/>
<path d="M87.396 72.0983C88.0884 72.0492 88.4501 71.8956 89.1282 71.4751L91.2297 74.4348L89.7464 77.548L87.396 72.0983Z" fill="#DF4030"/>
<path d="M89.7464 77.548L91.2297 74.4348L92.846 75.9492C93.1051 76.4172 93.1071 76.7082 92.9169 77.2659C91.6231 77.7564 91.0199 77.8123 89.7464 77.548Z" fill="#DF4030"/>
<path d="M89.7464 77.548C91.0199 77.8123 91.6231 77.7564 92.9169 77.2659C91.9349 82.9362 90.2225 85.0659 85.6107 87.1653C84.5348 86.5066 87.6104 81.8995 89.7464 77.548Z" fill="#DF4030"/>
<path d="M87.396 72.0983L80.9553 68.1747L81.9729 66.0853L88.1046 68.6299C89.735 69.2913 90.0846 69.8972 89.1282 71.4751M87.396 72.0983C88.0884 72.0492 88.4501 71.8956 89.1282 71.4751M87.396 72.0983L89.7464 77.548M89.1282 71.4751L91.2297 74.4348M91.2297 74.4348L89.7464 77.548M91.2297 74.4348L92.846 75.9492C93.1051 76.4172 93.1071 76.7082 92.9169 77.2659M89.7464 77.548C91.0199 77.8123 91.6231 77.7564 92.9169 77.2659M89.7464 77.548C87.6104 81.8995 84.5348 86.5066 85.6107 87.1653C90.2225 85.0659 91.9349 82.9362 92.9169 77.2659" stroke="black"/>
<path d="M90.3011 66.3519L81.9655 65.4829L81.9912 62.9005L89.3593 62.5324C91.3112 62.4193 91.951 62.8609 91.7429 64.9008C91.2626 65.6461 90.9727 65.9727 90.3011 66.3519Z" fill="#DF4030"/>
<path d="M90.3011 66.3519C90.9727 65.9727 91.2626 65.6461 91.7429 64.9008L95.2631 66.8703L95.2579 70.7025L90.3011 66.3519Z" fill="#DF4030"/>
<path d="M95.2579 70.7025L95.2631 66.8703L97.6075 67.6202C98.0906 67.9666 98.2313 68.2578 98.3062 68.9083C97.2412 70.0173 96.6622 70.3609 95.2579 70.7025Z" fill="#DF4030"/>
<path d="M95.2579 70.7025C96.6622 70.3609 97.2412 70.0173 98.3062 68.9083C100.023 75.0685 99.319 78.0226 95.69 82.3282C94.296 82.1798 95.1876 76.089 95.2579 70.7025Z" fill="#DF4030"/>
<path d="M90.3011 66.3519L81.9655 65.4829L81.9912 62.9005L89.3593 62.5324C91.3112 62.4193 91.951 62.8609 91.7429 64.9008M90.3011 66.3519C90.9727 65.9727 91.2626 65.6461 91.7429 64.9008M90.3011 66.3519L95.2579 70.7025M91.7429 64.9008L95.2631 66.8703M95.2631 66.8703L95.2579 70.7025M95.2631 66.8703L97.6075 67.6202C98.0906 67.9666 98.2313 68.2578 98.3062 68.9083M95.2579 70.7025C96.6622 70.3609 97.2412 70.0173 98.3062 68.9083M95.2579 70.7025C95.1876 76.089 94.296 82.1798 95.69 82.3282C99.319 78.0226 100.023 75.0685 98.3062 68.9083" stroke="black"/>
<path d="M62.0302 74.999C48.3782 73.8132 41.8392 71.4753 38.7129 57.2946C44.3448 55.1475 46.8948 53.0412 52.676 49.6599C58.4572 46.2787 65.77 46.5791 71.5028 49.6599C77.2356 52.7407 80.1406 54.2191 86.3099 56.103C82.3276 70.4807 76.9181 74.5217 62.0302 74.999Z" fill="#DF4030" stroke="black"/>
<path d="M71.6514 39.6079C74.8843 39.6082 77.5049 42.2295 77.5049 45.4624C77.5046 48.6951 74.8841 51.3157 71.6514 51.3159C68.4184 51.3159 65.7971 48.6953 65.7969 45.4624C65.7969 42.2293 68.4183 39.6079 71.6514 39.6079Z" fill="#DF4030" stroke="black"/>
<path d="M76.8581 46.2994C76.8581 49.346 74.3883 51.8158 71.3416 51.8158C68.295 51.8158 65.8252 49.346 65.8252 46.2994C65.8252 43.2527 68.295 40.783 71.3416 40.783C74.3883 40.783 76.8581 43.2527 76.8581 46.2994Z" fill="white"/>
<path d="M71.3389 42.6387C69.3171 42.6387 67.6777 44.278 67.6777 46.2998C67.678 48.3214 69.3172 49.96 71.3389 49.96C73.3604 49.9599 74.9988 48.3213 74.999 46.2998C74.999 45.8496 74.9182 45.4179 74.7695 45.0195C74.4944 45.4709 73.999 45.7734 73.4316 45.7734C72.5662 45.7732 71.8643 45.0716 71.8643 44.2061C71.8643 43.6388 72.1668 43.1433 72.6182 42.8682C72.22 42.7196 71.7888 42.6387 71.3389 42.6387Z" fill="black"/>
<path d="M49.9951 40.4451C46.7622 40.4453 44.1416 43.0666 44.1416 46.2996C44.1419 49.5323 46.7624 52.1528 49.9951 52.1531C53.2281 52.1531 55.8493 49.5324 55.8496 46.2996C55.8496 43.0665 53.2282 40.4451 49.9951 40.4451Z" fill="#DF4030" stroke="black"/>
<path d="M44.7913 47.1368C44.7913 50.1834 47.2611 52.6532 50.3078 52.6532C53.3544 52.6532 55.8242 50.1834 55.8242 47.1368C55.8242 44.0901 53.3544 41.6204 50.3078 41.6204C47.2611 41.6204 44.7913 44.0901 44.7913 47.1368Z" fill="white"/>
<path d="M50.3057 43.4753C52.3274 43.4753 53.9668 45.1147 53.9668 47.1365C53.9667 49.1582 52.3274 50.7966 50.3057 50.7966C48.2841 50.7964 46.6456 49.158 46.6455 47.1365C46.6455 46.6865 46.7265 46.2554 46.875 45.8572C47.1502 46.3083 47.6458 46.6101 48.2129 46.6101C49.0785 46.61 49.7803 45.9083 49.7803 45.0427C49.7802 44.4758 49.4784 43.98 49.0273 43.7048C49.4253 43.5565 49.856 43.4754 50.3057 43.4753Z" fill="black"/>
<g filter="url(#filter0_d_2041_3966)">
<path d="M53.9834 57.3586C54.2168 57.5295 54.4417 57.6912 54.6738 57.8521C56.7589 59.2761 59.0737 60.5766 61.7516 60.8105C64.4722 61.0785 67.0001 59.6486 68.8226 57.9444C69.0357 57.7509 69.2333 57.5611 69.4388 57.3586C69.1923 57.5086 68.9571 57.6474 68.7103 57.7912C66.5404 59.0704 64.213 60.0494 61.8284 59.8134C59.4458 59.6145 57.102 58.6385 54.7648 57.6854C54.505 57.5776 54.2497 57.4715 53.9834 57.3586Z" fill="black"/>
</g>
<ellipse cx="0.465523" cy="0.465521" rx="0.465523" ry="0.465521" transform="matrix(-0.964482 0.264149 0.26415 0.964482 56.0293 71.5986)" fill="black" fill-opacity="0.62"/>
<ellipse cx="0.86149" cy="0.861486" rx="0.86149" ry="0.861486" transform="matrix(-0.964482 0.264149 0.26415 0.964482 52.8584 69.9016)" fill="black" fill-opacity="0.62"/>
<ellipse cx="0.576357" cy="0.576355" rx="0.576357" ry="0.576355" transform="matrix(-0.964481 0.264153 0.264146 0.964483 51.1455 66.916)" fill="black" fill-opacity="0.62"/>
<ellipse cx="0.961914" cy="0.96191" rx="0.961914" ry="0.96191" transform="matrix(-0.964483 0.264146 0.264153 0.964481 48.168 68.6924)" fill="black" fill-opacity="0.62"/>
<ellipse cx="0.52244" cy="0.522438" rx="0.52244" ry="0.522438" transform="matrix(-0.964483 0.264144 0.264155 0.96448 46.6543 65.7466)" fill="black" fill-opacity="0.62"/>
<ellipse cx="72.1013" cy="71.4445" rx="0.465523" ry="0.465521" fill="black" fill-opacity="0.62"/>
<ellipse cx="75.1076" cy="69.3661" rx="0.86149" ry="0.861486" fill="black" fill-opacity="0.62"/>
<ellipse cx="75.6838" cy="65.7492" rx="0.576357" ry="0.576355" fill="black" fill-opacity="0.62"/>
<ellipse cx="79.4121" cy="67.0613" rx="0.961914" ry="0.961909" fill="black" fill-opacity="0.62"/>
<ellipse cx="79.6533" cy="63.3808" rx="0.52244" ry="0.522438" fill="black" fill-opacity="0.62"/>
<ellipse cx="50.2212" cy="58.8549" rx="2.60693" ry="2.3276" fill="#FFB5B5"/>
<ellipse cx="73.8032" cy="58.8554" rx="2.60693" ry="2.3276" fill="#FFB5B5"/>
<defs>
<filter id="filter0_d_2041_3966" x="49.9834" y="57.3586" width="23.4551" height="11.4844" filterUnits="userSpaceOnUse" color-interpolation-filters="sRGB">
<feFlood flood-opacity="0" result="BackgroundImageFix"/>
<feColorMatrix in="SourceAlpha" type="matrix" values="0 0 0 0 0 0 0 0 0 0 0 0 0 0 0 0 0 0 127 0" result="hardAlpha"/>
<feOffset dy="4"/>
<feGaussianBlur stdDeviation="2"/>
<feComposite in2="hardAlpha" operator="out"/>
<feColorMatrix type="matrix" values="0 0 0 0 0 0 0 0 0 0 0 0 0 0 0 0 0 0 0.25 0"/>
<feBlend mode="normal" in2="BackgroundImageFix" result="effect1_dropShadow_2041_3966"/>
<feBlend mode="normal" in="SourceGraphic" in2="effect1_dropShadow_2041_3966" result="shape"/>
</filter>
</defs>
</svg>
