<svg width="130" height="130" viewBox="0 0 130 130" fill="none" xmlns="http://www.w3.org/2000/svg">
<g clip-path="url(#clip0_2032_318)">
<path d="M64.9916 28.4373C62.1794 28.4373 59.4303 27.6033 57.0921 26.041C54.7538 24.4786 52.9314 22.2579 51.8552 19.6598C50.779 17.0617 50.4974 14.2027 51.0461 11.4446C51.5947 8.68641 52.9489 6.15287 54.9374 4.16434C56.926 2.17581 59.4595 0.821605 62.2177 0.272972C64.9758 -0.275662 67.8347 0.00591673 70.4329 1.0821C73.031 2.15828 75.2517 3.98074 76.8141 6.319C78.3764 8.65726 79.2104 11.4063 79.2104 14.2185C79.2063 17.9883 77.707 21.6026 75.0413 24.2682C72.3757 26.9339 68.7614 28.4332 64.9916 28.4373Z" fill="#7EBCBA"/>
<path d="M109.679 28.6404L109.565 28.6709L109.458 28.7039C109.204 28.775 108.95 28.8511 108.696 28.9298C103.971 30.3162 81.0385 36.7806 64.8824 36.7806C49.8689 36.7806 29.0105 31.1947 22.3379 29.298C21.6738 29.0412 20.9956 28.8225 20.3066 28.6429C15.4824 27.3734 12.1816 32.2738 12.1816 36.7527C12.1816 41.1884 16.168 43.3009 20.1924 44.8168V44.8878L44.3693 52.439C46.8398 53.3861 47.5 54.3535 47.8225 55.1914C48.8711 57.8802 48.0332 63.2046 47.7361 65.0632L46.2635 76.489L38.0902 121.225C38.0648 121.347 38.042 121.471 38.0217 121.598L37.9633 121.92C37.3742 126.021 40.3855 130 46.0883 130C51.0648 130 53.2611 126.564 54.2133 121.89C54.2133 121.89 61.3227 81.882 64.8773 81.882C68.432 81.882 75.7547 121.89 75.7547 121.89C76.7068 126.564 78.9031 130 83.8797 130C89.5977 130 92.609 126.003 92.0047 121.89C91.9514 121.54 91.8879 121.194 91.8117 120.859L83.5268 76.4941L82.0566 65.0683C80.9928 58.4134 81.8484 56.2146 82.1379 55.6992C82.1456 55.687 82.1524 55.6743 82.1582 55.6611C82.4324 55.1533 83.6816 54.0158 86.5965 52.9214L109.265 44.997C109.404 44.96 109.542 44.9159 109.677 44.865C113.739 43.3416 117.802 41.2341 117.802 36.7578C117.802 32.2814 114.503 27.3734 109.679 28.6404Z" fill="#7EBCBA"/>
</g>
<defs>
<clipPath id="clip0_2032_318">
<rect width="130" height="130" fill="white"/>
</clipPath>
</defs>
</svg>
