<svg width="25" height="25" viewBox="0 0 25 25" fill="none" xmlns="http://www.w3.org/2000/svg">
<path d="M18.8284 22.9996C17.9134 22.9996 16.6281 22.6686 14.7034 21.5933C12.3629 20.2808 10.5526 19.0691 8.22481 16.7474C5.98044 14.5044 4.88825 13.0522 3.35965 10.2707C1.63278 7.13003 1.92715 5.48378 2.25622 4.78019C2.64809 3.93925 3.22653 3.43628 3.97419 2.93707C4.39885 2.65883 4.84825 2.42032 5.31669 2.22457C5.36356 2.20441 5.40715 2.18519 5.44606 2.16785C5.67809 2.06332 6.02965 1.90535 6.47497 2.0741C6.77215 2.18566 7.03747 2.41394 7.45278 2.8241C8.3045 3.6641 9.4684 5.53488 9.89778 6.45363C10.1861 7.07285 10.3768 7.4816 10.3773 7.94003C10.3773 8.47675 10.1073 8.89066 9.77965 9.33738C9.71825 9.42128 9.65731 9.50144 9.59825 9.57925C9.24153 10.048 9.16325 10.1835 9.21481 10.4253C9.31934 10.9114 10.0989 12.3585 11.38 13.6368C12.6611 14.915 14.0664 15.6453 14.5543 15.7494C14.8065 15.8033 14.9448 15.7218 15.4286 15.3524C15.4979 15.2994 15.5692 15.2446 15.6437 15.1897C16.1434 14.818 16.5381 14.555 17.0622 14.555H17.065C17.5211 14.555 17.9115 14.7528 18.5584 15.0791C19.4022 15.5047 21.3292 16.6536 22.1743 17.5063C22.5854 17.9207 22.8147 18.185 22.9267 18.4818C23.0954 18.9285 22.9365 19.2786 22.8329 19.513C22.8156 19.5519 22.7964 19.5946 22.7762 19.6419C22.5789 20.1095 22.339 20.558 22.0595 20.9816C21.5612 21.7269 21.0564 22.3039 20.2136 22.6963C19.7808 22.901 19.3071 23.0047 18.8284 22.9996Z" fill="#DF4030"/>
</svg>
