<svg width="130" height="130" viewBox="0 0 130 130" fill="none" xmlns="http://www.w3.org/2000/svg">
<path d="M65 12.1875C35.8795 12.1875 12.1875 35.8795 12.1875 65C12.1875 94.1205 35.8795 117.812 65 117.812C94.1205 117.812 117.812 94.1205 117.812 65C117.812 35.8795 94.1205 12.1875 65 12.1875ZM92.4854 47.3002L58.3604 87.9252C57.986 88.3711 57.5202 88.7313 56.9946 88.9814C56.4689 89.2315 55.8956 89.3658 55.3135 89.375H55.2449C54.6755 89.3748 54.1125 89.2549 53.5924 89.0231C53.0723 88.7912 52.6068 88.4527 52.226 88.0293L37.601 71.7793C37.2296 71.3854 36.9406 70.9211 36.7512 70.4139C36.5617 69.9067 36.4756 69.3668 36.4978 68.8258C36.52 68.2848 36.6501 67.7537 36.8805 67.2638C37.1109 66.7738 37.4369 66.3348 37.8393 65.9727C38.2418 65.6105 38.7126 65.3324 39.224 65.1548C39.7355 64.9771 40.2773 64.9035 40.8176 64.9383C41.3579 64.973 41.8859 65.1155 42.3703 65.3571C42.8548 65.5988 43.2861 65.9349 43.6389 66.3457L55.1383 79.1223L86.2646 42.0748C86.9628 41.2676 87.9507 40.7675 89.0146 40.6828C90.0785 40.598 91.133 40.9353 91.9502 41.6217C92.7675 42.3082 93.2817 43.2887 93.3818 44.3513C93.482 45.4138 93.1599 46.4731 92.4854 47.3002Z" fill="#7EBCBA"/>
</svg>
