<svg width="130" height="130" viewBox="0 0 130 130" fill="none" xmlns="http://www.w3.org/2000/svg">
<path d="M51.7969 60.9375H17.2656C14.8414 60.9375 12.5164 59.9745 10.8022 58.2603C9.08803 56.5461 8.125 54.2211 8.125 51.7969V17.2656C8.125 14.8414 9.08803 12.5164 10.8022 10.8022C12.5164 9.08803 14.8414 8.125 17.2656 8.125H51.7969C54.2211 8.125 56.5461 9.08803 58.2603 10.8022C59.9745 12.5164 60.9375 14.8414 60.9375 17.2656V51.7969C60.9375 54.2211 59.9745 56.5461 58.2603 58.2603C56.5461 59.9745 54.2211 60.9375 51.7969 60.9375Z" fill="#7EBCBA"/>
<path d="M112.734 60.9375H78.2031C75.7789 60.9375 73.4539 59.9745 71.7397 58.2603C70.0255 56.5461 69.0625 54.2211 69.0625 51.7969V17.2656C69.0625 14.8414 70.0255 12.5164 71.7397 10.8022C73.4539 9.08803 75.7789 8.125 78.2031 8.125H112.734C115.159 8.125 117.484 9.08803 119.198 10.8022C120.912 12.5164 121.875 14.8414 121.875 17.2656V51.7969C121.875 54.2211 120.912 56.5461 119.198 58.2603C117.484 59.9745 115.159 60.9375 112.734 60.9375Z" fill="#7EBCBA"/>
<path d="M51.7969 121.875H17.2656C14.8414 121.875 12.5164 120.912 10.8022 119.198C9.08803 117.484 8.125 115.159 8.125 112.734V78.2031C8.125 75.7789 9.08803 73.4539 10.8022 71.7397C12.5164 70.0255 14.8414 69.0625 17.2656 69.0625H51.7969C54.2211 69.0625 56.5461 70.0255 58.2603 71.7397C59.9745 73.4539 60.9375 75.7789 60.9375 78.2031V112.734C60.9375 115.159 59.9745 117.484 58.2603 119.198C56.5461 120.912 54.2211 121.875 51.7969 121.875Z" fill="#7EBCBA"/>
<path d="M112.734 121.875H78.2031C75.7789 121.875 73.4539 120.912 71.7397 119.198C70.0255 117.484 69.0625 115.159 69.0625 112.734V78.2031C69.0625 75.7789 70.0255 73.4539 71.7397 71.7397C73.4539 70.0255 75.7789 69.0625 78.2031 69.0625H112.734C115.159 69.0625 117.484 70.0255 119.198 71.7397C120.912 73.4539 121.875 75.7789 121.875 78.2031V112.734C121.875 115.159 120.912 117.484 119.198 119.198C117.484 120.912 115.159 121.875 112.734 121.875Z" fill="#7EBCBA"/>
</svg>
