<svg width="130" height="130" viewBox="0 0 130 130" fill="none" xmlns="http://www.w3.org/2000/svg">
<path d="M85.3083 65C80.088 65 75.0403 62.6691 71.0896 58.4391C67.248 54.3131 64.9019 48.8109 64.488 42.9508C64.0462 36.6996 65.953 30.9512 69.8556 26.7617C73.7581 22.5723 79.2146 20.3125 85.3083 20.3125C91.3589 20.3125 96.8306 22.6129 100.72 26.7922C104.648 31.0121 106.56 36.7504 106.118 42.9482C105.694 48.816 103.351 54.3156 99.5169 58.4365C95.5763 62.6691 90.5312 65 85.3083 65Z" fill="#7EBCBA"/>
<path d="M118.781 109.688H51.8384C50.7621 109.693 49.6988 109.452 48.7304 108.982C47.762 108.513 46.9143 107.827 46.2524 106.978C45.5504 106.058 45.0656 104.991 44.8343 103.857C44.603 102.723 44.6313 101.552 44.9169 100.43C47.0548 91.8455 52.3513 84.726 60.2325 79.8434C67.2276 75.5117 76.1321 73.125 85.3083 73.125C94.6647 73.125 103.336 75.4102 110.371 79.7393C118.27 84.5965 123.575 91.7567 125.702 100.445C125.984 101.568 126.01 102.739 125.776 103.873C125.542 105.006 125.055 106.072 124.351 106.991C123.69 107.836 122.845 108.518 121.879 108.985C120.913 109.453 119.854 109.693 118.781 109.688Z" fill="#7EBCBA"/>
<path d="M37.32 66.0156C28.3851 66.0156 20.5292 57.7078 19.8005 47.4982C19.4399 42.2678 21.07 37.4309 24.3708 33.8838C27.636 30.3723 32.2419 28.4375 37.32 28.4375C42.3981 28.4375 46.9685 30.3824 50.2515 33.9143C53.5776 37.4893 55.2026 42.316 54.8218 47.5033C54.0931 57.7104 46.2397 66.0156 37.32 66.0156Z" fill="#7EBCBA"/>
<path d="M53.9915 74.001C49.5253 71.8174 43.7286 70.7256 37.3226 70.7256C29.8425 70.7256 22.5782 72.6756 16.8653 76.215C10.3882 80.2344 6.03116 86.0869 4.27159 93.1531C4.01409 94.1695 3.98973 95.2309 4.20034 96.2581C4.41095 97.2852 4.85108 98.2514 5.4878 99.0844C6.09196 99.86 6.86596 100.487 7.75027 100.916C8.63458 101.346 9.60564 101.567 10.5888 101.563H38.7724C39.2481 101.562 39.7086 101.395 40.0738 101.091C40.439 100.786 40.6856 100.362 40.7706 99.8943C40.7985 99.7344 40.8341 99.5744 40.8747 99.417C43.0278 90.769 48.073 83.4615 55.5276 78.1346C55.8018 77.9369 56.0224 77.674 56.1693 77.3696C56.3161 77.0652 56.3848 76.729 56.3689 76.3913C56.353 76.0537 56.2531 75.7254 56.0783 75.4361C55.9035 75.1469 55.6592 74.9058 55.3677 74.7348C54.969 74.5012 54.512 74.2549 53.9915 74.001Z" fill="#7EBCBA"/>
</svg>
