<svg width="130" height="130" viewBox="0 0 130 130" fill="none" xmlns="http://www.w3.org/2000/svg">
<path d="M65.0008 93.437C64.2936 93.437 63.5987 93.2523 62.9848 92.9013L27.4227 72.5761C27.1136 72.3977 26.7631 72.3038 26.4063 72.304C26.0495 72.3041 25.699 72.3982 25.3901 72.5768C25.0812 72.7555 24.8249 73.0123 24.6468 73.3215C24.4687 73.6307 24.3753 73.9814 24.3758 74.3382V93.437C24.3752 94.1621 24.5686 94.8741 24.9361 95.4992C25.3035 96.1243 25.8316 96.6396 26.4654 96.9917L63.0279 117.304C63.6314 117.639 64.3104 117.815 65.0008 117.815C65.6912 117.815 66.3701 117.639 66.9736 117.304L103.536 96.9917C104.17 96.6396 104.698 96.1243 105.065 95.4992C105.433 94.8741 105.626 94.1621 105.626 93.437V74.3382C105.626 73.9814 105.533 73.6307 105.355 73.3215C105.177 73.0123 104.92 72.7555 104.611 72.5768C104.303 72.3982 103.952 72.3041 103.595 72.304C103.238 72.3038 102.888 72.3977 102.579 72.5761L67.0168 92.9013C66.4029 93.2523 65.708 93.437 65.0008 93.437Z" fill="#7EBCBA"/>
<path d="M125.918 48.3687C125.918 48.3687 125.918 48.3484 125.918 48.3407C125.852 47.6968 125.634 47.0779 125.28 46.5355C124.927 45.9932 124.449 45.5431 123.887 45.2228L67.0117 12.7228C66.3978 12.3718 65.7029 12.1873 64.9957 12.1873C64.2885 12.1873 63.5936 12.3718 62.9797 12.7228L6.10469 45.2228C5.48309 45.5782 4.96647 46.0915 4.60715 46.7109C4.24784 47.3302 4.05859 48.0335 4.05859 48.7495C4.05859 49.4656 4.24784 50.1689 4.60715 50.7882C4.96647 51.4075 5.48309 51.9209 6.10469 52.2763L62.9797 84.7763C63.5936 85.1272 64.2885 85.3118 64.9957 85.3118C65.7029 85.3118 66.3978 85.1272 67.0117 84.7763L117.052 56.1839C117.129 56.1393 117.217 56.1158 117.306 56.1159C117.395 56.116 117.483 56.1396 117.56 56.1844C117.638 56.2292 117.702 56.2936 117.746 56.3711C117.79 56.4486 117.814 56.5364 117.813 56.6257V93.3228C117.813 95.5089 119.494 97.3853 121.68 97.4945C122.23 97.5209 122.779 97.4356 123.294 97.2436C123.809 97.0517 124.28 96.7571 124.678 96.3777C125.076 95.9984 125.393 95.5421 125.61 95.0366C125.827 94.5312 125.938 93.987 125.938 93.437V48.7495C125.938 48.6223 125.931 48.4952 125.918 48.3687Z" fill="#7EBCBA"/>
</svg>
