<svg width="25" height="25" viewBox="0 0 25 25" fill="none" xmlns="http://www.w3.org/2000/svg">
<path d="M23.1722 11.143L23.1647 11.1397L3.14531 2.83625C2.97693 2.76577 2.7937 2.73813 2.61202 2.7558C2.43034 2.77347 2.25587 2.83589 2.10422 2.9375C1.944 3.04248 1.81239 3.18565 1.72124 3.35413C1.63009 3.5226 1.58225 3.7111 1.58203 3.90265V9.21312C1.58212 9.47499 1.67356 9.72862 1.84059 9.9303C2.00761 10.132 2.23977 10.2691 2.49703 10.318L13.4156 12.3369C13.4585 12.345 13.4973 12.3679 13.5251 12.4015C13.553 12.4351 13.5682 12.4774 13.5682 12.5211C13.5682 12.5648 13.553 12.6071 13.5251 12.6407C13.4973 12.6743 13.4585 12.6972 13.4156 12.7053L2.4975 14.7242C2.24031 14.773 2.00817 14.9099 1.84107 15.1114C1.67396 15.3129 1.58236 15.5663 1.58203 15.8281V21.1395C1.58191 21.3224 1.6272 21.5025 1.71384 21.6636C1.80048 21.8247 1.92576 21.9618 2.07844 22.0625C2.26209 22.1845 2.47763 22.2497 2.69813 22.25C2.85142 22.2499 3.00314 22.2191 3.14438 22.1595L23.1633 13.9034L23.1722 13.8992C23.4417 13.7834 23.6713 13.5911 23.8326 13.3462C23.9939 13.1013 24.0799 12.8144 24.0799 12.5211C24.0799 12.2278 23.9939 11.9409 23.8326 11.696C23.6713 11.451 23.4417 11.2588 23.1722 11.143Z" fill="white"/>
</svg>
