<svg width="130" height="130" viewBox="0 0 130 130" fill="none" xmlns="http://www.w3.org/2000/svg">
<path d="M65 12.1875C35.8338 12.1875 12.1875 35.8338 12.1875 65C12.1875 94.1662 35.8338 117.812 65 117.812C94.1662 117.812 117.812 94.1662 117.812 65C117.812 35.8338 94.1662 12.1875 65 12.1875ZM89.375 73.125H65C63.9226 73.125 62.8892 72.697 62.1274 71.9351C61.3655 71.1733 60.9375 70.1399 60.9375 69.0625V32.5C60.9375 31.4226 61.3655 30.3892 62.1274 29.6274C62.8892 28.8655 63.9226 28.4375 65 28.4375C66.0774 28.4375 67.1108 28.8655 67.8726 29.6274C68.6345 30.3892 69.0625 31.4226 69.0625 32.5V65H89.375C90.4524 65 91.4858 65.428 92.2476 66.1899C93.0095 66.9517 93.4375 67.9851 93.4375 69.0625C93.4375 70.1399 93.0095 71.1733 92.2476 71.9351C91.4858 72.697 90.4524 73.125 89.375 73.125Z" fill="#7EBCBA"/>
</svg>
