<svg width="25" height="25" viewBox="0 0 25 25" fill="none" xmlns="http://www.w3.org/2000/svg">
<path d="M17.0233 3.74984C18.1826 3.75331 19.2935 4.21539 20.1133 5.03517C20.9331 5.85495 21.3951 6.96582 21.3986 8.12516V16.8748C21.3951 18.0342 20.9331 19.1451 20.1133 19.9648C19.2935 20.7846 18.1826 21.2467 17.0233 21.2502H8.27359C7.11425 21.2467 6.00339 20.7846 5.18361 19.9648C4.36382 19.1451 3.90174 18.0342 3.89828 16.8748V8.12516C3.90174 6.96582 4.36382 5.85495 5.18361 5.03517C6.00339 4.21539 7.11425 3.75331 8.27359 3.74984H17.0233ZM17.0233 2H8.27359C4.90469 2 2.14844 4.75625 2.14844 8.12516V16.8748C2.14844 20.2437 4.90469 23 8.27359 23H17.0233C20.3922 23 23.1484 20.2437 23.1484 16.8748V8.12516C23.1484 4.75625 20.3922 2 17.0233 2Z" fill="black"/>
<path d="M18.3358 8.12516C18.0762 8.12516 17.8224 8.04818 17.6066 7.90396C17.3908 7.75974 17.2225 7.55476 17.1232 7.31493C17.0238 7.0751 16.9979 6.8112 17.0485 6.5566C17.0991 6.302 17.2241 6.06814 17.4077 5.88458C17.5913 5.70102 17.8251 5.57602 18.0797 5.52538C18.3343 5.47473 18.5982 5.50072 18.8381 5.60006C19.0779 5.6994 19.2829 5.86763 19.4271 6.08347C19.5713 6.29931 19.6483 6.55307 19.6483 6.81266C19.6487 6.98512 19.615 7.15596 19.5491 7.31537C19.4833 7.47477 19.3866 7.61961 19.2647 7.74156C19.1427 7.86351 18.9979 7.96018 18.8385 8.026C18.6791 8.09183 18.5082 8.12553 18.3358 8.12516Z" fill="black"/>
<path d="M12.6484 8.99984C13.3407 8.99984 14.0174 9.20512 14.593 9.58973C15.1686 9.97433 15.6172 10.521 15.8822 11.1605C16.1471 11.8001 16.2164 12.5039 16.0813 13.1828C15.9463 13.8618 15.6129 14.4855 15.1234 14.975C14.6339 15.4645 14.0102 15.7978 13.3313 15.9329C12.6523 16.068 11.9486 15.9986 11.309 15.7337C10.6694 15.4688 10.1228 15.0202 9.73816 14.4446C9.35356 13.869 9.14828 13.1923 9.14828 12.5C9.14927 11.572 9.51836 10.6823 10.1745 10.0261C10.8307 9.36992 11.7204 9.00084 12.6484 8.99984ZM12.6484 7.25C11.6101 7.25 10.5951 7.55791 9.73169 8.13478C8.86834 8.71166 8.19543 9.5316 7.79807 10.4909C7.40071 11.4502 7.29674 12.5058 7.49932 13.5242C7.70189 14.5426 8.2019 15.4781 8.93613 16.2123C9.67035 16.9465 10.6058 17.4466 11.6242 17.6491C12.6426 17.8517 13.6982 17.7477 14.6575 17.3504C15.6168 16.953 16.4368 16.2801 17.0137 15.4167C17.5905 14.5534 17.8984 13.5384 17.8984 12.5C17.8984 11.1076 17.3453 9.77226 16.3607 8.78769C15.3762 7.80312 14.0408 7.25 12.6484 7.25Z" fill="black"/>
</svg>
